M48
;DRILL file {KiCad 4.0.4-stable} date 02/21/17 16:43:51
;FORMAT={-:-/ absolute / inch / decimal}
FMAT,2
INCH,TZ
T1C0.039
T2C0.043
T3C0.126
%
G90
G05
M72
T1
X0.6913Y-1.2449
X0.6913Y-1.3449
X0.6913Y-1.4449
X0.7913Y-1.2449
X0.7913Y-1.3449
X0.7913Y-1.4449
X1.7209Y-1.5618
X1.7209Y-1.6618
X1.7209Y-1.7618
X1.8209Y-1.5618
X1.8209Y-1.6618
X1.8209Y-1.7618
X2.3917Y-1.4224
X2.3917Y-1.5224
X2.3917Y-1.6224
X2.3917Y-1.7224
T2
X2.3917Y-0.9894
X2.3917Y-1.0894
X2.3917Y-1.1894
X2.3917Y-1.2894
T3
X0.6988Y-0.935
X0.6988Y-1.8504
X2.126Y-0.935
X2.126Y-1.8504
T0
M30
