G04 #@! TF.FileFunction,Legend,Bot*
%FSLAX46Y46*%
G04 Gerber Fmt 4.6, Leading zero omitted, Abs format (unit mm)*
G04 Created by KiCad (PCBNEW 4.0.4-stable) date 02/21/17 16:43:53*
%MOMM*%
%LPD*%
G01*
G04 APERTURE LIST*
%ADD10C,0.100000*%
%ADD11C,0.300000*%
%ADD12C,0.200000*%
%ADD13C,0.010000*%
G04 APERTURE END LIST*
D10*
D11*
X54785714Y-27803571D02*
X55928571Y-28232143D01*
X54785714Y-28660714D01*
X54071428Y-28232143D02*
X52928571Y-28232143D01*
X52214285Y-28232143D02*
X51071428Y-28232143D01*
X54928571Y-29853571D02*
X54428571Y-31353571D01*
X53928571Y-29853571D01*
X53428571Y-30782143D02*
X52285714Y-30782143D01*
X52857143Y-31353571D02*
X52857143Y-30210714D01*
X55749999Y-33903571D02*
X55749999Y-32403571D01*
X55392856Y-32403571D01*
X55178571Y-32475000D01*
X55035713Y-32617857D01*
X54964285Y-32760714D01*
X54892856Y-33046429D01*
X54892856Y-33260714D01*
X54964285Y-33546429D01*
X55035713Y-33689286D01*
X55178571Y-33832143D01*
X55392856Y-33903571D01*
X55749999Y-33903571D01*
X54321428Y-33475000D02*
X53607142Y-33475000D01*
X54464285Y-33903571D02*
X53964285Y-32403571D01*
X53464285Y-33903571D01*
X53178571Y-32403571D02*
X52321428Y-32403571D01*
X52749999Y-33903571D02*
X52749999Y-32403571D01*
X51892857Y-33475000D02*
X51178571Y-33475000D01*
X52035714Y-33903571D02*
X51535714Y-32403571D01*
X51035714Y-33903571D01*
X54392857Y-36310714D02*
X54464286Y-36382143D01*
X54678572Y-36453571D01*
X54821429Y-36453571D01*
X55035714Y-36382143D01*
X55178572Y-36239286D01*
X55250000Y-36096429D01*
X55321429Y-35810714D01*
X55321429Y-35596429D01*
X55250000Y-35310714D01*
X55178572Y-35167857D01*
X55035714Y-35025000D01*
X54821429Y-34953571D01*
X54678572Y-34953571D01*
X54464286Y-35025000D01*
X54392857Y-35096429D01*
X53035714Y-36453571D02*
X53750000Y-36453571D01*
X53750000Y-34953571D01*
X52535714Y-36453571D02*
X52535714Y-34953571D01*
X51678571Y-36453571D02*
X52321428Y-35596429D01*
X51678571Y-34953571D02*
X52535714Y-35810714D01*
X54642857Y-37575000D02*
X54785714Y-37503571D01*
X55000000Y-37503571D01*
X55214285Y-37575000D01*
X55357143Y-37717857D01*
X55428571Y-37860714D01*
X55500000Y-38146429D01*
X55500000Y-38360714D01*
X55428571Y-38646429D01*
X55357143Y-38789286D01*
X55214285Y-38932143D01*
X55000000Y-39003571D01*
X54857143Y-39003571D01*
X54642857Y-38932143D01*
X54571428Y-38860714D01*
X54571428Y-38360714D01*
X54857143Y-38360714D01*
X53928571Y-39003571D02*
X53928571Y-37503571D01*
X53071428Y-39003571D01*
X53071428Y-37503571D01*
X52357142Y-39003571D02*
X52357142Y-37503571D01*
X51999999Y-37503571D01*
X51785714Y-37575000D01*
X51642856Y-37717857D01*
X51571428Y-37860714D01*
X51499999Y-38146429D01*
X51499999Y-38360714D01*
X51571428Y-38646429D01*
X51642856Y-38789286D01*
X51785714Y-38932143D01*
X51999999Y-39003571D01*
X52357142Y-39003571D01*
X54785714Y-40553571D02*
X55928571Y-40982143D01*
X54785714Y-41410714D01*
X54071428Y-40982143D02*
X52928571Y-40982143D01*
X52214285Y-40982143D02*
X51071428Y-40982143D01*
X40000000Y-38950000D02*
X40142857Y-38878571D01*
X40357143Y-38878571D01*
X40571428Y-38950000D01*
X40714286Y-39092857D01*
X40785714Y-39235714D01*
X40857143Y-39521429D01*
X40857143Y-39735714D01*
X40785714Y-40021429D01*
X40714286Y-40164286D01*
X40571428Y-40307143D01*
X40357143Y-40378571D01*
X40214286Y-40378571D01*
X40000000Y-40307143D01*
X39928571Y-40235714D01*
X39928571Y-39735714D01*
X40214286Y-39735714D01*
X39285714Y-40378571D02*
X39285714Y-38878571D01*
X38428571Y-40378571D01*
X38428571Y-38878571D01*
X37714285Y-40378571D02*
X37714285Y-38878571D01*
X37357142Y-38878571D01*
X37142857Y-38950000D01*
X36999999Y-39092857D01*
X36928571Y-39235714D01*
X36857142Y-39521429D01*
X36857142Y-39735714D01*
X36928571Y-40021429D01*
X36999999Y-40164286D01*
X37142857Y-40307143D01*
X37357142Y-40378571D01*
X37714285Y-40378571D01*
X34214285Y-40378571D02*
X34714285Y-39664286D01*
X35071428Y-40378571D02*
X35071428Y-38878571D01*
X34500000Y-38878571D01*
X34357142Y-38950000D01*
X34285714Y-39021429D01*
X34214285Y-39164286D01*
X34214285Y-39378571D01*
X34285714Y-39521429D01*
X34357142Y-39592857D01*
X34500000Y-39664286D01*
X35071428Y-39664286D01*
X33642857Y-40307143D02*
X33428571Y-40378571D01*
X33071428Y-40378571D01*
X32928571Y-40307143D01*
X32857142Y-40235714D01*
X32785714Y-40092857D01*
X32785714Y-39950000D01*
X32857142Y-39807143D01*
X32928571Y-39735714D01*
X33071428Y-39664286D01*
X33357142Y-39592857D01*
X33500000Y-39521429D01*
X33571428Y-39450000D01*
X33642857Y-39307143D01*
X33642857Y-39164286D01*
X33571428Y-39021429D01*
X33500000Y-38950000D01*
X33357142Y-38878571D01*
X33000000Y-38878571D01*
X32785714Y-38950000D01*
X32357143Y-38878571D02*
X31500000Y-38878571D01*
X31928571Y-40378571D02*
X31928571Y-38878571D01*
X41392857Y-42928571D02*
X41392857Y-41428571D01*
X40892857Y-42500000D01*
X40392857Y-41428571D01*
X40392857Y-42928571D01*
X39392857Y-41428571D02*
X39107143Y-41428571D01*
X38964285Y-41500000D01*
X38821428Y-41642857D01*
X38750000Y-41928571D01*
X38750000Y-42428571D01*
X38821428Y-42714286D01*
X38964285Y-42857143D01*
X39107143Y-42928571D01*
X39392857Y-42928571D01*
X39535714Y-42857143D01*
X39678571Y-42714286D01*
X39750000Y-42428571D01*
X39750000Y-41928571D01*
X39678571Y-41642857D01*
X39535714Y-41500000D01*
X39392857Y-41428571D01*
X38178571Y-42857143D02*
X37964285Y-42928571D01*
X37607142Y-42928571D01*
X37464285Y-42857143D01*
X37392856Y-42785714D01*
X37321428Y-42642857D01*
X37321428Y-42500000D01*
X37392856Y-42357143D01*
X37464285Y-42285714D01*
X37607142Y-42214286D01*
X37892856Y-42142857D01*
X38035714Y-42071429D01*
X38107142Y-42000000D01*
X38178571Y-41857143D01*
X38178571Y-41714286D01*
X38107142Y-41571429D01*
X38035714Y-41500000D01*
X37892856Y-41428571D01*
X37535714Y-41428571D01*
X37321428Y-41500000D01*
X36678571Y-42928571D02*
X36678571Y-41428571D01*
X34892857Y-42857143D02*
X34678571Y-42928571D01*
X34321428Y-42928571D01*
X34178571Y-42857143D01*
X34107142Y-42785714D01*
X34035714Y-42642857D01*
X34035714Y-42500000D01*
X34107142Y-42357143D01*
X34178571Y-42285714D01*
X34321428Y-42214286D01*
X34607142Y-42142857D01*
X34750000Y-42071429D01*
X34821428Y-42000000D01*
X34892857Y-41857143D01*
X34892857Y-41714286D01*
X34821428Y-41571429D01*
X34750000Y-41500000D01*
X34607142Y-41428571D01*
X34250000Y-41428571D01*
X34035714Y-41500000D01*
X32535714Y-42785714D02*
X32607143Y-42857143D01*
X32821429Y-42928571D01*
X32964286Y-42928571D01*
X33178571Y-42857143D01*
X33321429Y-42714286D01*
X33392857Y-42571429D01*
X33464286Y-42285714D01*
X33464286Y-42071429D01*
X33392857Y-41785714D01*
X33321429Y-41642857D01*
X33178571Y-41500000D01*
X32964286Y-41428571D01*
X32821429Y-41428571D01*
X32607143Y-41500000D01*
X32535714Y-41571429D01*
X31892857Y-42928571D02*
X31892857Y-41428571D01*
X31035714Y-42928571D02*
X31678571Y-42071429D01*
X31035714Y-41428571D02*
X31892857Y-42285714D01*
X41535714Y-43978571D02*
X41035714Y-45478571D01*
X40535714Y-43978571D01*
X39178571Y-45335714D02*
X39250000Y-45407143D01*
X39464286Y-45478571D01*
X39607143Y-45478571D01*
X39821428Y-45407143D01*
X39964286Y-45264286D01*
X40035714Y-45121429D01*
X40107143Y-44835714D01*
X40107143Y-44621429D01*
X40035714Y-44335714D01*
X39964286Y-44192857D01*
X39821428Y-44050000D01*
X39607143Y-43978571D01*
X39464286Y-43978571D01*
X39250000Y-44050000D01*
X39178571Y-44121429D01*
X37678571Y-45335714D02*
X37750000Y-45407143D01*
X37964286Y-45478571D01*
X38107143Y-45478571D01*
X38321428Y-45407143D01*
X38464286Y-45264286D01*
X38535714Y-45121429D01*
X38607143Y-44835714D01*
X38607143Y-44621429D01*
X38535714Y-44335714D01*
X38464286Y-44192857D01*
X38321428Y-44050000D01*
X38107143Y-43978571D01*
X37964286Y-43978571D01*
X37750000Y-44050000D01*
X37678571Y-44121429D01*
X35892857Y-45478571D02*
X35892857Y-43978571D01*
X35392857Y-45050000D01*
X34892857Y-43978571D01*
X34892857Y-45478571D01*
X34178571Y-45478571D02*
X34178571Y-43978571D01*
X33535714Y-45407143D02*
X33321428Y-45478571D01*
X32964285Y-45478571D01*
X32821428Y-45407143D01*
X32749999Y-45335714D01*
X32678571Y-45192857D01*
X32678571Y-45050000D01*
X32749999Y-44907143D01*
X32821428Y-44835714D01*
X32964285Y-44764286D01*
X33249999Y-44692857D01*
X33392857Y-44621429D01*
X33464285Y-44550000D01*
X33535714Y-44407143D01*
X33535714Y-44264286D01*
X33464285Y-44121429D01*
X33392857Y-44050000D01*
X33249999Y-43978571D01*
X32892857Y-43978571D01*
X32678571Y-44050000D01*
X31750000Y-43978571D02*
X31464286Y-43978571D01*
X31321428Y-44050000D01*
X31178571Y-44192857D01*
X31107143Y-44478571D01*
X31107143Y-44978571D01*
X31178571Y-45264286D01*
X31321428Y-45407143D01*
X31464286Y-45478571D01*
X31750000Y-45478571D01*
X31892857Y-45407143D01*
X32035714Y-45264286D01*
X32107143Y-44978571D01*
X32107143Y-44478571D01*
X32035714Y-44192857D01*
X31892857Y-44050000D01*
X31750000Y-43978571D01*
D12*
X47716665Y-23438095D02*
X47716665Y-22138095D01*
X47283332Y-23066667D01*
X46849999Y-22138095D01*
X46849999Y-23438095D01*
X45673808Y-23438095D02*
X45673808Y-22757143D01*
X45735713Y-22633333D01*
X45859523Y-22571429D01*
X46107142Y-22571429D01*
X46230951Y-22633333D01*
X45673808Y-23376190D02*
X45797618Y-23438095D01*
X46107142Y-23438095D01*
X46230951Y-23376190D01*
X46292856Y-23252381D01*
X46292856Y-23128571D01*
X46230951Y-23004762D01*
X46107142Y-22942857D01*
X45797618Y-22942857D01*
X45673808Y-22880952D01*
X45054761Y-22571429D02*
X45054761Y-23438095D01*
X45054761Y-22695238D02*
X44992856Y-22633333D01*
X44869047Y-22571429D01*
X44683333Y-22571429D01*
X44559523Y-22633333D01*
X44497618Y-22757143D01*
X44497618Y-23438095D01*
X43878571Y-23438095D02*
X43878571Y-22571429D01*
X43878571Y-22138095D02*
X43940476Y-22200000D01*
X43878571Y-22261905D01*
X43816666Y-22200000D01*
X43878571Y-22138095D01*
X43878571Y-22261905D01*
X42702380Y-23438095D02*
X42702380Y-22757143D01*
X42764285Y-22633333D01*
X42888095Y-22571429D01*
X43135714Y-22571429D01*
X43259523Y-22633333D01*
X42702380Y-23376190D02*
X42826190Y-23438095D01*
X43135714Y-23438095D01*
X43259523Y-23376190D01*
X43321428Y-23252381D01*
X43321428Y-23128571D01*
X43259523Y-23004762D01*
X43135714Y-22942857D01*
X42826190Y-22942857D01*
X42702380Y-22880952D01*
X41526190Y-23376190D02*
X41650000Y-23438095D01*
X41897619Y-23438095D01*
X42021428Y-23376190D01*
X42083333Y-23314286D01*
X42145238Y-23190476D01*
X42145238Y-22819048D01*
X42083333Y-22695238D01*
X42021428Y-22633333D01*
X41897619Y-22571429D01*
X41650000Y-22571429D01*
X41526190Y-22633333D01*
X40411904Y-23438095D02*
X40411904Y-22757143D01*
X40473809Y-22633333D01*
X40597619Y-22571429D01*
X40845238Y-22571429D01*
X40969047Y-22633333D01*
X40411904Y-23376190D02*
X40535714Y-23438095D01*
X40845238Y-23438095D01*
X40969047Y-23376190D01*
X41030952Y-23252381D01*
X41030952Y-23128571D01*
X40969047Y-23004762D01*
X40845238Y-22942857D01*
X40535714Y-22942857D01*
X40411904Y-22880952D01*
X39607143Y-23438095D02*
X39730952Y-23376190D01*
X39792857Y-23252381D01*
X39792857Y-22138095D01*
X37502382Y-23438095D02*
X38121429Y-23438095D01*
X38121429Y-22138095D01*
X36511905Y-23438095D02*
X36511905Y-22757143D01*
X36573810Y-22633333D01*
X36697620Y-22571429D01*
X36945239Y-22571429D01*
X37069048Y-22633333D01*
X36511905Y-23376190D02*
X36635715Y-23438095D01*
X36945239Y-23438095D01*
X37069048Y-23376190D01*
X37130953Y-23252381D01*
X37130953Y-23128571D01*
X37069048Y-23004762D01*
X36945239Y-22942857D01*
X36635715Y-22942857D01*
X36511905Y-22880952D01*
X35892858Y-23438095D02*
X35892858Y-22138095D01*
X35892858Y-22633333D02*
X35769049Y-22571429D01*
X35521430Y-22571429D01*
X35397620Y-22633333D01*
X35335715Y-22695238D01*
X35273811Y-22819048D01*
X35273811Y-23190476D01*
X35335715Y-23314286D01*
X35397620Y-23376190D01*
X35521430Y-23438095D01*
X35769049Y-23438095D01*
X35892858Y-23376190D01*
X34778573Y-23376190D02*
X34654763Y-23438095D01*
X34407144Y-23438095D01*
X34283335Y-23376190D01*
X34221430Y-23252381D01*
X34221430Y-23190476D01*
X34283335Y-23066667D01*
X34407144Y-23004762D01*
X34592859Y-23004762D01*
X34716668Y-22942857D01*
X34778573Y-22819048D01*
X34778573Y-22757143D01*
X34716668Y-22633333D01*
X34592859Y-22571429D01*
X34407144Y-22571429D01*
X34283335Y-22633333D01*
X46323809Y-25216667D02*
X45704761Y-25216667D01*
X46447618Y-25588095D02*
X46014285Y-24288095D01*
X45580952Y-25588095D01*
X44961904Y-25588095D02*
X45085713Y-25526190D01*
X45147618Y-25402381D01*
X45147618Y-24288095D01*
X44280952Y-25588095D02*
X44404761Y-25526190D01*
X44466666Y-25402381D01*
X44466666Y-24288095D01*
X43785714Y-25588095D02*
X43785714Y-24288095D01*
X43290476Y-24288095D01*
X43166667Y-24350000D01*
X43104762Y-24411905D01*
X43042857Y-24535714D01*
X43042857Y-24721429D01*
X43104762Y-24845238D01*
X43166667Y-24907143D01*
X43290476Y-24969048D01*
X43785714Y-24969048D01*
X42485714Y-25588095D02*
X42485714Y-24721429D01*
X42485714Y-24288095D02*
X42547619Y-24350000D01*
X42485714Y-24411905D01*
X42423809Y-24350000D01*
X42485714Y-24288095D01*
X42485714Y-24411905D01*
X41990476Y-25588095D02*
X41309523Y-24721429D01*
X41990476Y-24721429D02*
X41309523Y-25588095D01*
X40319047Y-25526190D02*
X40442857Y-25588095D01*
X40690476Y-25588095D01*
X40814285Y-25526190D01*
X40876190Y-25402381D01*
X40876190Y-24907143D01*
X40814285Y-24783333D01*
X40690476Y-24721429D01*
X40442857Y-24721429D01*
X40319047Y-24783333D01*
X40257142Y-24907143D01*
X40257142Y-25030952D01*
X40876190Y-25154762D01*
X39514285Y-25588095D02*
X39638094Y-25526190D01*
X39699999Y-25402381D01*
X39699999Y-24288095D01*
X39019047Y-25588095D02*
X39019047Y-24288095D01*
X38585714Y-25216667D01*
X38152381Y-24288095D01*
X38152381Y-25588095D01*
X37533333Y-25588095D02*
X37533333Y-24721429D01*
X37533333Y-24288095D02*
X37595238Y-24350000D01*
X37533333Y-24411905D01*
X37471428Y-24350000D01*
X37533333Y-24288095D01*
X37533333Y-24411905D01*
X36914285Y-24721429D02*
X36914285Y-25588095D01*
X36914285Y-24845238D02*
X36852380Y-24783333D01*
X36728571Y-24721429D01*
X36542857Y-24721429D01*
X36419047Y-24783333D01*
X36357142Y-24907143D01*
X36357142Y-25588095D01*
X35738095Y-25588095D02*
X35738095Y-24721429D01*
X35738095Y-24288095D02*
X35800000Y-24350000D01*
X35738095Y-24411905D01*
X35676190Y-24350000D01*
X35738095Y-24288095D01*
X35738095Y-24411905D01*
X47159523Y-26438095D02*
X46416666Y-26438095D01*
X46788095Y-27738095D02*
X46788095Y-26438095D01*
X45488095Y-27676190D02*
X45611905Y-27738095D01*
X45859524Y-27738095D01*
X45983333Y-27676190D01*
X46045238Y-27552381D01*
X46045238Y-27057143D01*
X45983333Y-26933333D01*
X45859524Y-26871429D01*
X45611905Y-26871429D01*
X45488095Y-26933333D01*
X45426190Y-27057143D01*
X45426190Y-27180952D01*
X46045238Y-27304762D01*
X44930952Y-27676190D02*
X44807142Y-27738095D01*
X44559523Y-27738095D01*
X44435714Y-27676190D01*
X44373809Y-27552381D01*
X44373809Y-27490476D01*
X44435714Y-27366667D01*
X44559523Y-27304762D01*
X44745238Y-27304762D01*
X44869047Y-27242857D01*
X44930952Y-27119048D01*
X44930952Y-27057143D01*
X44869047Y-26933333D01*
X44745238Y-26871429D01*
X44559523Y-26871429D01*
X44435714Y-26933333D01*
X44002380Y-26871429D02*
X43507142Y-26871429D01*
X43816666Y-26438095D02*
X43816666Y-27552381D01*
X43754761Y-27676190D01*
X43630952Y-27738095D01*
X43507142Y-27738095D01*
X41711905Y-26438095D02*
X41711905Y-27366667D01*
X41773809Y-27552381D01*
X41897619Y-27676190D01*
X42083333Y-27738095D01*
X42207143Y-27738095D01*
X41092857Y-27738095D02*
X41092857Y-26871429D01*
X41092857Y-26438095D02*
X41154762Y-26500000D01*
X41092857Y-26561905D01*
X41030952Y-26500000D01*
X41092857Y-26438095D01*
X41092857Y-26561905D01*
X39916666Y-26871429D02*
X39916666Y-27923810D01*
X39978571Y-28047619D01*
X40040476Y-28109524D01*
X40164285Y-28171429D01*
X40350000Y-28171429D01*
X40473809Y-28109524D01*
X39916666Y-27676190D02*
X40040476Y-27738095D01*
X40288095Y-27738095D01*
X40411904Y-27676190D01*
X40473809Y-27614286D01*
X40535714Y-27490476D01*
X40535714Y-27119048D01*
X40473809Y-26995238D01*
X40411904Y-26933333D01*
X40288095Y-26871429D01*
X40040476Y-26871429D01*
X39916666Y-26933333D01*
X38307143Y-27738095D02*
X38307143Y-26438095D01*
X37811905Y-26438095D01*
X37688096Y-26500000D01*
X37626191Y-26561905D01*
X37564286Y-26685714D01*
X37564286Y-26871429D01*
X37626191Y-26995238D01*
X37688096Y-27057143D01*
X37811905Y-27119048D01*
X38307143Y-27119048D01*
X36264286Y-27614286D02*
X36326191Y-27676190D01*
X36511905Y-27738095D01*
X36635715Y-27738095D01*
X36821429Y-27676190D01*
X36945238Y-27552381D01*
X37007143Y-27428571D01*
X37069048Y-27180952D01*
X37069048Y-26995238D01*
X37007143Y-26747619D01*
X36945238Y-26623810D01*
X36821429Y-26500000D01*
X36635715Y-26438095D01*
X36511905Y-26438095D01*
X36326191Y-26500000D01*
X36264286Y-26561905D01*
X35273810Y-27057143D02*
X35088096Y-27119048D01*
X35026191Y-27180952D01*
X34964286Y-27304762D01*
X34964286Y-27490476D01*
X35026191Y-27614286D01*
X35088096Y-27676190D01*
X35211905Y-27738095D01*
X35707143Y-27738095D01*
X35707143Y-26438095D01*
X35273810Y-26438095D01*
X35150000Y-26500000D01*
X35088096Y-26561905D01*
X35026191Y-26685714D01*
X35026191Y-26809524D01*
X35088096Y-26933333D01*
X35150000Y-26995238D01*
X35273810Y-27057143D01*
X35707143Y-27057143D01*
D13*
G36*
X30219868Y-21435141D02*
X30030670Y-21435704D01*
X29848197Y-21436553D01*
X29675198Y-21437693D01*
X29514420Y-21439121D01*
X29368612Y-21440837D01*
X29240522Y-21442843D01*
X29132899Y-21445137D01*
X29048489Y-21447719D01*
X28990042Y-21450591D01*
X28960306Y-21453751D01*
X28958955Y-21454101D01*
X28885350Y-21489801D01*
X28831728Y-21542954D01*
X28798744Y-21607582D01*
X28787052Y-21677706D01*
X28797308Y-21747346D01*
X28830167Y-21810525D01*
X28886283Y-21861264D01*
X28912782Y-21875553D01*
X28975181Y-21904312D01*
X28975591Y-23386141D01*
X28976000Y-24867969D01*
X28548806Y-25608641D01*
X28458263Y-25765615D01*
X28355103Y-25944444D01*
X28242584Y-26139483D01*
X28123962Y-26345090D01*
X28002493Y-26555620D01*
X27881432Y-26765429D01*
X27764037Y-26968874D01*
X27653563Y-27160312D01*
X27604244Y-27245770D01*
X27515033Y-27400722D01*
X27430691Y-27547946D01*
X27352542Y-27685082D01*
X27281911Y-27809771D01*
X27220123Y-27919652D01*
X27168503Y-28012365D01*
X27128376Y-28085552D01*
X27101066Y-28136852D01*
X27087898Y-28163905D01*
X27086875Y-28167254D01*
X27094741Y-28187854D01*
X27117046Y-28232330D01*
X27151855Y-28297359D01*
X27197233Y-28379615D01*
X27251244Y-28475774D01*
X27311953Y-28582511D01*
X27377423Y-28696503D01*
X27445721Y-28814423D01*
X27514909Y-28932948D01*
X27583052Y-29048754D01*
X27648216Y-29158515D01*
X27708463Y-29258906D01*
X27761859Y-29346605D01*
X27806468Y-29418285D01*
X27840355Y-29470622D01*
X27861584Y-29500292D01*
X27865401Y-29504468D01*
X27912876Y-29548125D01*
X33087125Y-29548125D01*
X33134600Y-29504468D01*
X33151394Y-29482746D01*
X33181461Y-29437288D01*
X33222866Y-29371420D01*
X33273675Y-29288466D01*
X33331950Y-29191753D01*
X33395758Y-29084605D01*
X33463162Y-28970346D01*
X33532228Y-28852303D01*
X33601019Y-28733800D01*
X33667600Y-28618163D01*
X33730037Y-28508717D01*
X33786392Y-28408786D01*
X33834733Y-28321695D01*
X33873121Y-28250771D01*
X33899623Y-28199338D01*
X33912303Y-28170720D01*
X33913126Y-28166933D01*
X33906861Y-28151738D01*
X33408183Y-28151738D01*
X33133492Y-28627681D01*
X32858802Y-29103625D01*
X28141346Y-29103625D01*
X27866306Y-28626873D01*
X27591265Y-28150121D01*
X27699373Y-27964091D01*
X27747892Y-27880084D01*
X27798609Y-27791405D01*
X27845301Y-27708982D01*
X27879772Y-27647315D01*
X27952063Y-27516567D01*
X29967875Y-27516125D01*
X29672252Y-27813781D01*
X29592275Y-27894852D01*
X29519259Y-27969905D01*
X29456362Y-28035609D01*
X29406743Y-28088634D01*
X29373560Y-28125650D01*
X29360268Y-28142697D01*
X29352957Y-28180230D01*
X29365296Y-28215316D01*
X29390308Y-28251070D01*
X29430694Y-28295828D01*
X29479952Y-28343770D01*
X29531580Y-28389074D01*
X29579074Y-28425919D01*
X29615933Y-28448484D01*
X29630520Y-28452750D01*
X29652868Y-28442200D01*
X29694213Y-28410232D01*
X29755092Y-28356363D01*
X29836040Y-28280114D01*
X29937592Y-28181002D01*
X29979190Y-28139741D01*
X30293625Y-27826732D01*
X30293625Y-28261522D01*
X30293814Y-28392308D01*
X30294520Y-28495011D01*
X30295949Y-28573296D01*
X30298309Y-28630830D01*
X30301809Y-28671276D01*
X30306655Y-28698301D01*
X30313056Y-28715570D01*
X30319898Y-28725343D01*
X30336734Y-28738829D01*
X30362193Y-28747459D01*
X30402819Y-28752237D01*
X30465156Y-28754165D01*
X30509246Y-28754375D01*
X30582993Y-28753988D01*
X30631948Y-28751820D01*
X30663068Y-28746360D01*
X30683310Y-28736094D01*
X30699630Y-28719512D01*
X30705947Y-28711627D01*
X30716079Y-28697620D01*
X30723883Y-28681895D01*
X30729608Y-28660501D01*
X30733503Y-28629484D01*
X30735815Y-28584892D01*
X30736793Y-28522771D01*
X30736686Y-28439170D01*
X30735741Y-28330136D01*
X30734880Y-28251238D01*
X30733664Y-28139830D01*
X30732637Y-28039621D01*
X30731836Y-27954754D01*
X30731300Y-27889372D01*
X30731063Y-27847619D01*
X30731154Y-27833611D01*
X30742126Y-27844389D01*
X30772577Y-27874776D01*
X30819606Y-27921863D01*
X30880307Y-27982739D01*
X30951779Y-28054496D01*
X31031118Y-28134225D01*
X31032779Y-28135894D01*
X31114205Y-28216741D01*
X31190054Y-28290133D01*
X31256990Y-28352994D01*
X31311678Y-28402247D01*
X31350782Y-28434816D01*
X31370663Y-28447556D01*
X31391093Y-28448152D01*
X31415531Y-28437567D01*
X31448775Y-28412398D01*
X31495625Y-28369244D01*
X31533382Y-28332190D01*
X31595633Y-28267657D01*
X31635484Y-28219575D01*
X31655419Y-28184681D01*
X31658875Y-28167521D01*
X31653549Y-28149558D01*
X31636229Y-28122344D01*
X31604910Y-28083608D01*
X31557584Y-28031079D01*
X31492243Y-27962484D01*
X31406880Y-27875551D01*
X31353434Y-27821867D01*
X31047993Y-27516125D01*
X31475443Y-27516125D01*
X31614762Y-27516235D01*
X31725588Y-27515593D01*
X31811172Y-27512739D01*
X31874762Y-27506213D01*
X31919608Y-27494556D01*
X31948960Y-27476308D01*
X31966068Y-27450009D01*
X31974180Y-27414200D01*
X31976546Y-27367420D01*
X31976417Y-27308211D01*
X31976375Y-27291107D01*
X31976751Y-27229737D01*
X31975702Y-27180980D01*
X31969967Y-27143390D01*
X31956283Y-27115522D01*
X31931389Y-27095933D01*
X31892023Y-27083178D01*
X31834922Y-27075811D01*
X31756824Y-27072388D01*
X31654468Y-27071465D01*
X31524591Y-27071596D01*
X31480804Y-27071625D01*
X31048733Y-27071625D01*
X31361742Y-26757189D01*
X31451102Y-26666371D01*
X31528596Y-26585517D01*
X31591949Y-26517128D01*
X31638886Y-26463706D01*
X31667132Y-26427753D01*
X31674750Y-26412990D01*
X31663254Y-26386392D01*
X31632729Y-26345976D01*
X31589124Y-26297523D01*
X31538387Y-26246817D01*
X31486466Y-26199641D01*
X31439310Y-26161778D01*
X31402866Y-26139010D01*
X31388823Y-26135000D01*
X31369893Y-26141738D01*
X31338933Y-26163065D01*
X31294064Y-26200648D01*
X31233410Y-26256153D01*
X31155092Y-26331247D01*
X31057233Y-26427597D01*
X31040655Y-26444083D01*
X30730188Y-26753166D01*
X30734866Y-26328775D01*
X30736547Y-26190249D01*
X30737206Y-26080203D01*
X30735349Y-25995374D01*
X30729485Y-25932496D01*
X30718121Y-25888302D01*
X30699764Y-25859528D01*
X30672922Y-25842909D01*
X30636103Y-25835179D01*
X30587814Y-25833073D01*
X30526564Y-25833325D01*
X30508454Y-25833375D01*
X30428223Y-25834496D01*
X30373863Y-25838371D01*
X30339555Y-25845763D01*
X30319481Y-25857438D01*
X30318572Y-25858321D01*
X30311079Y-25869469D01*
X30305220Y-25888540D01*
X30300802Y-25919092D01*
X30297635Y-25964686D01*
X30295527Y-26028878D01*
X30294286Y-26115230D01*
X30293721Y-26227298D01*
X30293625Y-26322142D01*
X30293625Y-26761017D01*
X29979190Y-26448008D01*
X29875023Y-26345240D01*
X29790982Y-26264457D01*
X29725607Y-26204357D01*
X29677442Y-26163639D01*
X29645027Y-26141001D01*
X29628565Y-26135000D01*
X29596360Y-26147050D01*
X29548071Y-26181515D01*
X29488969Y-26234218D01*
X29422723Y-26300807D01*
X29379631Y-26352289D01*
X29357356Y-26392492D01*
X29353563Y-26425242D01*
X29360268Y-26445052D01*
X29375552Y-26464412D01*
X29410177Y-26502842D01*
X29460984Y-26557013D01*
X29524814Y-26623594D01*
X29598509Y-26699256D01*
X29672252Y-26773968D01*
X29967875Y-27071625D01*
X28211411Y-27071625D01*
X28242706Y-27020031D01*
X28277529Y-26961823D01*
X28323922Y-26883049D01*
X28380377Y-26786349D01*
X28445386Y-26674365D01*
X28517441Y-26549736D01*
X28595034Y-26415105D01*
X28676656Y-26273113D01*
X28760799Y-26126400D01*
X28845956Y-25977608D01*
X28930618Y-25829378D01*
X29013277Y-25684351D01*
X29092424Y-25545167D01*
X29166552Y-25414468D01*
X29234153Y-25294896D01*
X29293718Y-25189090D01*
X29343740Y-25099693D01*
X29382709Y-25029345D01*
X29409118Y-24980688D01*
X29421460Y-24956361D01*
X29422104Y-24954659D01*
X29424214Y-24931630D01*
X29426221Y-24879011D01*
X29428105Y-24798962D01*
X29429846Y-24693643D01*
X29431425Y-24565212D01*
X29432821Y-24415830D01*
X29434015Y-24247656D01*
X29434987Y-24062850D01*
X29435718Y-23863573D01*
X29436186Y-23651983D01*
X29436373Y-23430240D01*
X29436375Y-23400636D01*
X29436375Y-21896375D01*
X31563011Y-21896375D01*
X31571563Y-24968187D01*
X31915271Y-25563500D01*
X32004982Y-25718868D01*
X32104527Y-25891244D01*
X32209479Y-26072961D01*
X32315410Y-26256356D01*
X32417894Y-26433764D01*
X32512504Y-26597521D01*
X32580060Y-26714437D01*
X32725644Y-26966399D01*
X32857143Y-27194050D01*
X32974336Y-27397010D01*
X33077005Y-27574897D01*
X33164929Y-27727331D01*
X33237890Y-27853931D01*
X33295668Y-27954316D01*
X33338043Y-28028107D01*
X33364795Y-28074921D01*
X33369919Y-28083962D01*
X33408183Y-28151738D01*
X33906861Y-28151738D01*
X33905407Y-28148214D01*
X33883339Y-28105010D01*
X33848556Y-28040273D01*
X33802689Y-27956953D01*
X33747372Y-27857999D01*
X33684237Y-27746362D01*
X33614917Y-27624993D01*
X33570081Y-27547074D01*
X33483993Y-27397890D01*
X33391116Y-27236959D01*
X33295258Y-27070876D01*
X33200224Y-26906236D01*
X33109821Y-26749633D01*
X33027855Y-26607663D01*
X32961177Y-26492187D01*
X32889938Y-26368821D01*
X32806741Y-26224738D01*
X32715500Y-26066716D01*
X32620130Y-25901537D01*
X32524545Y-25735979D01*
X32432659Y-25576823D01*
X32359659Y-25450372D01*
X32024000Y-24868931D01*
X32024410Y-23386622D01*
X32024820Y-21904312D01*
X32087219Y-21875553D01*
X32152017Y-21830866D01*
X32193317Y-21771549D01*
X32211775Y-21703581D01*
X32208045Y-21632941D01*
X32182782Y-21565606D01*
X32136642Y-21507557D01*
X32070279Y-21464771D01*
X32041046Y-21454101D01*
X32014499Y-21450910D01*
X31958952Y-21448009D01*
X31877153Y-21445396D01*
X31771849Y-21443071D01*
X31645789Y-21441035D01*
X31501721Y-21439288D01*
X31342394Y-21437830D01*
X31170554Y-21436660D01*
X30988951Y-21435780D01*
X30800333Y-21435187D01*
X30607448Y-21434883D01*
X30413043Y-21434868D01*
X30219868Y-21435141D01*
X30219868Y-21435141D01*
G37*
X30219868Y-21435141D02*
X30030670Y-21435704D01*
X29848197Y-21436553D01*
X29675198Y-21437693D01*
X29514420Y-21439121D01*
X29368612Y-21440837D01*
X29240522Y-21442843D01*
X29132899Y-21445137D01*
X29048489Y-21447719D01*
X28990042Y-21450591D01*
X28960306Y-21453751D01*
X28958955Y-21454101D01*
X28885350Y-21489801D01*
X28831728Y-21542954D01*
X28798744Y-21607582D01*
X28787052Y-21677706D01*
X28797308Y-21747346D01*
X28830167Y-21810525D01*
X28886283Y-21861264D01*
X28912782Y-21875553D01*
X28975181Y-21904312D01*
X28975591Y-23386141D01*
X28976000Y-24867969D01*
X28548806Y-25608641D01*
X28458263Y-25765615D01*
X28355103Y-25944444D01*
X28242584Y-26139483D01*
X28123962Y-26345090D01*
X28002493Y-26555620D01*
X27881432Y-26765429D01*
X27764037Y-26968874D01*
X27653563Y-27160312D01*
X27604244Y-27245770D01*
X27515033Y-27400722D01*
X27430691Y-27547946D01*
X27352542Y-27685082D01*
X27281911Y-27809771D01*
X27220123Y-27919652D01*
X27168503Y-28012365D01*
X27128376Y-28085552D01*
X27101066Y-28136852D01*
X27087898Y-28163905D01*
X27086875Y-28167254D01*
X27094741Y-28187854D01*
X27117046Y-28232330D01*
X27151855Y-28297359D01*
X27197233Y-28379615D01*
X27251244Y-28475774D01*
X27311953Y-28582511D01*
X27377423Y-28696503D01*
X27445721Y-28814423D01*
X27514909Y-28932948D01*
X27583052Y-29048754D01*
X27648216Y-29158515D01*
X27708463Y-29258906D01*
X27761859Y-29346605D01*
X27806468Y-29418285D01*
X27840355Y-29470622D01*
X27861584Y-29500292D01*
X27865401Y-29504468D01*
X27912876Y-29548125D01*
X33087125Y-29548125D01*
X33134600Y-29504468D01*
X33151394Y-29482746D01*
X33181461Y-29437288D01*
X33222866Y-29371420D01*
X33273675Y-29288466D01*
X33331950Y-29191753D01*
X33395758Y-29084605D01*
X33463162Y-28970346D01*
X33532228Y-28852303D01*
X33601019Y-28733800D01*
X33667600Y-28618163D01*
X33730037Y-28508717D01*
X33786392Y-28408786D01*
X33834733Y-28321695D01*
X33873121Y-28250771D01*
X33899623Y-28199338D01*
X33912303Y-28170720D01*
X33913126Y-28166933D01*
X33906861Y-28151738D01*
X33408183Y-28151738D01*
X33133492Y-28627681D01*
X32858802Y-29103625D01*
X28141346Y-29103625D01*
X27866306Y-28626873D01*
X27591265Y-28150121D01*
X27699373Y-27964091D01*
X27747892Y-27880084D01*
X27798609Y-27791405D01*
X27845301Y-27708982D01*
X27879772Y-27647315D01*
X27952063Y-27516567D01*
X29967875Y-27516125D01*
X29672252Y-27813781D01*
X29592275Y-27894852D01*
X29519259Y-27969905D01*
X29456362Y-28035609D01*
X29406743Y-28088634D01*
X29373560Y-28125650D01*
X29360268Y-28142697D01*
X29352957Y-28180230D01*
X29365296Y-28215316D01*
X29390308Y-28251070D01*
X29430694Y-28295828D01*
X29479952Y-28343770D01*
X29531580Y-28389074D01*
X29579074Y-28425919D01*
X29615933Y-28448484D01*
X29630520Y-28452750D01*
X29652868Y-28442200D01*
X29694213Y-28410232D01*
X29755092Y-28356363D01*
X29836040Y-28280114D01*
X29937592Y-28181002D01*
X29979190Y-28139741D01*
X30293625Y-27826732D01*
X30293625Y-28261522D01*
X30293814Y-28392308D01*
X30294520Y-28495011D01*
X30295949Y-28573296D01*
X30298309Y-28630830D01*
X30301809Y-28671276D01*
X30306655Y-28698301D01*
X30313056Y-28715570D01*
X30319898Y-28725343D01*
X30336734Y-28738829D01*
X30362193Y-28747459D01*
X30402819Y-28752237D01*
X30465156Y-28754165D01*
X30509246Y-28754375D01*
X30582993Y-28753988D01*
X30631948Y-28751820D01*
X30663068Y-28746360D01*
X30683310Y-28736094D01*
X30699630Y-28719512D01*
X30705947Y-28711627D01*
X30716079Y-28697620D01*
X30723883Y-28681895D01*
X30729608Y-28660501D01*
X30733503Y-28629484D01*
X30735815Y-28584892D01*
X30736793Y-28522771D01*
X30736686Y-28439170D01*
X30735741Y-28330136D01*
X30734880Y-28251238D01*
X30733664Y-28139830D01*
X30732637Y-28039621D01*
X30731836Y-27954754D01*
X30731300Y-27889372D01*
X30731063Y-27847619D01*
X30731154Y-27833611D01*
X30742126Y-27844389D01*
X30772577Y-27874776D01*
X30819606Y-27921863D01*
X30880307Y-27982739D01*
X30951779Y-28054496D01*
X31031118Y-28134225D01*
X31032779Y-28135894D01*
X31114205Y-28216741D01*
X31190054Y-28290133D01*
X31256990Y-28352994D01*
X31311678Y-28402247D01*
X31350782Y-28434816D01*
X31370663Y-28447556D01*
X31391093Y-28448152D01*
X31415531Y-28437567D01*
X31448775Y-28412398D01*
X31495625Y-28369244D01*
X31533382Y-28332190D01*
X31595633Y-28267657D01*
X31635484Y-28219575D01*
X31655419Y-28184681D01*
X31658875Y-28167521D01*
X31653549Y-28149558D01*
X31636229Y-28122344D01*
X31604910Y-28083608D01*
X31557584Y-28031079D01*
X31492243Y-27962484D01*
X31406880Y-27875551D01*
X31353434Y-27821867D01*
X31047993Y-27516125D01*
X31475443Y-27516125D01*
X31614762Y-27516235D01*
X31725588Y-27515593D01*
X31811172Y-27512739D01*
X31874762Y-27506213D01*
X31919608Y-27494556D01*
X31948960Y-27476308D01*
X31966068Y-27450009D01*
X31974180Y-27414200D01*
X31976546Y-27367420D01*
X31976417Y-27308211D01*
X31976375Y-27291107D01*
X31976751Y-27229737D01*
X31975702Y-27180980D01*
X31969967Y-27143390D01*
X31956283Y-27115522D01*
X31931389Y-27095933D01*
X31892023Y-27083178D01*
X31834922Y-27075811D01*
X31756824Y-27072388D01*
X31654468Y-27071465D01*
X31524591Y-27071596D01*
X31480804Y-27071625D01*
X31048733Y-27071625D01*
X31361742Y-26757189D01*
X31451102Y-26666371D01*
X31528596Y-26585517D01*
X31591949Y-26517128D01*
X31638886Y-26463706D01*
X31667132Y-26427753D01*
X31674750Y-26412990D01*
X31663254Y-26386392D01*
X31632729Y-26345976D01*
X31589124Y-26297523D01*
X31538387Y-26246817D01*
X31486466Y-26199641D01*
X31439310Y-26161778D01*
X31402866Y-26139010D01*
X31388823Y-26135000D01*
X31369893Y-26141738D01*
X31338933Y-26163065D01*
X31294064Y-26200648D01*
X31233410Y-26256153D01*
X31155092Y-26331247D01*
X31057233Y-26427597D01*
X31040655Y-26444083D01*
X30730188Y-26753166D01*
X30734866Y-26328775D01*
X30736547Y-26190249D01*
X30737206Y-26080203D01*
X30735349Y-25995374D01*
X30729485Y-25932496D01*
X30718121Y-25888302D01*
X30699764Y-25859528D01*
X30672922Y-25842909D01*
X30636103Y-25835179D01*
X30587814Y-25833073D01*
X30526564Y-25833325D01*
X30508454Y-25833375D01*
X30428223Y-25834496D01*
X30373863Y-25838371D01*
X30339555Y-25845763D01*
X30319481Y-25857438D01*
X30318572Y-25858321D01*
X30311079Y-25869469D01*
X30305220Y-25888540D01*
X30300802Y-25919092D01*
X30297635Y-25964686D01*
X30295527Y-26028878D01*
X30294286Y-26115230D01*
X30293721Y-26227298D01*
X30293625Y-26322142D01*
X30293625Y-26761017D01*
X29979190Y-26448008D01*
X29875023Y-26345240D01*
X29790982Y-26264457D01*
X29725607Y-26204357D01*
X29677442Y-26163639D01*
X29645027Y-26141001D01*
X29628565Y-26135000D01*
X29596360Y-26147050D01*
X29548071Y-26181515D01*
X29488969Y-26234218D01*
X29422723Y-26300807D01*
X29379631Y-26352289D01*
X29357356Y-26392492D01*
X29353563Y-26425242D01*
X29360268Y-26445052D01*
X29375552Y-26464412D01*
X29410177Y-26502842D01*
X29460984Y-26557013D01*
X29524814Y-26623594D01*
X29598509Y-26699256D01*
X29672252Y-26773968D01*
X29967875Y-27071625D01*
X28211411Y-27071625D01*
X28242706Y-27020031D01*
X28277529Y-26961823D01*
X28323922Y-26883049D01*
X28380377Y-26786349D01*
X28445386Y-26674365D01*
X28517441Y-26549736D01*
X28595034Y-26415105D01*
X28676656Y-26273113D01*
X28760799Y-26126400D01*
X28845956Y-25977608D01*
X28930618Y-25829378D01*
X29013277Y-25684351D01*
X29092424Y-25545167D01*
X29166552Y-25414468D01*
X29234153Y-25294896D01*
X29293718Y-25189090D01*
X29343740Y-25099693D01*
X29382709Y-25029345D01*
X29409118Y-24980688D01*
X29421460Y-24956361D01*
X29422104Y-24954659D01*
X29424214Y-24931630D01*
X29426221Y-24879011D01*
X29428105Y-24798962D01*
X29429846Y-24693643D01*
X29431425Y-24565212D01*
X29432821Y-24415830D01*
X29434015Y-24247656D01*
X29434987Y-24062850D01*
X29435718Y-23863573D01*
X29436186Y-23651983D01*
X29436373Y-23430240D01*
X29436375Y-23400636D01*
X29436375Y-21896375D01*
X31563011Y-21896375D01*
X31571563Y-24968187D01*
X31915271Y-25563500D01*
X32004982Y-25718868D01*
X32104527Y-25891244D01*
X32209479Y-26072961D01*
X32315410Y-26256356D01*
X32417894Y-26433764D01*
X32512504Y-26597521D01*
X32580060Y-26714437D01*
X32725644Y-26966399D01*
X32857143Y-27194050D01*
X32974336Y-27397010D01*
X33077005Y-27574897D01*
X33164929Y-27727331D01*
X33237890Y-27853931D01*
X33295668Y-27954316D01*
X33338043Y-28028107D01*
X33364795Y-28074921D01*
X33369919Y-28083962D01*
X33408183Y-28151738D01*
X33906861Y-28151738D01*
X33905407Y-28148214D01*
X33883339Y-28105010D01*
X33848556Y-28040273D01*
X33802689Y-27956953D01*
X33747372Y-27857999D01*
X33684237Y-27746362D01*
X33614917Y-27624993D01*
X33570081Y-27547074D01*
X33483993Y-27397890D01*
X33391116Y-27236959D01*
X33295258Y-27070876D01*
X33200224Y-26906236D01*
X33109821Y-26749633D01*
X33027855Y-26607663D01*
X32961177Y-26492187D01*
X32889938Y-26368821D01*
X32806741Y-26224738D01*
X32715500Y-26066716D01*
X32620130Y-25901537D01*
X32524545Y-25735979D01*
X32432659Y-25576823D01*
X32359659Y-25450372D01*
X32024000Y-24868931D01*
X32024410Y-23386622D01*
X32024820Y-21904312D01*
X32087219Y-21875553D01*
X32152017Y-21830866D01*
X32193317Y-21771549D01*
X32211775Y-21703581D01*
X32208045Y-21632941D01*
X32182782Y-21565606D01*
X32136642Y-21507557D01*
X32070279Y-21464771D01*
X32041046Y-21454101D01*
X32014499Y-21450910D01*
X31958952Y-21448009D01*
X31877153Y-21445396D01*
X31771849Y-21443071D01*
X31645789Y-21441035D01*
X31501721Y-21439288D01*
X31342394Y-21437830D01*
X31170554Y-21436660D01*
X30988951Y-21435780D01*
X30800333Y-21435187D01*
X30607448Y-21434883D01*
X30413043Y-21434868D01*
X30219868Y-21435141D01*
M02*
