G04 #@! TF.FileFunction,Copper,L2,Bot,Signal*
%FSLAX46Y46*%
G04 Gerber Fmt 4.6, Leading zero omitted, Abs format (unit mm)*
G04 Created by KiCad (PCBNEW 4.0.4-stable) date 02/21/17 16:43:53*
%MOMM*%
%LPD*%
G01*
G04 APERTURE LIST*
%ADD10C,0.100000*%
%ADD11R,1.700000X1.700000*%
%ADD12O,1.700000X1.700000*%
%ADD13O,1.998980X1.998980*%
%ADD14R,1.998980X1.998980*%
%ADD15C,0.400000*%
%ADD16C,0.250000*%
%ADD17C,0.254000*%
G04 APERTURE END LIST*
D10*
D11*
X46250000Y-44750000D03*
D12*
X43710000Y-44750000D03*
X46250000Y-42210000D03*
X43710000Y-42210000D03*
X46250000Y-39670000D03*
X43710000Y-39670000D03*
D11*
X20100000Y-36700000D03*
D12*
X17560000Y-36700000D03*
X20100000Y-34160000D03*
X17560000Y-34160000D03*
X20100000Y-31620000D03*
X17560000Y-31620000D03*
D13*
X60750000Y-25130000D03*
D14*
X60750000Y-32750000D03*
D13*
X60750000Y-30210000D03*
X60750000Y-27670000D03*
D11*
X60750000Y-43750000D03*
D12*
X60750000Y-41210000D03*
X60750000Y-38670000D03*
X60750000Y-36130000D03*
D15*
X46250000Y-44750000D02*
X46250000Y-46250000D01*
X17560000Y-38810000D02*
X17560000Y-36700000D01*
X25500000Y-46750000D02*
X17560000Y-38810000D01*
X45750000Y-46750000D02*
X25500000Y-46750000D01*
X46250000Y-46250000D02*
X45750000Y-46750000D01*
D16*
X60750000Y-38670000D02*
X59920000Y-38670000D01*
D15*
X59920000Y-38670000D02*
X58500000Y-37250000D01*
X58500000Y-37250000D02*
X58500000Y-29920000D01*
X58500000Y-29920000D02*
X60750000Y-27670000D01*
X60750000Y-36130000D02*
X62120000Y-36130000D01*
X63000000Y-27380000D02*
X60750000Y-25130000D01*
X63000000Y-35250000D02*
X63000000Y-27380000D01*
X62120000Y-36130000D02*
X63000000Y-35250000D01*
D17*
G36*
X63373000Y-26572131D02*
X62314542Y-25513674D01*
X62384490Y-25162022D01*
X62384490Y-25097978D01*
X62260072Y-24472486D01*
X61905759Y-23942219D01*
X61375492Y-23587906D01*
X60750000Y-23463488D01*
X60124508Y-23587906D01*
X59594241Y-23942219D01*
X59239928Y-24472486D01*
X59115510Y-25097978D01*
X59115510Y-25162022D01*
X59239928Y-25787514D01*
X59594241Y-26317781D01*
X59717290Y-26400000D01*
X59594241Y-26482219D01*
X59239928Y-27012486D01*
X59115510Y-27637978D01*
X59115510Y-27702022D01*
X59185458Y-28053674D01*
X57909566Y-29329566D01*
X57728561Y-29600459D01*
X57665000Y-29920000D01*
X57665000Y-37250000D01*
X57728561Y-37569541D01*
X57758936Y-37615000D01*
X57909566Y-37840434D01*
X59329566Y-39260434D01*
X59391313Y-39301692D01*
X59670853Y-39720054D01*
X60000026Y-39940000D01*
X59670853Y-40159946D01*
X59348946Y-40641715D01*
X59235907Y-41210000D01*
X59348946Y-41778285D01*
X59670853Y-42260054D01*
X59712452Y-42287850D01*
X59664683Y-42296838D01*
X59448559Y-42435910D01*
X59303569Y-42648110D01*
X59252560Y-42900000D01*
X59252560Y-44600000D01*
X59296838Y-44835317D01*
X59435910Y-45051441D01*
X59648110Y-45196431D01*
X59900000Y-45247440D01*
X61600000Y-45247440D01*
X61835317Y-45203162D01*
X62051441Y-45064090D01*
X62196431Y-44851890D01*
X62247440Y-44600000D01*
X62247440Y-42900000D01*
X62203162Y-42664683D01*
X62064090Y-42448559D01*
X61851890Y-42303569D01*
X61784459Y-42289914D01*
X61829147Y-42260054D01*
X62151054Y-41778285D01*
X62264093Y-41210000D01*
X62151054Y-40641715D01*
X61829147Y-40159946D01*
X61499974Y-39940000D01*
X61829147Y-39720054D01*
X62151054Y-39238285D01*
X62264093Y-38670000D01*
X62151054Y-38101715D01*
X61829147Y-37619946D01*
X61499974Y-37400000D01*
X61829147Y-37180054D01*
X61972841Y-36965000D01*
X62120000Y-36965000D01*
X62439541Y-36901439D01*
X62710434Y-36720434D01*
X63373000Y-36057868D01*
X63373000Y-49623000D01*
X15127000Y-49623000D01*
X15127000Y-47442619D01*
X15514613Y-47442619D01*
X15854155Y-48264372D01*
X16482321Y-48893636D01*
X17303481Y-49234611D01*
X18192619Y-49235387D01*
X19014372Y-48895845D01*
X19643636Y-48267679D01*
X19984611Y-47446519D01*
X19984614Y-47442619D01*
X51764613Y-47442619D01*
X52104155Y-48264372D01*
X52732321Y-48893636D01*
X53553481Y-49234611D01*
X54442619Y-49235387D01*
X55264372Y-48895845D01*
X55893636Y-48267679D01*
X56234611Y-47446519D01*
X56235387Y-46557381D01*
X55895845Y-45735628D01*
X55267679Y-45106364D01*
X54446519Y-44765389D01*
X53557381Y-44764613D01*
X52735628Y-45104155D01*
X52106364Y-45732321D01*
X51765389Y-46553481D01*
X51764613Y-47442619D01*
X19984614Y-47442619D01*
X19985387Y-46557381D01*
X19645845Y-45735628D01*
X19017679Y-45106364D01*
X18196519Y-44765389D01*
X17307381Y-44764613D01*
X16485628Y-45104155D01*
X15856364Y-45732321D01*
X15515389Y-46553481D01*
X15514613Y-47442619D01*
X15127000Y-47442619D01*
X15127000Y-39670000D01*
X42195907Y-39670000D01*
X42308946Y-40238285D01*
X42630853Y-40720054D01*
X42960026Y-40940000D01*
X42630853Y-41159946D01*
X42308946Y-41641715D01*
X42195907Y-42210000D01*
X42308946Y-42778285D01*
X42630853Y-43260054D01*
X42960026Y-43480000D01*
X42630853Y-43699946D01*
X42308946Y-44181715D01*
X42195907Y-44750000D01*
X42308946Y-45318285D01*
X42630853Y-45800054D01*
X43112622Y-46121961D01*
X43680907Y-46235000D01*
X43739093Y-46235000D01*
X44307378Y-46121961D01*
X44789147Y-45800054D01*
X44789971Y-45798821D01*
X44796838Y-45835317D01*
X44935910Y-46051441D01*
X45148110Y-46196431D01*
X45400000Y-46247440D01*
X47100000Y-46247440D01*
X47335317Y-46203162D01*
X47551441Y-46064090D01*
X47696431Y-45851890D01*
X47747440Y-45600000D01*
X47747440Y-43900000D01*
X47703162Y-43664683D01*
X47564090Y-43448559D01*
X47351890Y-43303569D01*
X47284459Y-43289914D01*
X47329147Y-43260054D01*
X47651054Y-42778285D01*
X47764093Y-42210000D01*
X47651054Y-41641715D01*
X47329147Y-41159946D01*
X46988447Y-40932298D01*
X47131358Y-40865183D01*
X47521645Y-40436924D01*
X47691476Y-40026890D01*
X47570155Y-39797000D01*
X46377000Y-39797000D01*
X46377000Y-39817000D01*
X46123000Y-39817000D01*
X46123000Y-39797000D01*
X46103000Y-39797000D01*
X46103000Y-39543000D01*
X46123000Y-39543000D01*
X46123000Y-38349181D01*
X46377000Y-38349181D01*
X46377000Y-39543000D01*
X47570155Y-39543000D01*
X47691476Y-39313110D01*
X47521645Y-38903076D01*
X47131358Y-38474817D01*
X46606892Y-38228514D01*
X46377000Y-38349181D01*
X46123000Y-38349181D01*
X45893108Y-38228514D01*
X45368642Y-38474817D01*
X44978355Y-38903076D01*
X44978345Y-38903101D01*
X44789147Y-38619946D01*
X44307378Y-38298039D01*
X43739093Y-38185000D01*
X43680907Y-38185000D01*
X43112622Y-38298039D01*
X42630853Y-38619946D01*
X42308946Y-39101715D01*
X42195907Y-39670000D01*
X15127000Y-39670000D01*
X15127000Y-34160000D01*
X16045907Y-34160000D01*
X16158946Y-34728285D01*
X16480853Y-35210054D01*
X16810026Y-35430000D01*
X16480853Y-35649946D01*
X16158946Y-36131715D01*
X16045907Y-36700000D01*
X16158946Y-37268285D01*
X16480853Y-37750054D01*
X16962622Y-38071961D01*
X17530907Y-38185000D01*
X17589093Y-38185000D01*
X18157378Y-38071961D01*
X18639147Y-37750054D01*
X18639971Y-37748821D01*
X18646838Y-37785317D01*
X18785910Y-38001441D01*
X18998110Y-38146431D01*
X19250000Y-38197440D01*
X20950000Y-38197440D01*
X21185317Y-38153162D01*
X21401441Y-38014090D01*
X21546431Y-37801890D01*
X21597440Y-37550000D01*
X21597440Y-35850000D01*
X21553162Y-35614683D01*
X21414090Y-35398559D01*
X21201890Y-35253569D01*
X21134459Y-35239914D01*
X21179147Y-35210054D01*
X21501054Y-34728285D01*
X21614093Y-34160000D01*
X21501054Y-33591715D01*
X21179147Y-33109946D01*
X20849974Y-32890000D01*
X21179147Y-32670054D01*
X21501054Y-32188285D01*
X21614093Y-31620000D01*
X21501054Y-31051715D01*
X21179147Y-30569946D01*
X20697378Y-30248039D01*
X20129093Y-30135000D01*
X20070907Y-30135000D01*
X19502622Y-30248039D01*
X19020853Y-30569946D01*
X18831655Y-30853101D01*
X18831645Y-30853076D01*
X18441358Y-30424817D01*
X17916892Y-30178514D01*
X17687000Y-30299181D01*
X17687000Y-31493000D01*
X17707000Y-31493000D01*
X17707000Y-31747000D01*
X17687000Y-31747000D01*
X17687000Y-31767000D01*
X17433000Y-31767000D01*
X17433000Y-31747000D01*
X16239845Y-31747000D01*
X16118524Y-31976890D01*
X16288355Y-32386924D01*
X16678642Y-32815183D01*
X16821553Y-32882298D01*
X16480853Y-33109946D01*
X16158946Y-33591715D01*
X16045907Y-34160000D01*
X15127000Y-34160000D01*
X15127000Y-31263110D01*
X16118524Y-31263110D01*
X16239845Y-31493000D01*
X17433000Y-31493000D01*
X17433000Y-30299181D01*
X17203108Y-30178514D01*
X16678642Y-30424817D01*
X16288355Y-30853076D01*
X16118524Y-31263110D01*
X15127000Y-31263110D01*
X15127000Y-24192619D01*
X15514613Y-24192619D01*
X15854155Y-25014372D01*
X16482321Y-25643636D01*
X17303481Y-25984611D01*
X18192619Y-25985387D01*
X19014372Y-25645845D01*
X19643636Y-25017679D01*
X19984611Y-24196519D01*
X19984614Y-24192619D01*
X51764613Y-24192619D01*
X52104155Y-25014372D01*
X52732321Y-25643636D01*
X53553481Y-25984611D01*
X54442619Y-25985387D01*
X55264372Y-25645845D01*
X55893636Y-25017679D01*
X56234611Y-24196519D01*
X56235387Y-23307381D01*
X55895845Y-22485628D01*
X55267679Y-21856364D01*
X54446519Y-21515389D01*
X53557381Y-21514613D01*
X52735628Y-21854155D01*
X52106364Y-22482321D01*
X51765389Y-23303481D01*
X51764613Y-24192619D01*
X19984614Y-24192619D01*
X19985387Y-23307381D01*
X19645845Y-22485628D01*
X19017679Y-21856364D01*
X18196519Y-21515389D01*
X17307381Y-21514613D01*
X16485628Y-21854155D01*
X15856364Y-22482321D01*
X15515389Y-23303481D01*
X15514613Y-24192619D01*
X15127000Y-24192619D01*
X15127000Y-21127000D01*
X63373000Y-21127000D01*
X63373000Y-26572131D01*
X63373000Y-26572131D01*
G37*
X63373000Y-26572131D02*
X62314542Y-25513674D01*
X62384490Y-25162022D01*
X62384490Y-25097978D01*
X62260072Y-24472486D01*
X61905759Y-23942219D01*
X61375492Y-23587906D01*
X60750000Y-23463488D01*
X60124508Y-23587906D01*
X59594241Y-23942219D01*
X59239928Y-24472486D01*
X59115510Y-25097978D01*
X59115510Y-25162022D01*
X59239928Y-25787514D01*
X59594241Y-26317781D01*
X59717290Y-26400000D01*
X59594241Y-26482219D01*
X59239928Y-27012486D01*
X59115510Y-27637978D01*
X59115510Y-27702022D01*
X59185458Y-28053674D01*
X57909566Y-29329566D01*
X57728561Y-29600459D01*
X57665000Y-29920000D01*
X57665000Y-37250000D01*
X57728561Y-37569541D01*
X57758936Y-37615000D01*
X57909566Y-37840434D01*
X59329566Y-39260434D01*
X59391313Y-39301692D01*
X59670853Y-39720054D01*
X60000026Y-39940000D01*
X59670853Y-40159946D01*
X59348946Y-40641715D01*
X59235907Y-41210000D01*
X59348946Y-41778285D01*
X59670853Y-42260054D01*
X59712452Y-42287850D01*
X59664683Y-42296838D01*
X59448559Y-42435910D01*
X59303569Y-42648110D01*
X59252560Y-42900000D01*
X59252560Y-44600000D01*
X59296838Y-44835317D01*
X59435910Y-45051441D01*
X59648110Y-45196431D01*
X59900000Y-45247440D01*
X61600000Y-45247440D01*
X61835317Y-45203162D01*
X62051441Y-45064090D01*
X62196431Y-44851890D01*
X62247440Y-44600000D01*
X62247440Y-42900000D01*
X62203162Y-42664683D01*
X62064090Y-42448559D01*
X61851890Y-42303569D01*
X61784459Y-42289914D01*
X61829147Y-42260054D01*
X62151054Y-41778285D01*
X62264093Y-41210000D01*
X62151054Y-40641715D01*
X61829147Y-40159946D01*
X61499974Y-39940000D01*
X61829147Y-39720054D01*
X62151054Y-39238285D01*
X62264093Y-38670000D01*
X62151054Y-38101715D01*
X61829147Y-37619946D01*
X61499974Y-37400000D01*
X61829147Y-37180054D01*
X61972841Y-36965000D01*
X62120000Y-36965000D01*
X62439541Y-36901439D01*
X62710434Y-36720434D01*
X63373000Y-36057868D01*
X63373000Y-49623000D01*
X15127000Y-49623000D01*
X15127000Y-47442619D01*
X15514613Y-47442619D01*
X15854155Y-48264372D01*
X16482321Y-48893636D01*
X17303481Y-49234611D01*
X18192619Y-49235387D01*
X19014372Y-48895845D01*
X19643636Y-48267679D01*
X19984611Y-47446519D01*
X19984614Y-47442619D01*
X51764613Y-47442619D01*
X52104155Y-48264372D01*
X52732321Y-48893636D01*
X53553481Y-49234611D01*
X54442619Y-49235387D01*
X55264372Y-48895845D01*
X55893636Y-48267679D01*
X56234611Y-47446519D01*
X56235387Y-46557381D01*
X55895845Y-45735628D01*
X55267679Y-45106364D01*
X54446519Y-44765389D01*
X53557381Y-44764613D01*
X52735628Y-45104155D01*
X52106364Y-45732321D01*
X51765389Y-46553481D01*
X51764613Y-47442619D01*
X19984614Y-47442619D01*
X19985387Y-46557381D01*
X19645845Y-45735628D01*
X19017679Y-45106364D01*
X18196519Y-44765389D01*
X17307381Y-44764613D01*
X16485628Y-45104155D01*
X15856364Y-45732321D01*
X15515389Y-46553481D01*
X15514613Y-47442619D01*
X15127000Y-47442619D01*
X15127000Y-39670000D01*
X42195907Y-39670000D01*
X42308946Y-40238285D01*
X42630853Y-40720054D01*
X42960026Y-40940000D01*
X42630853Y-41159946D01*
X42308946Y-41641715D01*
X42195907Y-42210000D01*
X42308946Y-42778285D01*
X42630853Y-43260054D01*
X42960026Y-43480000D01*
X42630853Y-43699946D01*
X42308946Y-44181715D01*
X42195907Y-44750000D01*
X42308946Y-45318285D01*
X42630853Y-45800054D01*
X43112622Y-46121961D01*
X43680907Y-46235000D01*
X43739093Y-46235000D01*
X44307378Y-46121961D01*
X44789147Y-45800054D01*
X44789971Y-45798821D01*
X44796838Y-45835317D01*
X44935910Y-46051441D01*
X45148110Y-46196431D01*
X45400000Y-46247440D01*
X47100000Y-46247440D01*
X47335317Y-46203162D01*
X47551441Y-46064090D01*
X47696431Y-45851890D01*
X47747440Y-45600000D01*
X47747440Y-43900000D01*
X47703162Y-43664683D01*
X47564090Y-43448559D01*
X47351890Y-43303569D01*
X47284459Y-43289914D01*
X47329147Y-43260054D01*
X47651054Y-42778285D01*
X47764093Y-42210000D01*
X47651054Y-41641715D01*
X47329147Y-41159946D01*
X46988447Y-40932298D01*
X47131358Y-40865183D01*
X47521645Y-40436924D01*
X47691476Y-40026890D01*
X47570155Y-39797000D01*
X46377000Y-39797000D01*
X46377000Y-39817000D01*
X46123000Y-39817000D01*
X46123000Y-39797000D01*
X46103000Y-39797000D01*
X46103000Y-39543000D01*
X46123000Y-39543000D01*
X46123000Y-38349181D01*
X46377000Y-38349181D01*
X46377000Y-39543000D01*
X47570155Y-39543000D01*
X47691476Y-39313110D01*
X47521645Y-38903076D01*
X47131358Y-38474817D01*
X46606892Y-38228514D01*
X46377000Y-38349181D01*
X46123000Y-38349181D01*
X45893108Y-38228514D01*
X45368642Y-38474817D01*
X44978355Y-38903076D01*
X44978345Y-38903101D01*
X44789147Y-38619946D01*
X44307378Y-38298039D01*
X43739093Y-38185000D01*
X43680907Y-38185000D01*
X43112622Y-38298039D01*
X42630853Y-38619946D01*
X42308946Y-39101715D01*
X42195907Y-39670000D01*
X15127000Y-39670000D01*
X15127000Y-34160000D01*
X16045907Y-34160000D01*
X16158946Y-34728285D01*
X16480853Y-35210054D01*
X16810026Y-35430000D01*
X16480853Y-35649946D01*
X16158946Y-36131715D01*
X16045907Y-36700000D01*
X16158946Y-37268285D01*
X16480853Y-37750054D01*
X16962622Y-38071961D01*
X17530907Y-38185000D01*
X17589093Y-38185000D01*
X18157378Y-38071961D01*
X18639147Y-37750054D01*
X18639971Y-37748821D01*
X18646838Y-37785317D01*
X18785910Y-38001441D01*
X18998110Y-38146431D01*
X19250000Y-38197440D01*
X20950000Y-38197440D01*
X21185317Y-38153162D01*
X21401441Y-38014090D01*
X21546431Y-37801890D01*
X21597440Y-37550000D01*
X21597440Y-35850000D01*
X21553162Y-35614683D01*
X21414090Y-35398559D01*
X21201890Y-35253569D01*
X21134459Y-35239914D01*
X21179147Y-35210054D01*
X21501054Y-34728285D01*
X21614093Y-34160000D01*
X21501054Y-33591715D01*
X21179147Y-33109946D01*
X20849974Y-32890000D01*
X21179147Y-32670054D01*
X21501054Y-32188285D01*
X21614093Y-31620000D01*
X21501054Y-31051715D01*
X21179147Y-30569946D01*
X20697378Y-30248039D01*
X20129093Y-30135000D01*
X20070907Y-30135000D01*
X19502622Y-30248039D01*
X19020853Y-30569946D01*
X18831655Y-30853101D01*
X18831645Y-30853076D01*
X18441358Y-30424817D01*
X17916892Y-30178514D01*
X17687000Y-30299181D01*
X17687000Y-31493000D01*
X17707000Y-31493000D01*
X17707000Y-31747000D01*
X17687000Y-31747000D01*
X17687000Y-31767000D01*
X17433000Y-31767000D01*
X17433000Y-31747000D01*
X16239845Y-31747000D01*
X16118524Y-31976890D01*
X16288355Y-32386924D01*
X16678642Y-32815183D01*
X16821553Y-32882298D01*
X16480853Y-33109946D01*
X16158946Y-33591715D01*
X16045907Y-34160000D01*
X15127000Y-34160000D01*
X15127000Y-31263110D01*
X16118524Y-31263110D01*
X16239845Y-31493000D01*
X17433000Y-31493000D01*
X17433000Y-30299181D01*
X17203108Y-30178514D01*
X16678642Y-30424817D01*
X16288355Y-30853076D01*
X16118524Y-31263110D01*
X15127000Y-31263110D01*
X15127000Y-24192619D01*
X15514613Y-24192619D01*
X15854155Y-25014372D01*
X16482321Y-25643636D01*
X17303481Y-25984611D01*
X18192619Y-25985387D01*
X19014372Y-25645845D01*
X19643636Y-25017679D01*
X19984611Y-24196519D01*
X19984614Y-24192619D01*
X51764613Y-24192619D01*
X52104155Y-25014372D01*
X52732321Y-25643636D01*
X53553481Y-25984611D01*
X54442619Y-25985387D01*
X55264372Y-25645845D01*
X55893636Y-25017679D01*
X56234611Y-24196519D01*
X56235387Y-23307381D01*
X55895845Y-22485628D01*
X55267679Y-21856364D01*
X54446519Y-21515389D01*
X53557381Y-21514613D01*
X52735628Y-21854155D01*
X52106364Y-22482321D01*
X51765389Y-23303481D01*
X51764613Y-24192619D01*
X19984614Y-24192619D01*
X19985387Y-23307381D01*
X19645845Y-22485628D01*
X19017679Y-21856364D01*
X18196519Y-21515389D01*
X17307381Y-21514613D01*
X16485628Y-21854155D01*
X15856364Y-22482321D01*
X15515389Y-23303481D01*
X15514613Y-24192619D01*
X15127000Y-24192619D01*
X15127000Y-21127000D01*
X63373000Y-21127000D01*
X63373000Y-26572131D01*
M02*
