G04 #@! TF.FileFunction,Copper,L1,Top,Plane*
%FSLAX46Y46*%
G04 Gerber Fmt 4.6, Leading zero omitted, Abs format (unit mm)*
G04 Created by KiCad (PCBNEW 4.0.4-stable) date 02/21/17 16:43:53*
%MOMM*%
%LPD*%
G01*
G04 APERTURE LIST*
%ADD10C,0.100000*%
%ADD11R,1.700000X1.700000*%
%ADD12O,1.700000X1.700000*%
%ADD13O,1.998980X1.998980*%
%ADD14R,1.998980X1.998980*%
%ADD15C,0.400000*%
%ADD16C,0.250000*%
%ADD17C,0.254000*%
G04 APERTURE END LIST*
D10*
D11*
X46250000Y-44750000D03*
D12*
X43710000Y-44750000D03*
X46250000Y-42210000D03*
X43710000Y-42210000D03*
X46250000Y-39670000D03*
X43710000Y-39670000D03*
D11*
X20100000Y-36700000D03*
D12*
X17560000Y-36700000D03*
X20100000Y-34160000D03*
X17560000Y-34160000D03*
X20100000Y-31620000D03*
X17560000Y-31620000D03*
D13*
X60750000Y-25130000D03*
D14*
X60750000Y-32750000D03*
D13*
X60750000Y-30210000D03*
X60750000Y-27670000D03*
D11*
X60750000Y-43750000D03*
D12*
X60750000Y-41210000D03*
X60750000Y-38670000D03*
X60750000Y-36130000D03*
D15*
X17560000Y-31190000D02*
X18750000Y-30000000D01*
X36580000Y-30000000D02*
X46250000Y-39670000D01*
X18750000Y-30000000D02*
X36580000Y-30000000D01*
D16*
X17560000Y-31620000D02*
X17560000Y-31190000D01*
D15*
X20100000Y-36700000D02*
X35660000Y-36700000D01*
X35660000Y-36700000D02*
X43710000Y-44750000D01*
X20100000Y-34160000D02*
X35660000Y-34160000D01*
X35660000Y-34160000D02*
X43710000Y-42210000D01*
X17560000Y-34160000D02*
X15840000Y-34160000D01*
X48250000Y-44210000D02*
X46250000Y-42210000D01*
X48250000Y-46250000D02*
X48250000Y-44210000D01*
X47750000Y-46750000D02*
X48250000Y-46250000D01*
X42000000Y-46750000D02*
X47750000Y-46750000D01*
X34750000Y-39500000D02*
X42000000Y-46750000D01*
X16750000Y-39500000D02*
X34750000Y-39500000D01*
X15500000Y-38250000D02*
X16750000Y-39500000D01*
X15500000Y-34500000D02*
X15500000Y-38250000D01*
X15840000Y-34160000D02*
X15500000Y-34500000D01*
X20100000Y-31620000D02*
X35660000Y-31620000D01*
X35660000Y-31620000D02*
X43710000Y-39670000D01*
X60750000Y-41210000D02*
X62540000Y-41210000D01*
X62460000Y-30210000D02*
X60750000Y-30210000D01*
X63000000Y-30750000D02*
X62460000Y-30210000D01*
X63000000Y-40750000D02*
X63000000Y-30750000D01*
X62540000Y-41210000D02*
X63000000Y-40750000D01*
X60750000Y-43750000D02*
X59500000Y-43750000D01*
X58500000Y-35000000D02*
X60750000Y-32750000D01*
X58500000Y-42750000D02*
X58500000Y-35000000D01*
X59500000Y-43750000D02*
X58500000Y-42750000D01*
D17*
G36*
X63373000Y-29942132D02*
X63050434Y-29619566D01*
X62779541Y-29438561D01*
X62460000Y-29375000D01*
X62141480Y-29375000D01*
X61905759Y-29022219D01*
X61782710Y-28940000D01*
X61905759Y-28857781D01*
X62260072Y-28327514D01*
X62384490Y-27702022D01*
X62384490Y-27637978D01*
X62260072Y-27012486D01*
X61905759Y-26482219D01*
X61782710Y-26400000D01*
X61905759Y-26317781D01*
X62260072Y-25787514D01*
X62384490Y-25162022D01*
X62384490Y-25097978D01*
X62260072Y-24472486D01*
X61905759Y-23942219D01*
X61375492Y-23587906D01*
X60750000Y-23463488D01*
X60124508Y-23587906D01*
X59594241Y-23942219D01*
X59239928Y-24472486D01*
X59115510Y-25097978D01*
X59115510Y-25162022D01*
X59239928Y-25787514D01*
X59594241Y-26317781D01*
X59717290Y-26400000D01*
X59594241Y-26482219D01*
X59239928Y-27012486D01*
X59115510Y-27637978D01*
X59115510Y-27702022D01*
X59239928Y-28327514D01*
X59594241Y-28857781D01*
X59717290Y-28940000D01*
X59594241Y-29022219D01*
X59239928Y-29552486D01*
X59115510Y-30177978D01*
X59115510Y-30242022D01*
X59239928Y-30867514D01*
X59453453Y-31187077D01*
X59299069Y-31286420D01*
X59154079Y-31498620D01*
X59103070Y-31750510D01*
X59103070Y-33216061D01*
X57909566Y-34409566D01*
X57728561Y-34680459D01*
X57665000Y-35000000D01*
X57665000Y-42750000D01*
X57728561Y-43069541D01*
X57855858Y-43260054D01*
X57909566Y-43340434D01*
X58909566Y-44340434D01*
X59180460Y-44521440D01*
X59252560Y-44535781D01*
X59252560Y-44600000D01*
X59296838Y-44835317D01*
X59435910Y-45051441D01*
X59648110Y-45196431D01*
X59900000Y-45247440D01*
X61600000Y-45247440D01*
X61835317Y-45203162D01*
X62051441Y-45064090D01*
X62196431Y-44851890D01*
X62247440Y-44600000D01*
X62247440Y-42900000D01*
X62203162Y-42664683D01*
X62064090Y-42448559D01*
X61851890Y-42303569D01*
X61784459Y-42289914D01*
X61829147Y-42260054D01*
X61972841Y-42045000D01*
X62540000Y-42045000D01*
X62859541Y-41981439D01*
X63130434Y-41800434D01*
X63373000Y-41557868D01*
X63373000Y-49623000D01*
X15127000Y-49623000D01*
X15127000Y-47442619D01*
X15514613Y-47442619D01*
X15854155Y-48264372D01*
X16482321Y-48893636D01*
X17303481Y-49234611D01*
X18192619Y-49235387D01*
X19014372Y-48895845D01*
X19643636Y-48267679D01*
X19984611Y-47446519D01*
X19985387Y-46557381D01*
X19645845Y-45735628D01*
X19017679Y-45106364D01*
X18196519Y-44765389D01*
X17307381Y-44764613D01*
X16485628Y-45104155D01*
X15856364Y-45732321D01*
X15515389Y-46553481D01*
X15514613Y-47442619D01*
X15127000Y-47442619D01*
X15127000Y-39057868D01*
X16159566Y-40090434D01*
X16430459Y-40271439D01*
X16750000Y-40335000D01*
X34404132Y-40335000D01*
X41409566Y-47340434D01*
X41680459Y-47521439D01*
X42000000Y-47585000D01*
X47750000Y-47585000D01*
X48069541Y-47521439D01*
X48187503Y-47442619D01*
X51764613Y-47442619D01*
X52104155Y-48264372D01*
X52732321Y-48893636D01*
X53553481Y-49234611D01*
X54442619Y-49235387D01*
X55264372Y-48895845D01*
X55893636Y-48267679D01*
X56234611Y-47446519D01*
X56235387Y-46557381D01*
X55895845Y-45735628D01*
X55267679Y-45106364D01*
X54446519Y-44765389D01*
X53557381Y-44764613D01*
X52735628Y-45104155D01*
X52106364Y-45732321D01*
X51765389Y-46553481D01*
X51764613Y-47442619D01*
X48187503Y-47442619D01*
X48340434Y-47340434D01*
X48840434Y-46840434D01*
X49021440Y-46569540D01*
X49085000Y-46250000D01*
X49085000Y-44210000D01*
X49021439Y-43890459D01*
X48840434Y-43619566D01*
X47708807Y-42487939D01*
X47764093Y-42210000D01*
X47651054Y-41641715D01*
X47329147Y-41159946D01*
X46988447Y-40932298D01*
X47131358Y-40865183D01*
X47521645Y-40436924D01*
X47691476Y-40026890D01*
X47570155Y-39797000D01*
X46377000Y-39797000D01*
X46377000Y-39817000D01*
X46123000Y-39817000D01*
X46123000Y-39797000D01*
X46103000Y-39797000D01*
X46103000Y-39543000D01*
X46123000Y-39543000D01*
X46123000Y-38349181D01*
X46377000Y-38349181D01*
X46377000Y-39543000D01*
X47570155Y-39543000D01*
X47691476Y-39313110D01*
X47521645Y-38903076D01*
X47131358Y-38474817D01*
X46606892Y-38228514D01*
X46377000Y-38349181D01*
X46123000Y-38349181D01*
X45893108Y-38228514D01*
X45368642Y-38474817D01*
X44978355Y-38903076D01*
X44978345Y-38903101D01*
X44789147Y-38619946D01*
X44307378Y-38298039D01*
X43739093Y-38185000D01*
X43680907Y-38185000D01*
X43451500Y-38230632D01*
X36250434Y-31029566D01*
X36178407Y-30981439D01*
X35979541Y-30848561D01*
X35660000Y-30785000D01*
X21322841Y-30785000D01*
X21179147Y-30569946D01*
X20697378Y-30248039D01*
X20129093Y-30135000D01*
X20070907Y-30135000D01*
X19502622Y-30248039D01*
X19020853Y-30569946D01*
X18831655Y-30853101D01*
X18831645Y-30853076D01*
X18441358Y-30424817D01*
X17916892Y-30178514D01*
X17687000Y-30299181D01*
X17687000Y-31493000D01*
X17707000Y-31493000D01*
X17707000Y-31747000D01*
X17687000Y-31747000D01*
X17687000Y-31767000D01*
X17433000Y-31767000D01*
X17433000Y-31747000D01*
X16239845Y-31747000D01*
X16118524Y-31976890D01*
X16288355Y-32386924D01*
X16678642Y-32815183D01*
X16821553Y-32882298D01*
X16480853Y-33109946D01*
X16337159Y-33325000D01*
X15840000Y-33325000D01*
X15520460Y-33388560D01*
X15249566Y-33569566D01*
X15127000Y-33692132D01*
X15127000Y-31263110D01*
X16118524Y-31263110D01*
X16239845Y-31493000D01*
X17433000Y-31493000D01*
X17433000Y-30299181D01*
X17203108Y-30178514D01*
X16678642Y-30424817D01*
X16288355Y-30853076D01*
X16118524Y-31263110D01*
X15127000Y-31263110D01*
X15127000Y-24192619D01*
X15514613Y-24192619D01*
X15854155Y-25014372D01*
X16482321Y-25643636D01*
X17303481Y-25984611D01*
X18192619Y-25985387D01*
X19014372Y-25645845D01*
X19643636Y-25017679D01*
X19984611Y-24196519D01*
X19984614Y-24192619D01*
X51764613Y-24192619D01*
X52104155Y-25014372D01*
X52732321Y-25643636D01*
X53553481Y-25984611D01*
X54442619Y-25985387D01*
X55264372Y-25645845D01*
X55893636Y-25017679D01*
X56234611Y-24196519D01*
X56235387Y-23307381D01*
X55895845Y-22485628D01*
X55267679Y-21856364D01*
X54446519Y-21515389D01*
X53557381Y-21514613D01*
X52735628Y-21854155D01*
X52106364Y-22482321D01*
X51765389Y-23303481D01*
X51764613Y-24192619D01*
X19984614Y-24192619D01*
X19985387Y-23307381D01*
X19645845Y-22485628D01*
X19017679Y-21856364D01*
X18196519Y-21515389D01*
X17307381Y-21514613D01*
X16485628Y-21854155D01*
X15856364Y-22482321D01*
X15515389Y-23303481D01*
X15514613Y-24192619D01*
X15127000Y-24192619D01*
X15127000Y-21127000D01*
X63373000Y-21127000D01*
X63373000Y-29942132D01*
X63373000Y-29942132D01*
G37*
X63373000Y-29942132D02*
X63050434Y-29619566D01*
X62779541Y-29438561D01*
X62460000Y-29375000D01*
X62141480Y-29375000D01*
X61905759Y-29022219D01*
X61782710Y-28940000D01*
X61905759Y-28857781D01*
X62260072Y-28327514D01*
X62384490Y-27702022D01*
X62384490Y-27637978D01*
X62260072Y-27012486D01*
X61905759Y-26482219D01*
X61782710Y-26400000D01*
X61905759Y-26317781D01*
X62260072Y-25787514D01*
X62384490Y-25162022D01*
X62384490Y-25097978D01*
X62260072Y-24472486D01*
X61905759Y-23942219D01*
X61375492Y-23587906D01*
X60750000Y-23463488D01*
X60124508Y-23587906D01*
X59594241Y-23942219D01*
X59239928Y-24472486D01*
X59115510Y-25097978D01*
X59115510Y-25162022D01*
X59239928Y-25787514D01*
X59594241Y-26317781D01*
X59717290Y-26400000D01*
X59594241Y-26482219D01*
X59239928Y-27012486D01*
X59115510Y-27637978D01*
X59115510Y-27702022D01*
X59239928Y-28327514D01*
X59594241Y-28857781D01*
X59717290Y-28940000D01*
X59594241Y-29022219D01*
X59239928Y-29552486D01*
X59115510Y-30177978D01*
X59115510Y-30242022D01*
X59239928Y-30867514D01*
X59453453Y-31187077D01*
X59299069Y-31286420D01*
X59154079Y-31498620D01*
X59103070Y-31750510D01*
X59103070Y-33216061D01*
X57909566Y-34409566D01*
X57728561Y-34680459D01*
X57665000Y-35000000D01*
X57665000Y-42750000D01*
X57728561Y-43069541D01*
X57855858Y-43260054D01*
X57909566Y-43340434D01*
X58909566Y-44340434D01*
X59180460Y-44521440D01*
X59252560Y-44535781D01*
X59252560Y-44600000D01*
X59296838Y-44835317D01*
X59435910Y-45051441D01*
X59648110Y-45196431D01*
X59900000Y-45247440D01*
X61600000Y-45247440D01*
X61835317Y-45203162D01*
X62051441Y-45064090D01*
X62196431Y-44851890D01*
X62247440Y-44600000D01*
X62247440Y-42900000D01*
X62203162Y-42664683D01*
X62064090Y-42448559D01*
X61851890Y-42303569D01*
X61784459Y-42289914D01*
X61829147Y-42260054D01*
X61972841Y-42045000D01*
X62540000Y-42045000D01*
X62859541Y-41981439D01*
X63130434Y-41800434D01*
X63373000Y-41557868D01*
X63373000Y-49623000D01*
X15127000Y-49623000D01*
X15127000Y-47442619D01*
X15514613Y-47442619D01*
X15854155Y-48264372D01*
X16482321Y-48893636D01*
X17303481Y-49234611D01*
X18192619Y-49235387D01*
X19014372Y-48895845D01*
X19643636Y-48267679D01*
X19984611Y-47446519D01*
X19985387Y-46557381D01*
X19645845Y-45735628D01*
X19017679Y-45106364D01*
X18196519Y-44765389D01*
X17307381Y-44764613D01*
X16485628Y-45104155D01*
X15856364Y-45732321D01*
X15515389Y-46553481D01*
X15514613Y-47442619D01*
X15127000Y-47442619D01*
X15127000Y-39057868D01*
X16159566Y-40090434D01*
X16430459Y-40271439D01*
X16750000Y-40335000D01*
X34404132Y-40335000D01*
X41409566Y-47340434D01*
X41680459Y-47521439D01*
X42000000Y-47585000D01*
X47750000Y-47585000D01*
X48069541Y-47521439D01*
X48187503Y-47442619D01*
X51764613Y-47442619D01*
X52104155Y-48264372D01*
X52732321Y-48893636D01*
X53553481Y-49234611D01*
X54442619Y-49235387D01*
X55264372Y-48895845D01*
X55893636Y-48267679D01*
X56234611Y-47446519D01*
X56235387Y-46557381D01*
X55895845Y-45735628D01*
X55267679Y-45106364D01*
X54446519Y-44765389D01*
X53557381Y-44764613D01*
X52735628Y-45104155D01*
X52106364Y-45732321D01*
X51765389Y-46553481D01*
X51764613Y-47442619D01*
X48187503Y-47442619D01*
X48340434Y-47340434D01*
X48840434Y-46840434D01*
X49021440Y-46569540D01*
X49085000Y-46250000D01*
X49085000Y-44210000D01*
X49021439Y-43890459D01*
X48840434Y-43619566D01*
X47708807Y-42487939D01*
X47764093Y-42210000D01*
X47651054Y-41641715D01*
X47329147Y-41159946D01*
X46988447Y-40932298D01*
X47131358Y-40865183D01*
X47521645Y-40436924D01*
X47691476Y-40026890D01*
X47570155Y-39797000D01*
X46377000Y-39797000D01*
X46377000Y-39817000D01*
X46123000Y-39817000D01*
X46123000Y-39797000D01*
X46103000Y-39797000D01*
X46103000Y-39543000D01*
X46123000Y-39543000D01*
X46123000Y-38349181D01*
X46377000Y-38349181D01*
X46377000Y-39543000D01*
X47570155Y-39543000D01*
X47691476Y-39313110D01*
X47521645Y-38903076D01*
X47131358Y-38474817D01*
X46606892Y-38228514D01*
X46377000Y-38349181D01*
X46123000Y-38349181D01*
X45893108Y-38228514D01*
X45368642Y-38474817D01*
X44978355Y-38903076D01*
X44978345Y-38903101D01*
X44789147Y-38619946D01*
X44307378Y-38298039D01*
X43739093Y-38185000D01*
X43680907Y-38185000D01*
X43451500Y-38230632D01*
X36250434Y-31029566D01*
X36178407Y-30981439D01*
X35979541Y-30848561D01*
X35660000Y-30785000D01*
X21322841Y-30785000D01*
X21179147Y-30569946D01*
X20697378Y-30248039D01*
X20129093Y-30135000D01*
X20070907Y-30135000D01*
X19502622Y-30248039D01*
X19020853Y-30569946D01*
X18831655Y-30853101D01*
X18831645Y-30853076D01*
X18441358Y-30424817D01*
X17916892Y-30178514D01*
X17687000Y-30299181D01*
X17687000Y-31493000D01*
X17707000Y-31493000D01*
X17707000Y-31747000D01*
X17687000Y-31747000D01*
X17687000Y-31767000D01*
X17433000Y-31767000D01*
X17433000Y-31747000D01*
X16239845Y-31747000D01*
X16118524Y-31976890D01*
X16288355Y-32386924D01*
X16678642Y-32815183D01*
X16821553Y-32882298D01*
X16480853Y-33109946D01*
X16337159Y-33325000D01*
X15840000Y-33325000D01*
X15520460Y-33388560D01*
X15249566Y-33569566D01*
X15127000Y-33692132D01*
X15127000Y-31263110D01*
X16118524Y-31263110D01*
X16239845Y-31493000D01*
X17433000Y-31493000D01*
X17433000Y-30299181D01*
X17203108Y-30178514D01*
X16678642Y-30424817D01*
X16288355Y-30853076D01*
X16118524Y-31263110D01*
X15127000Y-31263110D01*
X15127000Y-24192619D01*
X15514613Y-24192619D01*
X15854155Y-25014372D01*
X16482321Y-25643636D01*
X17303481Y-25984611D01*
X18192619Y-25985387D01*
X19014372Y-25645845D01*
X19643636Y-25017679D01*
X19984611Y-24196519D01*
X19984614Y-24192619D01*
X51764613Y-24192619D01*
X52104155Y-25014372D01*
X52732321Y-25643636D01*
X53553481Y-25984611D01*
X54442619Y-25985387D01*
X55264372Y-25645845D01*
X55893636Y-25017679D01*
X56234611Y-24196519D01*
X56235387Y-23307381D01*
X55895845Y-22485628D01*
X55267679Y-21856364D01*
X54446519Y-21515389D01*
X53557381Y-21514613D01*
X52735628Y-21854155D01*
X52106364Y-22482321D01*
X51765389Y-23303481D01*
X51764613Y-24192619D01*
X19984614Y-24192619D01*
X19985387Y-23307381D01*
X19645845Y-22485628D01*
X19017679Y-21856364D01*
X18196519Y-21515389D01*
X17307381Y-21514613D01*
X16485628Y-21854155D01*
X15856364Y-22482321D01*
X15515389Y-23303481D01*
X15514613Y-24192619D01*
X15127000Y-24192619D01*
X15127000Y-21127000D01*
X63373000Y-21127000D01*
X63373000Y-29942132D01*
M02*
