G04 #@! TF.FileFunction,Legend,Top*
%FSLAX46Y46*%
G04 Gerber Fmt 4.6, Leading zero omitted, Abs format (unit mm)*
G04 Created by KiCad (PCBNEW 4.0.4-stable) date 02/21/17 16:43:53*
%MOMM*%
%LPD*%
G01*
G04 APERTURE LIST*
%ADD10C,0.100000*%
%ADD11C,0.200000*%
%ADD12C,0.120000*%
%ADD13C,0.150000*%
G04 APERTURE END LIST*
D10*
D11*
X24250000Y-20250000D02*
X64250000Y-20250000D01*
X24250000Y-50500000D02*
X24250000Y-20250000D01*
X64250000Y-50500000D02*
X24250000Y-50500000D01*
X64250000Y-20250000D02*
X64250000Y-50500000D01*
D12*
X47640000Y-43480000D02*
X47640000Y-38280000D01*
X47640000Y-38280000D02*
X42320000Y-38280000D01*
X42320000Y-38280000D02*
X42320000Y-46140000D01*
X42320000Y-46140000D02*
X44980000Y-46140000D01*
X44980000Y-46140000D02*
X44980000Y-43480000D01*
X44980000Y-43480000D02*
X47640000Y-43480000D01*
X47640000Y-44750000D02*
X47640000Y-46140000D01*
X47640000Y-46140000D02*
X46250000Y-46140000D01*
X21490000Y-35430000D02*
X21490000Y-30230000D01*
X21490000Y-30230000D02*
X16170000Y-30230000D01*
X16170000Y-30230000D02*
X16170000Y-38090000D01*
X16170000Y-38090000D02*
X18830000Y-38090000D01*
X18830000Y-38090000D02*
X18830000Y-35430000D01*
X18830000Y-35430000D02*
X21490000Y-35430000D01*
X21490000Y-36700000D02*
X21490000Y-38090000D01*
X21490000Y-38090000D02*
X20100000Y-38090000D01*
D13*
X57651200Y-23639020D02*
X57651200Y-34240980D01*
X58049980Y-34240980D02*
X58049980Y-23639020D01*
X63350960Y-34240980D02*
X63350960Y-23639020D01*
X63848800Y-23639020D02*
X63848800Y-34240980D01*
X63350960Y-26443180D02*
X63848800Y-26443180D01*
X63350960Y-28940000D02*
X63848800Y-28940000D01*
X63848800Y-34037780D02*
X63350960Y-34037780D01*
X63350960Y-23839680D02*
X63848800Y-23839680D01*
X63848800Y-31436820D02*
X63350960Y-31436820D01*
X63848800Y-23641560D02*
X57651200Y-23641560D01*
X57651200Y-34235900D02*
X63848800Y-34235900D01*
D12*
X62140000Y-42480000D02*
X62140000Y-34740000D01*
X62140000Y-34740000D02*
X59360000Y-34740000D01*
X59360000Y-34740000D02*
X59360000Y-42480000D01*
X59360000Y-42480000D02*
X62140000Y-42480000D01*
X62140000Y-43750000D02*
X62140000Y-45140000D01*
X62140000Y-45140000D02*
X60750000Y-45140000D01*
D13*
X45761905Y-37952381D02*
X45761905Y-36952381D01*
X46142858Y-36952381D01*
X46238096Y-37000000D01*
X46285715Y-37047619D01*
X46333334Y-37142857D01*
X46333334Y-37285714D01*
X46285715Y-37380952D01*
X46238096Y-37428571D01*
X46142858Y-37476190D01*
X45761905Y-37476190D01*
X47285715Y-37952381D02*
X46714286Y-37952381D01*
X47000000Y-37952381D02*
X47000000Y-36952381D01*
X46904762Y-37095238D01*
X46809524Y-37190476D01*
X46714286Y-37238095D01*
X17785715Y-29357143D02*
X17738096Y-29404762D01*
X17595239Y-29452381D01*
X17500001Y-29452381D01*
X17357143Y-29404762D01*
X17261905Y-29309524D01*
X17214286Y-29214286D01*
X17166667Y-29023810D01*
X17166667Y-28880952D01*
X17214286Y-28690476D01*
X17261905Y-28595238D01*
X17357143Y-28500000D01*
X17500001Y-28452381D01*
X17595239Y-28452381D01*
X17738096Y-28500000D01*
X17785715Y-28547619D01*
X18404762Y-28452381D02*
X18595239Y-28452381D01*
X18690477Y-28500000D01*
X18785715Y-28595238D01*
X18833334Y-28785714D01*
X18833334Y-29119048D01*
X18785715Y-29309524D01*
X18690477Y-29404762D01*
X18595239Y-29452381D01*
X18404762Y-29452381D01*
X18309524Y-29404762D01*
X18214286Y-29309524D01*
X18166667Y-29119048D01*
X18166667Y-28785714D01*
X18214286Y-28595238D01*
X18309524Y-28500000D01*
X18404762Y-28452381D01*
X19261905Y-29452381D02*
X19261905Y-28452381D01*
X19833334Y-29452381D01*
X19833334Y-28452381D01*
X20833334Y-29452381D02*
X20261905Y-29452381D01*
X20547619Y-29452381D02*
X20547619Y-28452381D01*
X20452381Y-28595238D01*
X20357143Y-28690476D01*
X20261905Y-28738095D01*
X60011905Y-23202381D02*
X60011905Y-22202381D01*
X60392858Y-22202381D01*
X60488096Y-22250000D01*
X60535715Y-22297619D01*
X60583334Y-22392857D01*
X60583334Y-22535714D01*
X60535715Y-22630952D01*
X60488096Y-22678571D01*
X60392858Y-22726190D01*
X60011905Y-22726190D01*
X60964286Y-22297619D02*
X61011905Y-22250000D01*
X61107143Y-22202381D01*
X61345239Y-22202381D01*
X61440477Y-22250000D01*
X61488096Y-22297619D01*
X61535715Y-22392857D01*
X61535715Y-22488095D01*
X61488096Y-22630952D01*
X60916667Y-23202381D01*
X61535715Y-23202381D01*
X61261905Y-46452381D02*
X61261905Y-45452381D01*
X61642858Y-45452381D01*
X61738096Y-45500000D01*
X61785715Y-45547619D01*
X61833334Y-45642857D01*
X61833334Y-45785714D01*
X61785715Y-45880952D01*
X61738096Y-45928571D01*
X61642858Y-45976190D01*
X61261905Y-45976190D01*
X62166667Y-45452381D02*
X62785715Y-45452381D01*
X62452381Y-45833333D01*
X62595239Y-45833333D01*
X62690477Y-45880952D01*
X62738096Y-45928571D01*
X62785715Y-46023810D01*
X62785715Y-46261905D01*
X62738096Y-46357143D01*
X62690477Y-46404762D01*
X62595239Y-46452381D01*
X62309524Y-46452381D01*
X62214286Y-46404762D01*
X62166667Y-46357143D01*
M02*
