G04 (created by PCBNEW (2013-07-07 BZR 4022)-stable) date 1/2/2015 7:37:09 AM*
%MOIN*%
G04 Gerber Fmt 3.4, Leading zero omitted, Abs format*
%FSLAX34Y34*%
G01*
G70*
G90*
G04 APERTURE LIST*
%ADD10C,0.00393701*%
%ADD11C,0.011811*%
%ADD12C,0.00787402*%
%ADD13C,0.00492126*%
%ADD14C,0.0121417*%
%ADD15C,0.019685*%
G04 APERTURE END LIST*
G54D10*
G54D11*
X43602Y-22033D02*
X43630Y-22061D01*
X43714Y-22089D01*
X43771Y-22089D01*
X43855Y-22061D01*
X43911Y-22005D01*
X43939Y-21948D01*
X43967Y-21836D01*
X43967Y-21751D01*
X43939Y-21639D01*
X43911Y-21583D01*
X43855Y-21526D01*
X43771Y-21498D01*
X43714Y-21498D01*
X43630Y-21526D01*
X43602Y-21555D01*
X43039Y-22089D02*
X43377Y-22089D01*
X43208Y-22089D02*
X43208Y-21498D01*
X43264Y-21583D01*
X43321Y-21639D01*
X43377Y-21667D01*
G54D12*
X44724Y-25669D02*
X44803Y-25590D01*
X44724Y-25511D02*
X44724Y-25669D01*
X44803Y-25590D02*
X44724Y-25511D01*
X44488Y-25590D02*
X44803Y-25590D01*
X44724Y-27480D02*
X44803Y-27401D01*
X44724Y-27322D02*
X44724Y-27480D01*
X44803Y-27401D02*
X44724Y-27322D01*
X44488Y-27401D02*
X44803Y-27401D01*
X37716Y-27322D02*
X37795Y-27244D01*
X37716Y-27165D02*
X37716Y-27322D01*
X37795Y-27244D02*
X37716Y-27165D01*
X37500Y-27244D02*
X37795Y-27244D01*
X37696Y-25826D02*
X37795Y-25728D01*
X37696Y-25629D02*
X37696Y-25826D01*
X37795Y-25728D02*
X37696Y-25629D01*
X37500Y-25728D02*
X37795Y-25728D01*
G54D13*
X37518Y-27007D02*
X37715Y-27007D01*
X37518Y-26876D02*
X37715Y-26876D01*
X37518Y-26719D01*
X37715Y-26719D01*
X37518Y-26587D02*
X37715Y-26587D01*
X37715Y-26482D01*
X37706Y-26456D01*
X37696Y-26443D01*
X37678Y-26430D01*
X37649Y-26430D01*
X37631Y-26443D01*
X37621Y-26456D01*
X37612Y-26482D01*
X37612Y-26587D01*
X37715Y-26312D02*
X37556Y-26312D01*
X37537Y-26299D01*
X37528Y-26286D01*
X37518Y-26259D01*
X37518Y-26207D01*
X37528Y-26181D01*
X37537Y-26167D01*
X37556Y-26154D01*
X37715Y-26154D01*
X37715Y-26062D02*
X37715Y-25905D01*
X37518Y-25984D02*
X37715Y-25984D01*
X44567Y-25813D02*
X44567Y-25866D01*
X44577Y-25892D01*
X44595Y-25918D01*
X44633Y-25931D01*
X44699Y-25931D01*
X44736Y-25918D01*
X44755Y-25892D01*
X44764Y-25866D01*
X44764Y-25813D01*
X44755Y-25787D01*
X44736Y-25761D01*
X44699Y-25748D01*
X44633Y-25748D01*
X44595Y-25761D01*
X44577Y-25787D01*
X44567Y-25813D01*
X44567Y-26049D02*
X44727Y-26049D01*
X44745Y-26062D01*
X44755Y-26076D01*
X44764Y-26102D01*
X44764Y-26154D01*
X44755Y-26181D01*
X44745Y-26194D01*
X44727Y-26207D01*
X44567Y-26207D01*
X44567Y-26299D02*
X44567Y-26456D01*
X44764Y-26377D02*
X44567Y-26377D01*
X44764Y-26548D02*
X44567Y-26548D01*
X44567Y-26653D01*
X44577Y-26679D01*
X44586Y-26692D01*
X44605Y-26706D01*
X44633Y-26706D01*
X44652Y-26692D01*
X44661Y-26679D01*
X44670Y-26653D01*
X44670Y-26548D01*
X44567Y-26824D02*
X44727Y-26824D01*
X44745Y-26837D01*
X44755Y-26850D01*
X44764Y-26876D01*
X44764Y-26929D01*
X44755Y-26955D01*
X44745Y-26968D01*
X44727Y-26981D01*
X44567Y-26981D01*
X44567Y-27073D02*
X44567Y-27230D01*
X44764Y-27152D02*
X44567Y-27152D01*
X44399Y-28156D02*
X44408Y-28182D01*
X44408Y-28221D01*
X44399Y-28261D01*
X44380Y-28287D01*
X44361Y-28300D01*
X44324Y-28313D01*
X44296Y-28313D01*
X44258Y-28300D01*
X44239Y-28287D01*
X44221Y-28261D01*
X44211Y-28221D01*
X44211Y-28195D01*
X44221Y-28156D01*
X44230Y-28143D01*
X44296Y-28143D01*
X44296Y-28195D01*
X44211Y-28024D02*
X44408Y-28024D01*
X44211Y-27867D01*
X44408Y-27867D01*
X44211Y-27736D02*
X44408Y-27736D01*
X44408Y-27670D01*
X44399Y-27631D01*
X44380Y-27604D01*
X44361Y-27591D01*
X44324Y-27578D01*
X44296Y-27578D01*
X44258Y-27591D01*
X44239Y-27604D01*
X44221Y-27631D01*
X44211Y-27670D01*
X44211Y-27736D01*
X44230Y-27093D02*
X44221Y-27106D01*
X44211Y-27145D01*
X44211Y-27171D01*
X44221Y-27211D01*
X44239Y-27237D01*
X44258Y-27250D01*
X44296Y-27263D01*
X44324Y-27263D01*
X44361Y-27250D01*
X44380Y-27237D01*
X44399Y-27211D01*
X44408Y-27171D01*
X44408Y-27145D01*
X44399Y-27106D01*
X44389Y-27093D01*
X44211Y-26843D02*
X44211Y-26975D01*
X44408Y-26975D01*
X44211Y-26751D02*
X44408Y-26751D01*
X44211Y-26594D02*
X44324Y-26712D01*
X44408Y-26594D02*
X44296Y-26751D01*
X44211Y-26266D02*
X44408Y-26266D01*
X44408Y-26200D01*
X44399Y-26161D01*
X44380Y-26135D01*
X44361Y-26122D01*
X44324Y-26108D01*
X44296Y-26108D01*
X44258Y-26122D01*
X44239Y-26135D01*
X44221Y-26161D01*
X44211Y-26200D01*
X44211Y-26266D01*
X44267Y-26003D02*
X44267Y-25872D01*
X44211Y-26030D02*
X44408Y-25938D01*
X44211Y-25846D01*
X44408Y-25793D02*
X44408Y-25636D01*
X44211Y-25715D02*
X44408Y-25715D01*
X44267Y-25557D02*
X44267Y-25426D01*
X44211Y-25583D02*
X44408Y-25492D01*
X44211Y-25400D01*
X44408Y-25137D02*
X44211Y-25045D01*
X44408Y-24954D01*
X44286Y-24862D02*
X44286Y-24652D01*
X44211Y-24757D02*
X44361Y-24757D01*
X37874Y-24612D02*
X38071Y-24704D01*
X37874Y-24796D01*
X37996Y-24888D02*
X37996Y-25098D01*
X38071Y-24993D02*
X37921Y-24993D01*
X38071Y-25439D02*
X37874Y-25439D01*
X37874Y-25505D01*
X37884Y-25544D01*
X37903Y-25570D01*
X37921Y-25583D01*
X37959Y-25597D01*
X37987Y-25597D01*
X38024Y-25583D01*
X38043Y-25570D01*
X38062Y-25544D01*
X38071Y-25505D01*
X38071Y-25439D01*
X38015Y-25702D02*
X38015Y-25833D01*
X38071Y-25675D02*
X37874Y-25767D01*
X38071Y-25859D01*
X37874Y-25912D02*
X37874Y-26069D01*
X38071Y-25990D02*
X37874Y-25990D01*
X38015Y-26148D02*
X38015Y-26279D01*
X38071Y-26122D02*
X37874Y-26213D01*
X38071Y-26305D01*
X38053Y-26765D02*
X38062Y-26751D01*
X38071Y-26712D01*
X38071Y-26686D01*
X38062Y-26646D01*
X38043Y-26620D01*
X38024Y-26607D01*
X37987Y-26594D01*
X37959Y-26594D01*
X37921Y-26607D01*
X37903Y-26620D01*
X37884Y-26646D01*
X37874Y-26686D01*
X37874Y-26712D01*
X37884Y-26751D01*
X37893Y-26765D01*
X38071Y-27014D02*
X38071Y-26883D01*
X37874Y-26883D01*
X38071Y-27106D02*
X37874Y-27106D01*
X38071Y-27263D02*
X37959Y-27145D01*
X37874Y-27263D02*
X37987Y-27106D01*
X37884Y-27736D02*
X37874Y-27709D01*
X37874Y-27670D01*
X37884Y-27631D01*
X37903Y-27604D01*
X37921Y-27591D01*
X37959Y-27578D01*
X37987Y-27578D01*
X38024Y-27591D01*
X38043Y-27604D01*
X38062Y-27631D01*
X38071Y-27670D01*
X38071Y-27696D01*
X38062Y-27736D01*
X38053Y-27749D01*
X37987Y-27749D01*
X37987Y-27696D01*
X38071Y-27867D02*
X37874Y-27867D01*
X38071Y-28024D01*
X37874Y-28024D01*
X38071Y-28156D02*
X37874Y-28156D01*
X37874Y-28221D01*
X37884Y-28261D01*
X37903Y-28287D01*
X37921Y-28300D01*
X37959Y-28313D01*
X37987Y-28313D01*
X38024Y-28300D01*
X38043Y-28287D01*
X38062Y-28261D01*
X38071Y-28221D01*
X38071Y-28156D01*
G54D14*
X42913Y-19881D02*
X44094Y-19881D01*
X42618Y-19980D02*
X44389Y-19980D01*
X42421Y-20078D02*
X44586Y-20078D01*
G54D15*
X44094Y-20570D02*
X44685Y-20570D01*
G54D14*
X45590Y-21850D02*
G75*
G03X45590Y-21850I-2086J0D01*
G74*
G01*
M02*
