G04 (created by PCBNEW (2013-07-07 BZR 4022)-stable) date 1/2/2015 7:37:09 AM*
%MOIN*%
G04 Gerber Fmt 3.4, Leading zero omitted, Abs format*
%FSLAX34Y34*%
G01*
G70*
G90*
G04 APERTURE LIST*
%ADD10C,0.00393701*%
%ADD11C,0.074*%
%ADD12C,0.177165*%
%ADD13R,0.0708661X0.0708661*%
%ADD14C,0.0708661*%
%ADD15C,0.0787402*%
%ADD16C,0.01*%
G04 APERTURE END LIST*
G54D10*
G54D11*
X42568Y-25976D03*
X42668Y-26976D03*
X42568Y-27976D03*
X42668Y-24976D03*
X39615Y-25976D03*
X39715Y-26976D03*
X39615Y-27976D03*
X39715Y-24976D03*
G54D12*
X39468Y-23307D03*
X39468Y-20945D03*
X37618Y-22126D03*
G54D13*
X43503Y-22834D03*
G54D14*
X43503Y-20866D03*
G54D15*
X37618Y-22126D02*
X37598Y-23110D01*
X37598Y-23110D02*
X37578Y-23130D01*
X37618Y-22126D02*
X38287Y-22126D01*
X38287Y-22126D02*
X39468Y-20945D01*
G54D10*
G36*
X37970Y-22131D02*
X37624Y-22478D01*
X37618Y-22473D01*
X37612Y-22478D01*
X37266Y-22131D01*
X37271Y-22126D01*
X37266Y-22120D01*
X37612Y-21773D01*
X37618Y-21779D01*
X37624Y-21773D01*
X37970Y-22120D01*
X37965Y-22126D01*
X37970Y-22131D01*
X37970Y-22131D01*
G37*
G54D16*
X37970Y-22131D02*
X37624Y-22478D01*
X37618Y-22473D01*
X37612Y-22478D01*
X37266Y-22131D01*
X37271Y-22126D01*
X37266Y-22120D01*
X37612Y-21773D01*
X37618Y-21779D01*
X37624Y-21773D01*
X37970Y-22120D01*
X37965Y-22126D01*
X37970Y-22131D01*
G54D10*
G36*
X45389Y-28122D02*
X45361Y-28266D01*
X45294Y-28366D01*
X45196Y-28431D01*
X45051Y-28460D01*
X43288Y-28460D01*
X43288Y-26853D01*
X43194Y-26625D01*
X43019Y-26451D01*
X42984Y-26436D01*
X43093Y-26328D01*
X43188Y-26100D01*
X43188Y-25853D01*
X43094Y-25625D01*
X42984Y-25516D01*
X43018Y-25502D01*
X43193Y-25328D01*
X43288Y-25100D01*
X43288Y-24853D01*
X43194Y-24625D01*
X43019Y-24451D01*
X42791Y-24356D01*
X42545Y-24356D01*
X42317Y-24450D01*
X42142Y-24624D01*
X42048Y-24852D01*
X42048Y-25099D01*
X42142Y-25327D01*
X42251Y-25436D01*
X42217Y-25450D01*
X42042Y-25624D01*
X41948Y-25852D01*
X41948Y-26099D01*
X42042Y-26327D01*
X42216Y-26501D01*
X42251Y-26516D01*
X42142Y-26624D01*
X42048Y-26852D01*
X42048Y-27099D01*
X42142Y-27327D01*
X42316Y-27501D01*
X42382Y-27529D01*
X42568Y-27714D01*
X42686Y-27596D01*
X42790Y-27596D01*
X43018Y-27502D01*
X43193Y-27328D01*
X43288Y-27100D01*
X43288Y-26853D01*
X43288Y-28460D01*
X43199Y-28460D01*
X43199Y-27937D01*
X43165Y-27770D01*
X43079Y-27726D01*
X42829Y-27976D01*
X43079Y-28226D01*
X43165Y-28182D01*
X43199Y-27937D01*
X43199Y-28460D01*
X42790Y-28460D01*
X42568Y-28238D01*
X42345Y-28460D01*
X42306Y-28460D01*
X42306Y-27976D01*
X42056Y-27726D01*
X41970Y-27770D01*
X41937Y-28015D01*
X41970Y-28182D01*
X42056Y-28226D01*
X42306Y-27976D01*
X42306Y-28460D01*
X40626Y-28460D01*
X40626Y-20970D01*
X40548Y-20525D01*
X40528Y-20478D01*
X40396Y-20363D01*
X39815Y-20945D01*
X40396Y-21526D01*
X40528Y-21411D01*
X40626Y-20970D01*
X40626Y-28460D01*
X40604Y-28460D01*
X40246Y-28460D01*
X40246Y-27937D01*
X40213Y-27770D01*
X40127Y-27726D01*
X39876Y-27976D01*
X40127Y-28226D01*
X40213Y-28182D01*
X40246Y-27937D01*
X40246Y-28460D01*
X39837Y-28460D01*
X39615Y-28238D01*
X39392Y-28460D01*
X39353Y-28460D01*
X39353Y-27976D01*
X39103Y-27726D01*
X39017Y-27770D01*
X38984Y-28015D01*
X39017Y-28182D01*
X39103Y-28226D01*
X39353Y-27976D01*
X39353Y-28460D01*
X37231Y-28460D01*
X37163Y-28446D01*
X36893Y-28079D01*
X36893Y-25004D01*
X37019Y-25088D01*
X37020Y-25088D01*
X37120Y-25130D01*
X37346Y-25175D01*
X37455Y-25175D01*
X37456Y-25175D01*
X37680Y-25130D01*
X37681Y-25130D01*
X37782Y-25089D01*
X37974Y-24961D01*
X38051Y-24884D01*
X38051Y-24883D01*
X38178Y-24693D01*
X38179Y-24692D01*
X38221Y-24591D01*
X38266Y-24365D01*
X38266Y-24365D01*
X38266Y-24365D01*
X38266Y-24311D01*
X38266Y-24256D01*
X38266Y-24256D01*
X38266Y-24256D01*
X38221Y-24030D01*
X38200Y-23979D01*
X38179Y-23929D01*
X38178Y-23928D01*
X38051Y-23738D01*
X38051Y-23737D01*
X37974Y-23660D01*
X37782Y-23532D01*
X37681Y-23491D01*
X37680Y-23491D01*
X37456Y-23446D01*
X37455Y-23446D01*
X37346Y-23446D01*
X37120Y-23491D01*
X37020Y-23533D01*
X37019Y-23533D01*
X36893Y-23617D01*
X36893Y-23425D01*
X36893Y-23037D01*
X36973Y-23117D01*
X37036Y-23054D01*
X37151Y-23185D01*
X37592Y-23283D01*
X38037Y-23205D01*
X38085Y-23185D01*
X38200Y-23054D01*
X38200Y-23054D01*
X38263Y-23117D01*
X38355Y-23025D01*
X38332Y-23080D01*
X38332Y-23532D01*
X38505Y-23949D01*
X38824Y-24269D01*
X39241Y-24442D01*
X39382Y-24442D01*
X39364Y-24450D01*
X39190Y-24624D01*
X39095Y-24852D01*
X39095Y-25099D01*
X39189Y-25327D01*
X39298Y-25436D01*
X39264Y-25450D01*
X39090Y-25624D01*
X38995Y-25852D01*
X38995Y-26099D01*
X39089Y-26327D01*
X39263Y-26501D01*
X39298Y-26516D01*
X39190Y-26624D01*
X39095Y-26852D01*
X39095Y-27099D01*
X39189Y-27327D01*
X39363Y-27501D01*
X39429Y-27529D01*
X39615Y-27714D01*
X39733Y-27596D01*
X39838Y-27596D01*
X40066Y-27502D01*
X40240Y-27328D01*
X40335Y-27100D01*
X40335Y-26853D01*
X40241Y-26625D01*
X40067Y-26451D01*
X40031Y-26436D01*
X40140Y-26328D01*
X40235Y-26100D01*
X40235Y-25853D01*
X40141Y-25625D01*
X40032Y-25516D01*
X40066Y-25502D01*
X40240Y-25328D01*
X40335Y-25100D01*
X40335Y-24853D01*
X40241Y-24625D01*
X40067Y-24451D01*
X39871Y-24369D01*
X40111Y-24270D01*
X40430Y-23951D01*
X40604Y-23534D01*
X40604Y-23082D01*
X40431Y-22664D01*
X40112Y-22344D01*
X40050Y-22318D01*
X39695Y-22171D01*
X39243Y-22171D01*
X38825Y-22343D01*
X38707Y-22462D01*
X38776Y-22151D01*
X38720Y-21833D01*
X38823Y-21936D01*
X38886Y-21873D01*
X39001Y-22004D01*
X39442Y-22102D01*
X39887Y-22024D01*
X39935Y-22004D01*
X40050Y-21873D01*
X39468Y-21292D01*
X39462Y-21297D01*
X39121Y-20956D01*
X39116Y-20950D01*
X39121Y-20945D01*
X38540Y-20363D01*
X38408Y-20478D01*
X38310Y-20919D01*
X38366Y-21238D01*
X38263Y-21134D01*
X38200Y-21197D01*
X38085Y-21066D01*
X37644Y-20968D01*
X37199Y-21046D01*
X37151Y-21066D01*
X37036Y-21197D01*
X37030Y-21191D01*
X37043Y-21129D01*
X37451Y-20519D01*
X38058Y-20113D01*
X38803Y-19964D01*
X38932Y-19964D01*
X38886Y-20016D01*
X39468Y-20598D01*
X40050Y-20016D01*
X40004Y-19964D01*
X43476Y-19964D01*
X44224Y-20114D01*
X44834Y-20522D01*
X45138Y-20976D01*
X45271Y-21283D01*
X45389Y-21874D01*
X45389Y-23425D01*
X45389Y-23617D01*
X45262Y-23532D01*
X45162Y-23491D01*
X45161Y-23491D01*
X44937Y-23446D01*
X44936Y-23446D01*
X44827Y-23446D01*
X44601Y-23491D01*
X44500Y-23533D01*
X44499Y-23533D01*
X44309Y-23660D01*
X44308Y-23661D01*
X44231Y-23738D01*
X44119Y-23906D01*
X44119Y-20831D01*
X44085Y-20662D01*
X44000Y-20620D01*
X43754Y-20866D01*
X44000Y-21111D01*
X44085Y-21069D01*
X44119Y-20831D01*
X44119Y-23906D01*
X44108Y-23923D01*
X44108Y-23139D01*
X44108Y-22430D01*
X44070Y-22338D01*
X44000Y-22268D01*
X43908Y-22230D01*
X43808Y-22230D01*
X43749Y-22230D01*
X43749Y-21362D01*
X43749Y-20369D01*
X43707Y-20284D01*
X43469Y-20250D01*
X43300Y-20284D01*
X43258Y-20369D01*
X43503Y-20615D01*
X43749Y-20369D01*
X43749Y-21362D01*
X43503Y-21116D01*
X43258Y-21362D01*
X43300Y-21447D01*
X43538Y-21481D01*
X43707Y-21447D01*
X43749Y-21362D01*
X43749Y-22230D01*
X43253Y-22230D01*
X43253Y-20866D01*
X43007Y-20620D01*
X42922Y-20662D01*
X42888Y-20900D01*
X42922Y-21069D01*
X43007Y-21111D01*
X43253Y-20866D01*
X43253Y-22230D01*
X43100Y-22230D01*
X43008Y-22268D01*
X42937Y-22338D01*
X42899Y-22430D01*
X42899Y-22529D01*
X42899Y-23238D01*
X42937Y-23330D01*
X43007Y-23400D01*
X43099Y-23438D01*
X43199Y-23439D01*
X43907Y-23439D01*
X43999Y-23401D01*
X44070Y-23330D01*
X44108Y-23238D01*
X44108Y-23139D01*
X44108Y-23923D01*
X44103Y-23929D01*
X44062Y-24030D01*
X44062Y-24031D01*
X44017Y-24256D01*
X44017Y-24256D01*
X44017Y-24256D01*
X44017Y-24311D01*
X44017Y-24365D01*
X44017Y-24365D01*
X44017Y-24365D01*
X44062Y-24590D01*
X44062Y-24591D01*
X44103Y-24692D01*
X44231Y-24883D01*
X44308Y-24961D01*
X44309Y-24961D01*
X44499Y-25088D01*
X44500Y-25088D01*
X44601Y-25130D01*
X44827Y-25175D01*
X44936Y-25175D01*
X44937Y-25175D01*
X45161Y-25130D01*
X45162Y-25130D01*
X45262Y-25089D01*
X45389Y-25004D01*
X45389Y-28122D01*
X45389Y-28122D01*
G37*
G54D16*
X45389Y-28122D02*
X45361Y-28266D01*
X45294Y-28366D01*
X45196Y-28431D01*
X45051Y-28460D01*
X43288Y-28460D01*
X43288Y-26853D01*
X43194Y-26625D01*
X43019Y-26451D01*
X42984Y-26436D01*
X43093Y-26328D01*
X43188Y-26100D01*
X43188Y-25853D01*
X43094Y-25625D01*
X42984Y-25516D01*
X43018Y-25502D01*
X43193Y-25328D01*
X43288Y-25100D01*
X43288Y-24853D01*
X43194Y-24625D01*
X43019Y-24451D01*
X42791Y-24356D01*
X42545Y-24356D01*
X42317Y-24450D01*
X42142Y-24624D01*
X42048Y-24852D01*
X42048Y-25099D01*
X42142Y-25327D01*
X42251Y-25436D01*
X42217Y-25450D01*
X42042Y-25624D01*
X41948Y-25852D01*
X41948Y-26099D01*
X42042Y-26327D01*
X42216Y-26501D01*
X42251Y-26516D01*
X42142Y-26624D01*
X42048Y-26852D01*
X42048Y-27099D01*
X42142Y-27327D01*
X42316Y-27501D01*
X42382Y-27529D01*
X42568Y-27714D01*
X42686Y-27596D01*
X42790Y-27596D01*
X43018Y-27502D01*
X43193Y-27328D01*
X43288Y-27100D01*
X43288Y-26853D01*
X43288Y-28460D01*
X43199Y-28460D01*
X43199Y-27937D01*
X43165Y-27770D01*
X43079Y-27726D01*
X42829Y-27976D01*
X43079Y-28226D01*
X43165Y-28182D01*
X43199Y-27937D01*
X43199Y-28460D01*
X42790Y-28460D01*
X42568Y-28238D01*
X42345Y-28460D01*
X42306Y-28460D01*
X42306Y-27976D01*
X42056Y-27726D01*
X41970Y-27770D01*
X41937Y-28015D01*
X41970Y-28182D01*
X42056Y-28226D01*
X42306Y-27976D01*
X42306Y-28460D01*
X40626Y-28460D01*
X40626Y-20970D01*
X40548Y-20525D01*
X40528Y-20478D01*
X40396Y-20363D01*
X39815Y-20945D01*
X40396Y-21526D01*
X40528Y-21411D01*
X40626Y-20970D01*
X40626Y-28460D01*
X40604Y-28460D01*
X40246Y-28460D01*
X40246Y-27937D01*
X40213Y-27770D01*
X40127Y-27726D01*
X39876Y-27976D01*
X40127Y-28226D01*
X40213Y-28182D01*
X40246Y-27937D01*
X40246Y-28460D01*
X39837Y-28460D01*
X39615Y-28238D01*
X39392Y-28460D01*
X39353Y-28460D01*
X39353Y-27976D01*
X39103Y-27726D01*
X39017Y-27770D01*
X38984Y-28015D01*
X39017Y-28182D01*
X39103Y-28226D01*
X39353Y-27976D01*
X39353Y-28460D01*
X37231Y-28460D01*
X37163Y-28446D01*
X36893Y-28079D01*
X36893Y-25004D01*
X37019Y-25088D01*
X37020Y-25088D01*
X37120Y-25130D01*
X37346Y-25175D01*
X37455Y-25175D01*
X37456Y-25175D01*
X37680Y-25130D01*
X37681Y-25130D01*
X37782Y-25089D01*
X37974Y-24961D01*
X38051Y-24884D01*
X38051Y-24883D01*
X38178Y-24693D01*
X38179Y-24692D01*
X38221Y-24591D01*
X38266Y-24365D01*
X38266Y-24365D01*
X38266Y-24365D01*
X38266Y-24311D01*
X38266Y-24256D01*
X38266Y-24256D01*
X38266Y-24256D01*
X38221Y-24030D01*
X38200Y-23979D01*
X38179Y-23929D01*
X38178Y-23928D01*
X38051Y-23738D01*
X38051Y-23737D01*
X37974Y-23660D01*
X37782Y-23532D01*
X37681Y-23491D01*
X37680Y-23491D01*
X37456Y-23446D01*
X37455Y-23446D01*
X37346Y-23446D01*
X37120Y-23491D01*
X37020Y-23533D01*
X37019Y-23533D01*
X36893Y-23617D01*
X36893Y-23425D01*
X36893Y-23037D01*
X36973Y-23117D01*
X37036Y-23054D01*
X37151Y-23185D01*
X37592Y-23283D01*
X38037Y-23205D01*
X38085Y-23185D01*
X38200Y-23054D01*
X38200Y-23054D01*
X38263Y-23117D01*
X38355Y-23025D01*
X38332Y-23080D01*
X38332Y-23532D01*
X38505Y-23949D01*
X38824Y-24269D01*
X39241Y-24442D01*
X39382Y-24442D01*
X39364Y-24450D01*
X39190Y-24624D01*
X39095Y-24852D01*
X39095Y-25099D01*
X39189Y-25327D01*
X39298Y-25436D01*
X39264Y-25450D01*
X39090Y-25624D01*
X38995Y-25852D01*
X38995Y-26099D01*
X39089Y-26327D01*
X39263Y-26501D01*
X39298Y-26516D01*
X39190Y-26624D01*
X39095Y-26852D01*
X39095Y-27099D01*
X39189Y-27327D01*
X39363Y-27501D01*
X39429Y-27529D01*
X39615Y-27714D01*
X39733Y-27596D01*
X39838Y-27596D01*
X40066Y-27502D01*
X40240Y-27328D01*
X40335Y-27100D01*
X40335Y-26853D01*
X40241Y-26625D01*
X40067Y-26451D01*
X40031Y-26436D01*
X40140Y-26328D01*
X40235Y-26100D01*
X40235Y-25853D01*
X40141Y-25625D01*
X40032Y-25516D01*
X40066Y-25502D01*
X40240Y-25328D01*
X40335Y-25100D01*
X40335Y-24853D01*
X40241Y-24625D01*
X40067Y-24451D01*
X39871Y-24369D01*
X40111Y-24270D01*
X40430Y-23951D01*
X40604Y-23534D01*
X40604Y-23082D01*
X40431Y-22664D01*
X40112Y-22344D01*
X40050Y-22318D01*
X39695Y-22171D01*
X39243Y-22171D01*
X38825Y-22343D01*
X38707Y-22462D01*
X38776Y-22151D01*
X38720Y-21833D01*
X38823Y-21936D01*
X38886Y-21873D01*
X39001Y-22004D01*
X39442Y-22102D01*
X39887Y-22024D01*
X39935Y-22004D01*
X40050Y-21873D01*
X39468Y-21292D01*
X39462Y-21297D01*
X39121Y-20956D01*
X39116Y-20950D01*
X39121Y-20945D01*
X38540Y-20363D01*
X38408Y-20478D01*
X38310Y-20919D01*
X38366Y-21238D01*
X38263Y-21134D01*
X38200Y-21197D01*
X38085Y-21066D01*
X37644Y-20968D01*
X37199Y-21046D01*
X37151Y-21066D01*
X37036Y-21197D01*
X37030Y-21191D01*
X37043Y-21129D01*
X37451Y-20519D01*
X38058Y-20113D01*
X38803Y-19964D01*
X38932Y-19964D01*
X38886Y-20016D01*
X39468Y-20598D01*
X40050Y-20016D01*
X40004Y-19964D01*
X43476Y-19964D01*
X44224Y-20114D01*
X44834Y-20522D01*
X45138Y-20976D01*
X45271Y-21283D01*
X45389Y-21874D01*
X45389Y-23425D01*
X45389Y-23617D01*
X45262Y-23532D01*
X45162Y-23491D01*
X45161Y-23491D01*
X44937Y-23446D01*
X44936Y-23446D01*
X44827Y-23446D01*
X44601Y-23491D01*
X44500Y-23533D01*
X44499Y-23533D01*
X44309Y-23660D01*
X44308Y-23661D01*
X44231Y-23738D01*
X44119Y-23906D01*
X44119Y-20831D01*
X44085Y-20662D01*
X44000Y-20620D01*
X43754Y-20866D01*
X44000Y-21111D01*
X44085Y-21069D01*
X44119Y-20831D01*
X44119Y-23906D01*
X44108Y-23923D01*
X44108Y-23139D01*
X44108Y-22430D01*
X44070Y-22338D01*
X44000Y-22268D01*
X43908Y-22230D01*
X43808Y-22230D01*
X43749Y-22230D01*
X43749Y-21362D01*
X43749Y-20369D01*
X43707Y-20284D01*
X43469Y-20250D01*
X43300Y-20284D01*
X43258Y-20369D01*
X43503Y-20615D01*
X43749Y-20369D01*
X43749Y-21362D01*
X43503Y-21116D01*
X43258Y-21362D01*
X43300Y-21447D01*
X43538Y-21481D01*
X43707Y-21447D01*
X43749Y-21362D01*
X43749Y-22230D01*
X43253Y-22230D01*
X43253Y-20866D01*
X43007Y-20620D01*
X42922Y-20662D01*
X42888Y-20900D01*
X42922Y-21069D01*
X43007Y-21111D01*
X43253Y-20866D01*
X43253Y-22230D01*
X43100Y-22230D01*
X43008Y-22268D01*
X42937Y-22338D01*
X42899Y-22430D01*
X42899Y-22529D01*
X42899Y-23238D01*
X42937Y-23330D01*
X43007Y-23400D01*
X43099Y-23438D01*
X43199Y-23439D01*
X43907Y-23439D01*
X43999Y-23401D01*
X44070Y-23330D01*
X44108Y-23238D01*
X44108Y-23139D01*
X44108Y-23923D01*
X44103Y-23929D01*
X44062Y-24030D01*
X44062Y-24031D01*
X44017Y-24256D01*
X44017Y-24256D01*
X44017Y-24256D01*
X44017Y-24311D01*
X44017Y-24365D01*
X44017Y-24365D01*
X44017Y-24365D01*
X44062Y-24590D01*
X44062Y-24591D01*
X44103Y-24692D01*
X44231Y-24883D01*
X44308Y-24961D01*
X44309Y-24961D01*
X44499Y-25088D01*
X44500Y-25088D01*
X44601Y-25130D01*
X44827Y-25175D01*
X44936Y-25175D01*
X44937Y-25175D01*
X45161Y-25130D01*
X45162Y-25130D01*
X45262Y-25089D01*
X45389Y-25004D01*
X45389Y-28122D01*
M02*
