G04 (created by PCBNEW (2013-07-07 BZR 4022)-stable) date 1/3/2015 10:08:49 AM*
%MOIN*%
G04 Gerber Fmt 3.4, Leading zero omitted, Abs format*
%FSLAX34Y34*%
G01*
G70*
G90*
G04 APERTURE LIST*
%ADD10C,0.00393701*%
%ADD11C,0.011811*%
%ADD12C,0.00787402*%
%ADD13C,0.00492126*%
%ADD14C,0.00590551*%
%ADD15C,0.0026*%
%ADD16C,0.008*%
%ADD17C,0.015*%
%ADD18C,0.012*%
%ADD19C,0.019685*%
G04 APERTURE END LIST*
G54D10*
G54D11*
X43405Y-22033D02*
X43377Y-22061D01*
X43293Y-22089D01*
X43236Y-22089D01*
X43152Y-22061D01*
X43096Y-22005D01*
X43068Y-21948D01*
X43039Y-21836D01*
X43039Y-21751D01*
X43068Y-21639D01*
X43096Y-21583D01*
X43152Y-21526D01*
X43236Y-21498D01*
X43293Y-21498D01*
X43377Y-21526D01*
X43405Y-21555D01*
X43967Y-22089D02*
X43630Y-22089D01*
X43799Y-22089D02*
X43799Y-21498D01*
X43742Y-21583D01*
X43686Y-21639D01*
X43630Y-21667D01*
G54D12*
X37795Y-27244D02*
X37500Y-27244D01*
X44724Y-27480D02*
X44803Y-27401D01*
X44724Y-27322D02*
X44724Y-27480D01*
X44803Y-27401D02*
X44724Y-27322D01*
X44488Y-27401D02*
X44803Y-27401D01*
X44724Y-25669D02*
X44803Y-25590D01*
X44724Y-25511D02*
X44724Y-25669D01*
X44803Y-25590D02*
X44724Y-25511D01*
X44488Y-25590D02*
X44803Y-25590D01*
X37716Y-27322D02*
X37795Y-27244D01*
X37716Y-27165D02*
X37716Y-27322D01*
X37795Y-27244D02*
X37716Y-27165D01*
X37500Y-25728D02*
X37795Y-25728D01*
X37795Y-25728D02*
X37696Y-25629D01*
X37696Y-25629D02*
X37696Y-25826D01*
X37696Y-25826D02*
X37795Y-25728D01*
X37696Y-25826D02*
X37795Y-25728D01*
X37696Y-25629D02*
X37696Y-25826D01*
X37795Y-25728D02*
X37696Y-25629D01*
X37500Y-25728D02*
X37795Y-25728D01*
X37500Y-25728D02*
X37795Y-25728D01*
X37795Y-25728D02*
X37696Y-25629D01*
X37696Y-25629D02*
X37696Y-25826D01*
X37696Y-25826D02*
X37795Y-25728D01*
X37696Y-25826D02*
X37795Y-25728D01*
X37696Y-25629D02*
X37696Y-25826D01*
X37795Y-25728D02*
X37696Y-25629D01*
X37500Y-25728D02*
X37795Y-25728D01*
G54D13*
X44567Y-27139D02*
X44567Y-27086D01*
X44577Y-27060D01*
X44595Y-27034D01*
X44633Y-27020D01*
X44699Y-27020D01*
X44736Y-27034D01*
X44755Y-27060D01*
X44764Y-27086D01*
X44764Y-27139D01*
X44755Y-27165D01*
X44736Y-27191D01*
X44699Y-27204D01*
X44633Y-27204D01*
X44595Y-27191D01*
X44577Y-27165D01*
X44567Y-27139D01*
X44567Y-26902D02*
X44727Y-26902D01*
X44745Y-26889D01*
X44755Y-26876D01*
X44764Y-26850D01*
X44764Y-26797D01*
X44755Y-26771D01*
X44745Y-26758D01*
X44727Y-26745D01*
X44567Y-26745D01*
X44567Y-26653D02*
X44567Y-26496D01*
X44764Y-26574D02*
X44567Y-26574D01*
X44764Y-26404D02*
X44567Y-26404D01*
X44567Y-26299D01*
X44577Y-26272D01*
X44586Y-26259D01*
X44605Y-26246D01*
X44633Y-26246D01*
X44652Y-26259D01*
X44661Y-26272D01*
X44670Y-26299D01*
X44670Y-26404D01*
X44567Y-26128D02*
X44727Y-26128D01*
X44745Y-26115D01*
X44755Y-26102D01*
X44764Y-26076D01*
X44764Y-26023D01*
X44755Y-25997D01*
X44745Y-25984D01*
X44727Y-25971D01*
X44567Y-25971D01*
X44567Y-25879D02*
X44567Y-25721D01*
X44764Y-25800D02*
X44567Y-25800D01*
X37518Y-25944D02*
X37715Y-25944D01*
X37518Y-26076D02*
X37715Y-26076D01*
X37518Y-26233D01*
X37715Y-26233D01*
X37518Y-26364D02*
X37715Y-26364D01*
X37715Y-26469D01*
X37706Y-26496D01*
X37696Y-26509D01*
X37678Y-26522D01*
X37649Y-26522D01*
X37631Y-26509D01*
X37621Y-26496D01*
X37612Y-26469D01*
X37612Y-26364D01*
X37715Y-26640D02*
X37556Y-26640D01*
X37537Y-26653D01*
X37528Y-26666D01*
X37518Y-26692D01*
X37518Y-26745D01*
X37528Y-26771D01*
X37537Y-26784D01*
X37556Y-26797D01*
X37715Y-26797D01*
X37715Y-26889D02*
X37715Y-27047D01*
X37518Y-26968D02*
X37715Y-26968D01*
X38109Y-24612D02*
X37912Y-24704D01*
X38109Y-24796D01*
X37987Y-24888D02*
X37987Y-25098D01*
X37912Y-24993D02*
X38062Y-24993D01*
X37912Y-25439D02*
X38109Y-25439D01*
X38109Y-25505D01*
X38099Y-25544D01*
X38081Y-25570D01*
X38062Y-25583D01*
X38024Y-25597D01*
X37996Y-25597D01*
X37959Y-25583D01*
X37940Y-25570D01*
X37921Y-25544D01*
X37912Y-25505D01*
X37912Y-25439D01*
X37968Y-25702D02*
X37968Y-25833D01*
X37912Y-25675D02*
X38109Y-25767D01*
X37912Y-25859D01*
X38109Y-25912D02*
X38109Y-26069D01*
X37912Y-25990D02*
X38109Y-25990D01*
X37968Y-26148D02*
X37968Y-26279D01*
X37912Y-26122D02*
X38109Y-26213D01*
X37912Y-26305D01*
X37931Y-26765D02*
X37921Y-26751D01*
X37912Y-26712D01*
X37912Y-26686D01*
X37921Y-26646D01*
X37940Y-26620D01*
X37959Y-26607D01*
X37996Y-26594D01*
X38024Y-26594D01*
X38062Y-26607D01*
X38081Y-26620D01*
X38099Y-26646D01*
X38109Y-26686D01*
X38109Y-26712D01*
X38099Y-26751D01*
X38090Y-26765D01*
X37912Y-27014D02*
X37912Y-26883D01*
X38109Y-26883D01*
X37912Y-27106D02*
X38109Y-27106D01*
X37912Y-27263D02*
X38024Y-27145D01*
X38109Y-27263D02*
X37996Y-27106D01*
X38099Y-27736D02*
X38109Y-27709D01*
X38109Y-27670D01*
X38099Y-27631D01*
X38081Y-27604D01*
X38062Y-27591D01*
X38024Y-27578D01*
X37996Y-27578D01*
X37959Y-27591D01*
X37940Y-27604D01*
X37921Y-27631D01*
X37912Y-27670D01*
X37912Y-27696D01*
X37921Y-27736D01*
X37931Y-27749D01*
X37996Y-27749D01*
X37996Y-27696D01*
X37912Y-27867D02*
X38109Y-27867D01*
X37912Y-28024D01*
X38109Y-28024D01*
X37912Y-28156D02*
X38109Y-28156D01*
X38109Y-28221D01*
X38099Y-28261D01*
X38081Y-28287D01*
X38062Y-28300D01*
X38024Y-28313D01*
X37996Y-28313D01*
X37959Y-28300D01*
X37940Y-28287D01*
X37921Y-28261D01*
X37912Y-28221D01*
X37912Y-28156D01*
X44183Y-28156D02*
X44174Y-28182D01*
X44174Y-28221D01*
X44183Y-28261D01*
X44202Y-28287D01*
X44221Y-28300D01*
X44258Y-28313D01*
X44286Y-28313D01*
X44324Y-28300D01*
X44342Y-28287D01*
X44361Y-28261D01*
X44371Y-28221D01*
X44371Y-28195D01*
X44361Y-28156D01*
X44352Y-28143D01*
X44286Y-28143D01*
X44286Y-28195D01*
X44371Y-28024D02*
X44174Y-28024D01*
X44371Y-27867D01*
X44174Y-27867D01*
X44371Y-27736D02*
X44174Y-27736D01*
X44174Y-27670D01*
X44183Y-27631D01*
X44202Y-27604D01*
X44221Y-27591D01*
X44258Y-27578D01*
X44286Y-27578D01*
X44324Y-27591D01*
X44342Y-27604D01*
X44361Y-27631D01*
X44371Y-27670D01*
X44371Y-27736D01*
X44352Y-27093D02*
X44361Y-27106D01*
X44371Y-27145D01*
X44371Y-27171D01*
X44361Y-27211D01*
X44342Y-27237D01*
X44324Y-27250D01*
X44286Y-27263D01*
X44258Y-27263D01*
X44221Y-27250D01*
X44202Y-27237D01*
X44183Y-27211D01*
X44174Y-27171D01*
X44174Y-27145D01*
X44183Y-27106D01*
X44192Y-27093D01*
X44371Y-26843D02*
X44371Y-26975D01*
X44174Y-26975D01*
X44371Y-26751D02*
X44174Y-26751D01*
X44371Y-26594D02*
X44258Y-26712D01*
X44174Y-26594D02*
X44286Y-26751D01*
X44371Y-26266D02*
X44174Y-26266D01*
X44174Y-26200D01*
X44183Y-26161D01*
X44202Y-26135D01*
X44221Y-26122D01*
X44258Y-26108D01*
X44286Y-26108D01*
X44324Y-26122D01*
X44342Y-26135D01*
X44361Y-26161D01*
X44371Y-26200D01*
X44371Y-26266D01*
X44314Y-26003D02*
X44314Y-25872D01*
X44371Y-26030D02*
X44174Y-25938D01*
X44371Y-25846D01*
X44174Y-25793D02*
X44174Y-25636D01*
X44371Y-25715D02*
X44174Y-25715D01*
X44314Y-25557D02*
X44314Y-25426D01*
X44371Y-25583D02*
X44174Y-25492D01*
X44371Y-25400D01*
X44174Y-25137D02*
X44371Y-25045D01*
X44174Y-24954D01*
X44296Y-24862D02*
X44296Y-24652D01*
X44371Y-24757D02*
X44221Y-24757D01*
G54D14*
X43996Y-24311D02*
X41240Y-24311D01*
X41240Y-24311D02*
X41240Y-28641D01*
X41240Y-28641D02*
X43996Y-28641D01*
X43996Y-28641D02*
X43996Y-24311D01*
G54D15*
X42518Y-27876D02*
X42518Y-28076D01*
X42518Y-28076D02*
X42718Y-28076D01*
X42718Y-27876D02*
X42718Y-28076D01*
X42518Y-27876D02*
X42718Y-27876D01*
X42518Y-26876D02*
X42518Y-27076D01*
X42518Y-27076D02*
X42718Y-27076D01*
X42718Y-26876D02*
X42718Y-27076D01*
X42518Y-26876D02*
X42718Y-26876D01*
X42518Y-25876D02*
X42518Y-26076D01*
X42518Y-26076D02*
X42718Y-26076D01*
X42718Y-25876D02*
X42718Y-26076D01*
X42518Y-25876D02*
X42718Y-25876D01*
X42518Y-24876D02*
X42518Y-25076D01*
X42518Y-25076D02*
X42718Y-25076D01*
X42718Y-24876D02*
X42718Y-25076D01*
X42518Y-24876D02*
X42718Y-24876D01*
G54D16*
X43118Y-27726D02*
X43118Y-28226D01*
X43118Y-28226D02*
X42868Y-28476D01*
X42368Y-28476D02*
X42118Y-28226D01*
X42868Y-26476D02*
X43118Y-26726D01*
X43118Y-26726D02*
X43118Y-27226D01*
X43118Y-27226D02*
X42868Y-27476D01*
X42368Y-27476D02*
X42118Y-27226D01*
X42118Y-27226D02*
X42118Y-26726D01*
X42118Y-26726D02*
X42368Y-26476D01*
X43118Y-27726D02*
X42868Y-27476D01*
X42368Y-27476D02*
X42118Y-27726D01*
X42118Y-28226D02*
X42118Y-27726D01*
X43118Y-24726D02*
X43118Y-25226D01*
X43118Y-25226D02*
X42868Y-25476D01*
X42368Y-25476D02*
X42118Y-25226D01*
X42868Y-25476D02*
X43118Y-25726D01*
X43118Y-25726D02*
X43118Y-26226D01*
X43118Y-26226D02*
X42868Y-26476D01*
X42368Y-26476D02*
X42118Y-26226D01*
X42118Y-26226D02*
X42118Y-25726D01*
X42118Y-25726D02*
X42368Y-25476D01*
X42868Y-24476D02*
X42368Y-24476D01*
X43118Y-24726D02*
X42868Y-24476D01*
X42368Y-24476D02*
X42118Y-24726D01*
X42118Y-25226D02*
X42118Y-24726D01*
X42868Y-28476D02*
X42368Y-28476D01*
G54D14*
X41043Y-24311D02*
X38287Y-24311D01*
X38287Y-24311D02*
X38287Y-28641D01*
X38287Y-28641D02*
X41043Y-28641D01*
X41043Y-28641D02*
X41043Y-24311D01*
G54D15*
X39565Y-27876D02*
X39565Y-28076D01*
X39565Y-28076D02*
X39765Y-28076D01*
X39765Y-27876D02*
X39765Y-28076D01*
X39565Y-27876D02*
X39765Y-27876D01*
X39565Y-26876D02*
X39565Y-27076D01*
X39565Y-27076D02*
X39765Y-27076D01*
X39765Y-26876D02*
X39765Y-27076D01*
X39565Y-26876D02*
X39765Y-26876D01*
X39565Y-25876D02*
X39565Y-26076D01*
X39565Y-26076D02*
X39765Y-26076D01*
X39765Y-25876D02*
X39765Y-26076D01*
X39565Y-25876D02*
X39765Y-25876D01*
X39565Y-24876D02*
X39565Y-25076D01*
X39565Y-25076D02*
X39765Y-25076D01*
X39765Y-24876D02*
X39765Y-25076D01*
X39565Y-24876D02*
X39765Y-24876D01*
G54D16*
X40165Y-27726D02*
X40165Y-28226D01*
X40165Y-28226D02*
X39915Y-28476D01*
X39415Y-28476D02*
X39165Y-28226D01*
X39915Y-26476D02*
X40165Y-26726D01*
X40165Y-26726D02*
X40165Y-27226D01*
X40165Y-27226D02*
X39915Y-27476D01*
X39415Y-27476D02*
X39165Y-27226D01*
X39165Y-27226D02*
X39165Y-26726D01*
X39165Y-26726D02*
X39415Y-26476D01*
X40165Y-27726D02*
X39915Y-27476D01*
X39415Y-27476D02*
X39165Y-27726D01*
X39165Y-28226D02*
X39165Y-27726D01*
X40165Y-24726D02*
X40165Y-25226D01*
X40165Y-25226D02*
X39915Y-25476D01*
X39415Y-25476D02*
X39165Y-25226D01*
X39915Y-25476D02*
X40165Y-25726D01*
X40165Y-25726D02*
X40165Y-26226D01*
X40165Y-26226D02*
X39915Y-26476D01*
X39415Y-26476D02*
X39165Y-26226D01*
X39165Y-26226D02*
X39165Y-25726D01*
X39165Y-25726D02*
X39415Y-25476D01*
X39915Y-24476D02*
X39415Y-24476D01*
X40165Y-24726D02*
X39915Y-24476D01*
X39415Y-24476D02*
X39165Y-24726D01*
X39165Y-25226D02*
X39165Y-24726D01*
X39915Y-28476D02*
X39415Y-28476D01*
G54D17*
X41240Y-19802D02*
X37696Y-19802D01*
X37696Y-19802D02*
X37696Y-23622D01*
X37696Y-23622D02*
X41240Y-23622D01*
X41240Y-23622D02*
X41240Y-19802D01*
G54D18*
X42440Y-20078D02*
X44566Y-20078D01*
X44409Y-20000D02*
X42598Y-20000D01*
X44251Y-19921D02*
X42755Y-19921D01*
X42992Y-19842D02*
X44015Y-19842D01*
X45590Y-21850D02*
G75*
G03X45590Y-21850I-2086J0D01*
G74*
G01*
G54D19*
X44094Y-20570D02*
X44685Y-20570D01*
M02*
