G04 (created by PCBNEW (2013-07-07 BZR 4022)-stable) date 1/2/2015 7:37:09 AM*
%MOIN*%
G04 Gerber Fmt 3.4, Leading zero omitted, Abs format*
%FSLAX34Y34*%
G01*
G70*
G90*
G04 APERTURE LIST*
%ADD10C,0.00393701*%
%ADD11C,0.074*%
%ADD12C,0.177165*%
%ADD13R,0.0708661X0.0708661*%
%ADD14C,0.0708661*%
%ADD15C,0.01*%
G04 APERTURE END LIST*
G54D10*
G54D11*
X42568Y-25976D03*
X42668Y-26976D03*
X42568Y-27976D03*
X42668Y-24976D03*
X39615Y-25976D03*
X39715Y-26976D03*
X39615Y-27976D03*
X39715Y-24976D03*
G54D12*
X39468Y-23307D03*
X39468Y-20945D03*
X37618Y-22126D03*
G54D13*
X43503Y-22834D03*
G54D14*
X43503Y-20866D03*
G54D15*
X39615Y-25976D02*
X42568Y-25976D01*
X39715Y-26976D02*
X42668Y-26976D01*
G54D10*
G36*
X45389Y-28122D02*
X45361Y-28266D01*
X45294Y-28366D01*
X45196Y-28431D01*
X45051Y-28460D01*
X43326Y-28460D01*
X43326Y-23376D01*
X43326Y-23011D01*
X43326Y-22657D01*
X43326Y-22292D01*
X43264Y-22230D01*
X43100Y-22230D01*
X43008Y-22268D01*
X42937Y-22338D01*
X42899Y-22430D01*
X42899Y-22529D01*
X42899Y-22594D01*
X42962Y-22657D01*
X43326Y-22657D01*
X43326Y-23011D01*
X42962Y-23011D01*
X42899Y-23074D01*
X42899Y-23139D01*
X42899Y-23238D01*
X42937Y-23330D01*
X43008Y-23401D01*
X43100Y-23439D01*
X43264Y-23438D01*
X43326Y-23376D01*
X43326Y-28460D01*
X43299Y-28460D01*
X43299Y-24937D01*
X43265Y-24770D01*
X43179Y-24726D01*
X42929Y-24976D01*
X43179Y-25226D01*
X43265Y-25182D01*
X43299Y-24937D01*
X43299Y-28460D01*
X42960Y-28460D01*
X43093Y-28328D01*
X43188Y-28100D01*
X43188Y-27853D01*
X43094Y-27625D01*
X42984Y-27516D01*
X43018Y-27502D01*
X43193Y-27328D01*
X43288Y-27100D01*
X43288Y-26853D01*
X43194Y-26625D01*
X43019Y-26451D01*
X42984Y-26436D01*
X43093Y-26328D01*
X43188Y-26100D01*
X43188Y-25853D01*
X43094Y-25625D01*
X42919Y-25451D01*
X42918Y-25450D01*
X42918Y-24464D01*
X42873Y-24378D01*
X42728Y-24358D01*
X42726Y-24360D01*
X42721Y-24357D01*
X42710Y-24356D01*
X42709Y-24356D01*
X42709Y-24356D01*
X42709Y-24356D01*
X42687Y-24356D01*
X42709Y-24356D01*
X42709Y-24356D01*
X42668Y-24356D01*
X42618Y-24356D01*
X42609Y-24360D01*
X42605Y-24356D01*
X42648Y-24356D01*
X42618Y-24356D01*
X42668Y-24356D01*
X42709Y-24356D01*
X42629Y-24345D01*
X42462Y-24378D01*
X42417Y-24464D01*
X42445Y-24491D01*
X42418Y-24556D01*
X42418Y-24728D01*
X42480Y-24791D01*
X42668Y-24791D01*
X42855Y-24791D01*
X42918Y-24728D01*
X42918Y-24556D01*
X42891Y-24491D01*
X42918Y-24464D01*
X42918Y-25450D01*
X42913Y-25448D01*
X42913Y-25407D01*
X42918Y-25395D01*
X42918Y-25223D01*
X42855Y-25161D01*
X42668Y-25161D01*
X42480Y-25161D01*
X42418Y-25223D01*
X42418Y-25367D01*
X42406Y-25372D01*
X42406Y-24976D01*
X42156Y-24726D01*
X42070Y-24770D01*
X42037Y-25015D01*
X42070Y-25182D01*
X42156Y-25226D01*
X42406Y-24976D01*
X42406Y-25372D01*
X42217Y-25450D01*
X42042Y-25624D01*
X42021Y-25676D01*
X40626Y-25676D01*
X40626Y-23332D01*
X40548Y-22887D01*
X40528Y-22840D01*
X40396Y-22725D01*
X40050Y-23072D01*
X39815Y-23307D01*
X40396Y-23888D01*
X40528Y-23773D01*
X40626Y-23332D01*
X40626Y-25676D01*
X40162Y-25676D01*
X40141Y-25625D01*
X40032Y-25516D01*
X40066Y-25502D01*
X40240Y-25328D01*
X40335Y-25100D01*
X40335Y-24853D01*
X40241Y-24625D01*
X40067Y-24451D01*
X39899Y-24381D01*
X39935Y-24366D01*
X40050Y-24235D01*
X39468Y-23654D01*
X38886Y-24235D01*
X39001Y-24366D01*
X39369Y-24448D01*
X39364Y-24450D01*
X39190Y-24624D01*
X39095Y-24852D01*
X39095Y-25099D01*
X39189Y-25327D01*
X39298Y-25436D01*
X39264Y-25450D01*
X39090Y-25624D01*
X38995Y-25852D01*
X38995Y-26099D01*
X39089Y-26327D01*
X39263Y-26501D01*
X39298Y-26516D01*
X39190Y-26624D01*
X39095Y-26852D01*
X39095Y-27099D01*
X39189Y-27327D01*
X39298Y-27436D01*
X39264Y-27450D01*
X39090Y-27624D01*
X38995Y-27852D01*
X38995Y-28099D01*
X39089Y-28327D01*
X39222Y-28460D01*
X37231Y-28460D01*
X37163Y-28446D01*
X36893Y-28079D01*
X36893Y-25004D01*
X37019Y-25088D01*
X37020Y-25088D01*
X37120Y-25130D01*
X37346Y-25175D01*
X37455Y-25175D01*
X37456Y-25175D01*
X37680Y-25130D01*
X37681Y-25130D01*
X37782Y-25089D01*
X37974Y-24961D01*
X38051Y-24884D01*
X38051Y-24883D01*
X38178Y-24693D01*
X38179Y-24692D01*
X38221Y-24591D01*
X38266Y-24365D01*
X38266Y-24365D01*
X38266Y-24365D01*
X38266Y-24311D01*
X38266Y-24256D01*
X38266Y-24256D01*
X38266Y-24256D01*
X38221Y-24030D01*
X38179Y-23929D01*
X38178Y-23928D01*
X38051Y-23738D01*
X38051Y-23737D01*
X37974Y-23660D01*
X37782Y-23532D01*
X37681Y-23491D01*
X37680Y-23491D01*
X37456Y-23446D01*
X37455Y-23446D01*
X37346Y-23446D01*
X37120Y-23491D01*
X37020Y-23533D01*
X37019Y-23533D01*
X36893Y-23617D01*
X36893Y-23425D01*
X36893Y-23007D01*
X36974Y-23088D01*
X37391Y-23261D01*
X37843Y-23262D01*
X38261Y-23089D01*
X38379Y-22971D01*
X38310Y-23281D01*
X38389Y-23726D01*
X38408Y-23773D01*
X38540Y-23888D01*
X39121Y-23307D01*
X39116Y-23301D01*
X39462Y-22954D01*
X39468Y-22960D01*
X40050Y-22378D01*
X39935Y-22247D01*
X39494Y-22149D01*
X39049Y-22227D01*
X39001Y-22247D01*
X38886Y-22378D01*
X38823Y-22315D01*
X38731Y-22407D01*
X38754Y-22353D01*
X38754Y-21901D01*
X38709Y-21792D01*
X38824Y-21907D01*
X39241Y-22080D01*
X39693Y-22081D01*
X40111Y-21908D01*
X40430Y-21589D01*
X40604Y-21172D01*
X40604Y-20720D01*
X40431Y-20302D01*
X40112Y-19982D01*
X40068Y-19964D01*
X43476Y-19964D01*
X44224Y-20114D01*
X44834Y-20522D01*
X45138Y-20976D01*
X45271Y-21283D01*
X45389Y-21874D01*
X45389Y-23425D01*
X45389Y-23617D01*
X45262Y-23532D01*
X45162Y-23491D01*
X45161Y-23491D01*
X44937Y-23446D01*
X44936Y-23446D01*
X44827Y-23446D01*
X44601Y-23491D01*
X44500Y-23533D01*
X44499Y-23533D01*
X44309Y-23660D01*
X44308Y-23661D01*
X44231Y-23738D01*
X44108Y-23922D01*
X44108Y-20746D01*
X44016Y-20524D01*
X43846Y-20354D01*
X43624Y-20261D01*
X43384Y-20261D01*
X43162Y-20353D01*
X42991Y-20523D01*
X42899Y-20745D01*
X42899Y-20985D01*
X42991Y-21208D01*
X43161Y-21378D01*
X43383Y-21470D01*
X43623Y-21470D01*
X43845Y-21378D01*
X44015Y-21208D01*
X44108Y-20986D01*
X44108Y-20746D01*
X44108Y-23922D01*
X44108Y-23923D01*
X44108Y-23139D01*
X44108Y-22529D01*
X44108Y-22430D01*
X44070Y-22338D01*
X43999Y-22268D01*
X43907Y-22230D01*
X43743Y-22230D01*
X43681Y-22292D01*
X43681Y-22657D01*
X44045Y-22657D01*
X44108Y-22594D01*
X44108Y-22529D01*
X44108Y-23139D01*
X44108Y-23074D01*
X44045Y-23011D01*
X43681Y-23011D01*
X43681Y-23376D01*
X43743Y-23438D01*
X43907Y-23439D01*
X43999Y-23401D01*
X44070Y-23330D01*
X44108Y-23238D01*
X44108Y-23139D01*
X44108Y-23923D01*
X44103Y-23929D01*
X44062Y-24030D01*
X44062Y-24031D01*
X44017Y-24256D01*
X44017Y-24256D01*
X44017Y-24256D01*
X44017Y-24311D01*
X44017Y-24365D01*
X44017Y-24365D01*
X44017Y-24365D01*
X44062Y-24590D01*
X44062Y-24591D01*
X44103Y-24692D01*
X44231Y-24883D01*
X44308Y-24961D01*
X44309Y-24961D01*
X44499Y-25088D01*
X44500Y-25088D01*
X44601Y-25130D01*
X44827Y-25175D01*
X44936Y-25175D01*
X44937Y-25175D01*
X45161Y-25130D01*
X45162Y-25130D01*
X45262Y-25089D01*
X45389Y-25004D01*
X45389Y-28122D01*
X45389Y-28122D01*
G37*
G54D15*
X45389Y-28122D02*
X45361Y-28266D01*
X45294Y-28366D01*
X45196Y-28431D01*
X45051Y-28460D01*
X43326Y-28460D01*
X43326Y-23376D01*
X43326Y-23011D01*
X43326Y-22657D01*
X43326Y-22292D01*
X43264Y-22230D01*
X43100Y-22230D01*
X43008Y-22268D01*
X42937Y-22338D01*
X42899Y-22430D01*
X42899Y-22529D01*
X42899Y-22594D01*
X42962Y-22657D01*
X43326Y-22657D01*
X43326Y-23011D01*
X42962Y-23011D01*
X42899Y-23074D01*
X42899Y-23139D01*
X42899Y-23238D01*
X42937Y-23330D01*
X43008Y-23401D01*
X43100Y-23439D01*
X43264Y-23438D01*
X43326Y-23376D01*
X43326Y-28460D01*
X43299Y-28460D01*
X43299Y-24937D01*
X43265Y-24770D01*
X43179Y-24726D01*
X42929Y-24976D01*
X43179Y-25226D01*
X43265Y-25182D01*
X43299Y-24937D01*
X43299Y-28460D01*
X42960Y-28460D01*
X43093Y-28328D01*
X43188Y-28100D01*
X43188Y-27853D01*
X43094Y-27625D01*
X42984Y-27516D01*
X43018Y-27502D01*
X43193Y-27328D01*
X43288Y-27100D01*
X43288Y-26853D01*
X43194Y-26625D01*
X43019Y-26451D01*
X42984Y-26436D01*
X43093Y-26328D01*
X43188Y-26100D01*
X43188Y-25853D01*
X43094Y-25625D01*
X42919Y-25451D01*
X42918Y-25450D01*
X42918Y-24464D01*
X42873Y-24378D01*
X42728Y-24358D01*
X42726Y-24360D01*
X42721Y-24357D01*
X42710Y-24356D01*
X42709Y-24356D01*
X42709Y-24356D01*
X42709Y-24356D01*
X42687Y-24356D01*
X42709Y-24356D01*
X42709Y-24356D01*
X42668Y-24356D01*
X42618Y-24356D01*
X42609Y-24360D01*
X42605Y-24356D01*
X42648Y-24356D01*
X42618Y-24356D01*
X42668Y-24356D01*
X42709Y-24356D01*
X42629Y-24345D01*
X42462Y-24378D01*
X42417Y-24464D01*
X42445Y-24491D01*
X42418Y-24556D01*
X42418Y-24728D01*
X42480Y-24791D01*
X42668Y-24791D01*
X42855Y-24791D01*
X42918Y-24728D01*
X42918Y-24556D01*
X42891Y-24491D01*
X42918Y-24464D01*
X42918Y-25450D01*
X42913Y-25448D01*
X42913Y-25407D01*
X42918Y-25395D01*
X42918Y-25223D01*
X42855Y-25161D01*
X42668Y-25161D01*
X42480Y-25161D01*
X42418Y-25223D01*
X42418Y-25367D01*
X42406Y-25372D01*
X42406Y-24976D01*
X42156Y-24726D01*
X42070Y-24770D01*
X42037Y-25015D01*
X42070Y-25182D01*
X42156Y-25226D01*
X42406Y-24976D01*
X42406Y-25372D01*
X42217Y-25450D01*
X42042Y-25624D01*
X42021Y-25676D01*
X40626Y-25676D01*
X40626Y-23332D01*
X40548Y-22887D01*
X40528Y-22840D01*
X40396Y-22725D01*
X40050Y-23072D01*
X39815Y-23307D01*
X40396Y-23888D01*
X40528Y-23773D01*
X40626Y-23332D01*
X40626Y-25676D01*
X40162Y-25676D01*
X40141Y-25625D01*
X40032Y-25516D01*
X40066Y-25502D01*
X40240Y-25328D01*
X40335Y-25100D01*
X40335Y-24853D01*
X40241Y-24625D01*
X40067Y-24451D01*
X39899Y-24381D01*
X39935Y-24366D01*
X40050Y-24235D01*
X39468Y-23654D01*
X38886Y-24235D01*
X39001Y-24366D01*
X39369Y-24448D01*
X39364Y-24450D01*
X39190Y-24624D01*
X39095Y-24852D01*
X39095Y-25099D01*
X39189Y-25327D01*
X39298Y-25436D01*
X39264Y-25450D01*
X39090Y-25624D01*
X38995Y-25852D01*
X38995Y-26099D01*
X39089Y-26327D01*
X39263Y-26501D01*
X39298Y-26516D01*
X39190Y-26624D01*
X39095Y-26852D01*
X39095Y-27099D01*
X39189Y-27327D01*
X39298Y-27436D01*
X39264Y-27450D01*
X39090Y-27624D01*
X38995Y-27852D01*
X38995Y-28099D01*
X39089Y-28327D01*
X39222Y-28460D01*
X37231Y-28460D01*
X37163Y-28446D01*
X36893Y-28079D01*
X36893Y-25004D01*
X37019Y-25088D01*
X37020Y-25088D01*
X37120Y-25130D01*
X37346Y-25175D01*
X37455Y-25175D01*
X37456Y-25175D01*
X37680Y-25130D01*
X37681Y-25130D01*
X37782Y-25089D01*
X37974Y-24961D01*
X38051Y-24884D01*
X38051Y-24883D01*
X38178Y-24693D01*
X38179Y-24692D01*
X38221Y-24591D01*
X38266Y-24365D01*
X38266Y-24365D01*
X38266Y-24365D01*
X38266Y-24311D01*
X38266Y-24256D01*
X38266Y-24256D01*
X38266Y-24256D01*
X38221Y-24030D01*
X38179Y-23929D01*
X38178Y-23928D01*
X38051Y-23738D01*
X38051Y-23737D01*
X37974Y-23660D01*
X37782Y-23532D01*
X37681Y-23491D01*
X37680Y-23491D01*
X37456Y-23446D01*
X37455Y-23446D01*
X37346Y-23446D01*
X37120Y-23491D01*
X37020Y-23533D01*
X37019Y-23533D01*
X36893Y-23617D01*
X36893Y-23425D01*
X36893Y-23007D01*
X36974Y-23088D01*
X37391Y-23261D01*
X37843Y-23262D01*
X38261Y-23089D01*
X38379Y-22971D01*
X38310Y-23281D01*
X38389Y-23726D01*
X38408Y-23773D01*
X38540Y-23888D01*
X39121Y-23307D01*
X39116Y-23301D01*
X39462Y-22954D01*
X39468Y-22960D01*
X40050Y-22378D01*
X39935Y-22247D01*
X39494Y-22149D01*
X39049Y-22227D01*
X39001Y-22247D01*
X38886Y-22378D01*
X38823Y-22315D01*
X38731Y-22407D01*
X38754Y-22353D01*
X38754Y-21901D01*
X38709Y-21792D01*
X38824Y-21907D01*
X39241Y-22080D01*
X39693Y-22081D01*
X40111Y-21908D01*
X40430Y-21589D01*
X40604Y-21172D01*
X40604Y-20720D01*
X40431Y-20302D01*
X40112Y-19982D01*
X40068Y-19964D01*
X43476Y-19964D01*
X44224Y-20114D01*
X44834Y-20522D01*
X45138Y-20976D01*
X45271Y-21283D01*
X45389Y-21874D01*
X45389Y-23425D01*
X45389Y-23617D01*
X45262Y-23532D01*
X45162Y-23491D01*
X45161Y-23491D01*
X44937Y-23446D01*
X44936Y-23446D01*
X44827Y-23446D01*
X44601Y-23491D01*
X44500Y-23533D01*
X44499Y-23533D01*
X44309Y-23660D01*
X44308Y-23661D01*
X44231Y-23738D01*
X44108Y-23922D01*
X44108Y-20746D01*
X44016Y-20524D01*
X43846Y-20354D01*
X43624Y-20261D01*
X43384Y-20261D01*
X43162Y-20353D01*
X42991Y-20523D01*
X42899Y-20745D01*
X42899Y-20985D01*
X42991Y-21208D01*
X43161Y-21378D01*
X43383Y-21470D01*
X43623Y-21470D01*
X43845Y-21378D01*
X44015Y-21208D01*
X44108Y-20986D01*
X44108Y-20746D01*
X44108Y-23922D01*
X44108Y-23923D01*
X44108Y-23139D01*
X44108Y-22529D01*
X44108Y-22430D01*
X44070Y-22338D01*
X43999Y-22268D01*
X43907Y-22230D01*
X43743Y-22230D01*
X43681Y-22292D01*
X43681Y-22657D01*
X44045Y-22657D01*
X44108Y-22594D01*
X44108Y-22529D01*
X44108Y-23139D01*
X44108Y-23074D01*
X44045Y-23011D01*
X43681Y-23011D01*
X43681Y-23376D01*
X43743Y-23438D01*
X43907Y-23439D01*
X43999Y-23401D01*
X44070Y-23330D01*
X44108Y-23238D01*
X44108Y-23139D01*
X44108Y-23923D01*
X44103Y-23929D01*
X44062Y-24030D01*
X44062Y-24031D01*
X44017Y-24256D01*
X44017Y-24256D01*
X44017Y-24256D01*
X44017Y-24311D01*
X44017Y-24365D01*
X44017Y-24365D01*
X44017Y-24365D01*
X44062Y-24590D01*
X44062Y-24591D01*
X44103Y-24692D01*
X44231Y-24883D01*
X44308Y-24961D01*
X44309Y-24961D01*
X44499Y-25088D01*
X44500Y-25088D01*
X44601Y-25130D01*
X44827Y-25175D01*
X44936Y-25175D01*
X44937Y-25175D01*
X45161Y-25130D01*
X45162Y-25130D01*
X45262Y-25089D01*
X45389Y-25004D01*
X45389Y-28122D01*
M02*
