G04 (created by PCBNEW (2013-07-07 BZR 4022)-stable) date 4/25/2015 1:29:16 AM*
%MOIN*%
G04 Gerber Fmt 3.4, Leading zero omitted, Abs format*
%FSLAX34Y34*%
G01*
G70*
G90*
G04 APERTURE LIST*
%ADD10C,0.00590551*%
%ADD11R,0.0413X0.0157*%
%ADD12R,0.0433X0.059*%
%ADD13R,0.036X0.036*%
%ADD14R,0.038X0.05*%
%ADD15R,0.0371X0.0194*%
%ADD16R,0.0194X0.0371*%
%ADD17R,0.1336X0.1336*%
%ADD18R,0.063X0.071*%
%ADD19R,0.0314X0.0314*%
%ADD20R,0.0275X0.0315*%
%ADD21R,0.0315X0.0275*%
%ADD22R,0.0723291X0.0998882*%
%ADD23C,0.074*%
G04 APERTURE END LIST*
G54D10*
G54D11*
X44600Y-15889D03*
X44600Y-16145D03*
X44600Y-16400D03*
X44600Y-16655D03*
X44600Y-16911D03*
G54D12*
X43419Y-17974D03*
X43419Y-14826D03*
G54D13*
X46400Y-15525D03*
X46400Y-16225D03*
X45600Y-15875D03*
G54D14*
X50760Y-14515D03*
X52050Y-14515D03*
G54D15*
X50275Y-18180D03*
X50275Y-17924D03*
X50275Y-17412D03*
X50275Y-17156D03*
X50275Y-16900D03*
X50275Y-16644D03*
G54D16*
X49468Y-15325D03*
X49212Y-15325D03*
X48956Y-15325D03*
X48700Y-15325D03*
X48444Y-15325D03*
X48188Y-15325D03*
X47932Y-15325D03*
G54D15*
X50275Y-17668D03*
G54D17*
X49340Y-16260D03*
X49340Y-17540D03*
X48060Y-17540D03*
X48060Y-16260D03*
G54D15*
X47125Y-16132D03*
X47125Y-16388D03*
X47125Y-16644D03*
X47125Y-16900D03*
X47125Y-17156D03*
X47125Y-17412D03*
X47125Y-17668D03*
G54D16*
X47932Y-18475D03*
X48188Y-18475D03*
X48444Y-18475D03*
X48700Y-18475D03*
X48956Y-18475D03*
X49212Y-18475D03*
X49468Y-18475D03*
G54D15*
X50275Y-16388D03*
X50275Y-16132D03*
X50275Y-15876D03*
X50275Y-15620D03*
G54D16*
X49980Y-15325D03*
X49724Y-15325D03*
X47676Y-15325D03*
X47420Y-15325D03*
G54D15*
X47125Y-15620D03*
X47125Y-15876D03*
X47125Y-17924D03*
X47125Y-18180D03*
G54D16*
X47420Y-18475D03*
X47676Y-18475D03*
X49724Y-18475D03*
X49980Y-18475D03*
G54D18*
X44475Y-14350D03*
X45575Y-14350D03*
G54D19*
X46225Y-17770D03*
X46225Y-17180D03*
G54D20*
X46675Y-16884D03*
X46675Y-17316D03*
G54D21*
X51184Y-16825D03*
X51616Y-16825D03*
X51184Y-16350D03*
X51616Y-16350D03*
X51184Y-15950D03*
X51616Y-15950D03*
G54D20*
X46675Y-18216D03*
X46675Y-17784D03*
G54D21*
X51184Y-15300D03*
X51616Y-15300D03*
G54D20*
X46600Y-14566D03*
X46600Y-14134D03*
X49300Y-14134D03*
X49300Y-14566D03*
G54D21*
X51616Y-17325D03*
X51184Y-17325D03*
X45784Y-18225D03*
X46216Y-18225D03*
X51184Y-17850D03*
X51616Y-17850D03*
X51184Y-18350D03*
X51616Y-18350D03*
G54D22*
X47221Y-14450D03*
X48678Y-14450D03*
G54D23*
X53850Y-15900D03*
X53950Y-16900D03*
X53850Y-17900D03*
X53950Y-14900D03*
M02*
