G04 (created by PCBNEW (2013-07-07 BZR 4022)-stable) date 4/25/2015 1:29:16 AM*
%MOIN*%
G04 Gerber Fmt 3.4, Leading zero omitted, Abs format*
%FSLAX34Y34*%
G01*
G70*
G90*
G04 APERTURE LIST*
%ADD10C,0.00590551*%
%ADD11C,0.05*%
%ADD12C,0.074*%
%ADD13C,0.0275591*%
%ADD14C,0.00629921*%
%ADD15C,0.019685*%
G04 APERTURE END LIST*
G54D10*
G54D11*
X52850Y-15900D03*
X52850Y-16900D03*
G54D12*
X53850Y-15900D03*
X53950Y-16900D03*
X53850Y-17900D03*
X53950Y-14900D03*
G54D13*
X45075Y-16925D03*
X46225Y-18625D03*
X46225Y-16750D03*
X52300Y-15625D03*
X50750Y-15325D03*
X45675Y-15325D03*
X51975Y-16825D03*
X50575Y-18475D03*
X45800Y-17800D03*
X46725Y-15875D03*
X45350Y-15075D03*
X46150Y-14350D03*
X50125Y-14350D03*
G54D14*
X45250Y-18625D02*
X46225Y-18625D01*
X45125Y-18500D02*
X45250Y-18625D01*
X45125Y-16975D02*
X45125Y-18500D01*
X45075Y-16925D02*
X45125Y-16975D01*
X46225Y-16750D02*
X46225Y-18625D01*
X52575Y-15900D02*
X52850Y-15900D01*
X52300Y-15625D02*
X52575Y-15900D01*
X50750Y-15325D02*
X51275Y-15325D01*
X51275Y-15325D02*
X52850Y-16900D01*
X45675Y-15325D02*
X50750Y-15325D01*
X51975Y-16825D02*
X47675Y-16825D01*
X47675Y-16825D02*
X46725Y-15875D01*
X51975Y-17075D02*
X51975Y-16825D01*
X50575Y-18475D02*
X51975Y-17075D01*
X45775Y-17775D02*
X45775Y-16325D01*
X45800Y-17800D02*
X45775Y-17775D01*
X45350Y-16175D02*
X45350Y-15075D01*
X45500Y-16325D02*
X45350Y-16175D01*
X46275Y-16325D02*
X45775Y-16325D01*
X46725Y-15875D02*
X46275Y-16325D01*
X45775Y-16325D02*
X45500Y-16325D01*
G54D15*
X46150Y-14350D02*
X50125Y-14350D01*
M02*
