G04 #@! TF.FileFunction,Paste,Top*
%FSLAX46Y46*%
G04 Gerber Fmt 4.6, Leading zero omitted, Abs format (unit mm)*
G04 Created by KiCad (PCBNEW 4.0.4-stable) date 03/14/17 06:36:14*
%MOMM*%
%LPD*%
G01*
G04 APERTURE LIST*
%ADD10C,0.100000*%
%ADD11R,1.800000X1.200000*%
%ADD12R,0.800000X0.750000*%
%ADD13R,0.750000X0.800000*%
%ADD14R,2.500000X4.000000*%
%ADD15R,1.348740X0.398780*%
%ADD16O,1.597660X0.899160*%
%ADD17R,1.399540X1.597660*%
%ADD18R,1.899920X1.899920*%
%ADD19R,0.797560X0.797560*%
%ADD20R,1.000000X1.600000*%
%ADD21R,0.797560X0.899160*%
%ADD22R,1.699260X2.499360*%
%ADD23R,1.500000X0.550000*%
%ADD24R,0.550000X1.500000*%
%ADD25R,0.700000X0.900000*%
%ADD26R,0.900000X0.700000*%
G04 APERTURE END LIST*
D10*
D11*
X57500000Y-46550000D03*
X53500000Y-46550000D03*
X53500000Y-48950000D03*
X57500000Y-48950000D03*
D12*
X38250000Y-34000000D03*
X39750000Y-34000000D03*
D13*
X51500000Y-48250000D03*
X51500000Y-46750000D03*
D14*
X58000000Y-32000000D03*
X58000000Y-24000000D03*
D13*
X59500000Y-48500000D03*
X59500000Y-47000000D03*
D12*
X33750000Y-43000000D03*
X32250000Y-43000000D03*
D14*
X46250000Y-32000000D03*
X46250000Y-24000000D03*
D15*
X28370000Y-40202060D03*
X28370000Y-40852300D03*
X28370000Y-41500000D03*
X28370000Y-42147700D03*
X28370000Y-42797940D03*
D16*
X25700460Y-38200540D03*
X25700460Y-44799460D03*
D17*
X28370000Y-38302140D03*
X28370000Y-44697860D03*
D18*
X25695380Y-40301120D03*
X25695380Y-42698880D03*
D19*
X54499300Y-35750000D03*
X53000700Y-35750000D03*
D20*
X35750000Y-36500000D03*
X32750000Y-36500000D03*
D21*
X53949960Y-42001780D03*
X52050040Y-42001780D03*
X53000000Y-43998220D03*
D22*
X38500000Y-31498980D03*
X38500000Y-27501020D03*
D23*
X38050000Y-37750000D03*
X38050000Y-38550000D03*
X38050000Y-39350000D03*
X38050000Y-40150000D03*
X38050000Y-40950000D03*
X38050000Y-41750000D03*
X38050000Y-42550000D03*
X38050000Y-43350000D03*
X38050000Y-44150000D03*
X38050000Y-44950000D03*
X38050000Y-45750000D03*
D24*
X39750000Y-47450000D03*
X40550000Y-47450000D03*
X41350000Y-47450000D03*
X42150000Y-47450000D03*
X42950000Y-47450000D03*
X43750000Y-47450000D03*
X44550000Y-47450000D03*
X45350000Y-47450000D03*
X46150000Y-47450000D03*
X46950000Y-47450000D03*
X47750000Y-47450000D03*
D23*
X49450000Y-45750000D03*
X49450000Y-44950000D03*
X49450000Y-44150000D03*
X49450000Y-43350000D03*
X49450000Y-42550000D03*
X49450000Y-41750000D03*
X49450000Y-40950000D03*
X49450000Y-40150000D03*
X49450000Y-39350000D03*
X49450000Y-38550000D03*
X49450000Y-37750000D03*
D24*
X47750000Y-36050000D03*
X46950000Y-36050000D03*
X46150000Y-36050000D03*
X45350000Y-36050000D03*
X44550000Y-36050000D03*
X43750000Y-36050000D03*
X42950000Y-36050000D03*
X42150000Y-36050000D03*
X41350000Y-36050000D03*
X40550000Y-36050000D03*
X39750000Y-36050000D03*
D25*
X54417500Y-39250000D03*
X53082500Y-39250000D03*
D26*
X34500000Y-45917500D03*
X34500000Y-44582500D03*
D25*
X32332500Y-39000000D03*
X33667500Y-39000000D03*
X32332500Y-41000000D03*
X33667500Y-41000000D03*
X54417500Y-37500000D03*
X53082500Y-37500000D03*
D26*
X56500000Y-39832500D03*
X56500000Y-41167500D03*
X56500000Y-43582500D03*
X56500000Y-44917500D03*
X32500000Y-44582500D03*
X32500000Y-45917500D03*
M02*
