G04 #@! TF.FileFunction,Copper,L1,Top,Plane*
%FSLAX46Y46*%
G04 Gerber Fmt 4.6, Leading zero omitted, Abs format (unit mm)*
G04 Created by KiCad (PCBNEW 4.0.4-stable) date 03/14/17 06:36:14*
%MOMM*%
%LPD*%
G01*
G04 APERTURE LIST*
%ADD10C,0.100000*%
%ADD11R,1.800000X1.200000*%
%ADD12R,0.800000X0.750000*%
%ADD13R,0.750000X0.800000*%
%ADD14R,2.500000X4.000000*%
%ADD15R,1.348740X0.398780*%
%ADD16O,1.597660X0.899160*%
%ADD17R,1.399540X1.597660*%
%ADD18R,1.899920X1.899920*%
%ADD19O,1.200000X0.500000*%
%ADD20C,4.500000*%
%ADD21R,0.797560X0.797560*%
%ADD22O,1.998980X1.998980*%
%ADD23R,1.998980X1.998980*%
%ADD24R,1.000000X1.600000*%
%ADD25R,0.797560X0.899160*%
%ADD26R,1.699260X2.499360*%
%ADD27R,1.500000X0.550000*%
%ADD28R,0.550000X1.500000*%
%ADD29R,0.700000X0.900000*%
%ADD30R,0.900000X0.700000*%
%ADD31C,0.600000*%
%ADD32C,0.250000*%
%ADD33C,0.500000*%
%ADD34C,0.254000*%
G04 APERTURE END LIST*
D10*
D11*
X57500000Y-46550000D03*
X53500000Y-46550000D03*
X53500000Y-48950000D03*
X57500000Y-48950000D03*
D12*
X38250000Y-34000000D03*
X39750000Y-34000000D03*
D13*
X51500000Y-48250000D03*
X51500000Y-46750000D03*
D14*
X58000000Y-32000000D03*
X58000000Y-24000000D03*
D13*
X59500000Y-48500000D03*
X59500000Y-47000000D03*
D12*
X33750000Y-43000000D03*
X32250000Y-43000000D03*
D14*
X46250000Y-32000000D03*
X46250000Y-24000000D03*
D15*
X28370000Y-40202060D03*
X28370000Y-40852300D03*
X28370000Y-41500000D03*
X28370000Y-42147700D03*
X28370000Y-42797940D03*
D16*
X25700460Y-38200540D03*
X25700460Y-44799460D03*
D17*
X28370000Y-38302140D03*
X28370000Y-44697860D03*
D18*
X25695380Y-40301120D03*
X25695380Y-42698880D03*
D19*
X25700000Y-38200000D03*
X25700000Y-44800000D03*
D20*
X33950140Y-27750000D03*
X27950660Y-27750000D03*
X30950400Y-32449000D03*
D21*
X54499300Y-35750000D03*
X53000700Y-35750000D03*
D22*
X60750000Y-36130000D03*
D23*
X60750000Y-43750000D03*
D22*
X60750000Y-41210000D03*
X60750000Y-38670000D03*
D24*
X35750000Y-36500000D03*
X32750000Y-36500000D03*
D25*
X53949960Y-42001780D03*
X52050040Y-42001780D03*
X53000000Y-43998220D03*
D26*
X38500000Y-31498980D03*
X38500000Y-27501020D03*
D27*
X38050000Y-37750000D03*
X38050000Y-38550000D03*
X38050000Y-39350000D03*
X38050000Y-40150000D03*
X38050000Y-40950000D03*
X38050000Y-41750000D03*
X38050000Y-42550000D03*
X38050000Y-43350000D03*
X38050000Y-44150000D03*
X38050000Y-44950000D03*
X38050000Y-45750000D03*
D28*
X39750000Y-47450000D03*
X40550000Y-47450000D03*
X41350000Y-47450000D03*
X42150000Y-47450000D03*
X42950000Y-47450000D03*
X43750000Y-47450000D03*
X44550000Y-47450000D03*
X45350000Y-47450000D03*
X46150000Y-47450000D03*
X46950000Y-47450000D03*
X47750000Y-47450000D03*
D27*
X49450000Y-45750000D03*
X49450000Y-44950000D03*
X49450000Y-44150000D03*
X49450000Y-43350000D03*
X49450000Y-42550000D03*
X49450000Y-41750000D03*
X49450000Y-40950000D03*
X49450000Y-40150000D03*
X49450000Y-39350000D03*
X49450000Y-38550000D03*
X49450000Y-37750000D03*
D28*
X47750000Y-36050000D03*
X46950000Y-36050000D03*
X46150000Y-36050000D03*
X45350000Y-36050000D03*
X44550000Y-36050000D03*
X43750000Y-36050000D03*
X42950000Y-36050000D03*
X42150000Y-36050000D03*
X41350000Y-36050000D03*
X40550000Y-36050000D03*
X39750000Y-36050000D03*
D29*
X54417500Y-39250000D03*
X53082500Y-39250000D03*
D30*
X34500000Y-45917500D03*
X34500000Y-44582500D03*
D29*
X32332500Y-39000000D03*
X33667500Y-39000000D03*
X32332500Y-41000000D03*
X33667500Y-41000000D03*
X54417500Y-37500000D03*
X53082500Y-37500000D03*
D30*
X56500000Y-39832500D03*
X56500000Y-41167500D03*
X56500000Y-43582500D03*
X56500000Y-44917500D03*
X32500000Y-44582500D03*
X32500000Y-45917500D03*
D31*
X51750000Y-35750000D03*
X40250000Y-37750000D03*
X46750000Y-37750000D03*
X45750000Y-38500000D03*
X31250000Y-43750000D03*
X39500000Y-41000000D03*
X42250000Y-49000000D03*
X48000000Y-45750000D03*
X52000000Y-43250000D03*
X59750000Y-24000000D03*
X48000000Y-24000000D03*
X55500000Y-48500000D03*
X47750000Y-37750000D03*
X48000000Y-44750000D03*
X46500000Y-46000000D03*
X41250000Y-49000000D03*
X31250000Y-46250000D03*
X34500000Y-36750000D03*
X39500000Y-42500000D03*
X42250000Y-45000000D03*
X48000000Y-42250000D03*
X55250000Y-44250000D03*
X42000000Y-42250000D03*
X55250000Y-42500000D03*
X44750000Y-43250000D03*
X52000000Y-44250000D03*
X39000000Y-49000000D03*
X35900000Y-45100000D03*
X30400000Y-45100000D03*
D32*
X29300000Y-42797940D02*
X28370000Y-42797940D01*
X53000700Y-35750000D02*
X51750000Y-35750000D01*
X40550000Y-37450000D02*
X40250000Y-37750000D01*
X40550000Y-36050000D02*
X40550000Y-37450000D01*
X46950000Y-37550000D02*
X46750000Y-37750000D01*
X46950000Y-36050000D02*
X46950000Y-37550000D01*
X31250000Y-43750000D02*
X32000000Y-43000000D01*
X39450000Y-40950000D02*
X39500000Y-41000000D01*
X38050000Y-40950000D02*
X39450000Y-40950000D01*
X42150000Y-48900000D02*
X42250000Y-49000000D01*
X42150000Y-47450000D02*
X42150000Y-48900000D01*
X49450000Y-45750000D02*
X48000000Y-45750000D01*
X52050040Y-43199960D02*
X52000000Y-43250000D01*
X52050040Y-43199960D02*
X52050040Y-42001780D01*
X32250000Y-43000000D02*
X32000000Y-43000000D01*
X29270000Y-42797940D02*
X29300000Y-42797940D01*
X29300000Y-42797940D02*
X32047940Y-42797940D01*
X32047940Y-42797940D02*
X32250000Y-43000000D01*
X40550000Y-36050000D02*
X40550000Y-34800000D01*
X40550000Y-34800000D02*
X39750000Y-34000000D01*
X53500000Y-46550000D02*
X51700000Y-46550000D01*
X51700000Y-46550000D02*
X51500000Y-46750000D01*
X51500000Y-46750000D02*
X50450000Y-46750000D01*
X50450000Y-46750000D02*
X49450000Y-45750000D01*
X59500000Y-48500000D02*
X57950000Y-48500000D01*
X57950000Y-48500000D02*
X57500000Y-48950000D01*
X57500000Y-48950000D02*
X55950000Y-48950000D01*
X55950000Y-48950000D02*
X55500000Y-48500000D01*
X58000000Y-24000000D02*
X59750000Y-24000000D01*
X46250000Y-24000000D02*
X48000000Y-24000000D01*
X59500000Y-47000000D02*
X57950000Y-47000000D01*
X57950000Y-47000000D02*
X57500000Y-46550000D01*
X43750000Y-47450000D02*
X43750000Y-48750000D01*
X56550000Y-47500000D02*
X57500000Y-46550000D01*
X49750000Y-47500000D02*
X56550000Y-47500000D01*
X48500000Y-48750000D02*
X49750000Y-47500000D01*
X43750000Y-48750000D02*
X48500000Y-48750000D01*
X53500000Y-48950000D02*
X52200000Y-48950000D01*
X52200000Y-48950000D02*
X51500000Y-48250000D01*
X51500000Y-48250000D02*
X49750000Y-48250000D01*
X49750000Y-48250000D02*
X48750000Y-49250000D01*
X48750000Y-49250000D02*
X43500000Y-49250000D01*
X43500000Y-49250000D02*
X42950000Y-48700000D01*
X42950000Y-48700000D02*
X42950000Y-47450000D01*
X47750000Y-37750000D02*
X47750000Y-36050000D01*
X48200000Y-44950000D02*
X48000000Y-44750000D01*
X48200000Y-44950000D02*
X49450000Y-44950000D01*
X41350000Y-48900000D02*
X41250000Y-49000000D01*
X41350000Y-47450000D02*
X41350000Y-48900000D01*
X31500000Y-46000000D02*
X31250000Y-46250000D01*
X32500000Y-46000000D02*
X31500000Y-46000000D01*
X34750000Y-36500000D02*
X34500000Y-36750000D01*
X35750000Y-36500000D02*
X34750000Y-36500000D01*
X39450000Y-42550000D02*
X39500000Y-42500000D01*
X39450000Y-42550000D02*
X38050000Y-42550000D01*
X53000000Y-37500000D02*
X51500000Y-37500000D01*
X51500000Y-37500000D02*
X50050000Y-36050000D01*
X50050000Y-36050000D02*
X47750000Y-36050000D01*
X38050000Y-42550000D02*
X36050000Y-42550000D01*
X36050000Y-42550000D02*
X34500000Y-44100000D01*
X34500000Y-44100000D02*
X34500000Y-44500000D01*
X41350000Y-36050000D02*
X41350000Y-37900000D01*
X40700000Y-38550000D02*
X38050000Y-38550000D01*
X41350000Y-37900000D02*
X40700000Y-38550000D01*
X39750000Y-36050000D02*
X39750000Y-35500000D01*
X39750000Y-35500000D02*
X38250000Y-34000000D01*
X38250000Y-34000000D02*
X35750000Y-36500000D01*
X38050000Y-38550000D02*
X36800000Y-38550000D01*
X35750000Y-37500000D02*
X35750000Y-36500000D01*
X36800000Y-38550000D02*
X35750000Y-37500000D01*
X33750000Y-43000000D02*
X34000000Y-43000000D01*
X34000000Y-43000000D02*
X35250000Y-41750000D01*
X35250000Y-41750000D02*
X38050000Y-41750000D01*
X58000000Y-32000000D02*
X58000000Y-33380000D01*
X58000000Y-33380000D02*
X60750000Y-36130000D01*
X33950140Y-27750000D02*
X38251020Y-27750000D01*
X38251020Y-27750000D02*
X44250000Y-27750000D01*
X44250000Y-27750000D02*
X46250000Y-29750000D01*
X46250000Y-29750000D02*
X46250000Y-32000000D01*
X46250000Y-32000000D02*
X58000000Y-32000000D01*
X28370000Y-40852300D02*
X29270000Y-40852300D01*
X31000000Y-40250000D02*
X31000000Y-40500000D01*
X31000000Y-40500000D02*
X30647700Y-40852300D01*
X30647700Y-40852300D02*
X29270000Y-40852300D01*
X31000000Y-40250000D02*
X32250000Y-39000000D01*
X28370000Y-41500000D02*
X29270000Y-41500000D01*
X31750000Y-41500000D02*
X32250000Y-41000000D01*
X29270000Y-41500000D02*
X31750000Y-41500000D01*
X38050000Y-45750000D02*
X41500000Y-45750000D01*
X41500000Y-45750000D02*
X42250000Y-45000000D01*
X56500000Y-45000000D02*
X56000000Y-45000000D01*
X42000000Y-41500000D02*
X42000000Y-42250000D01*
X42500000Y-41000000D02*
X42000000Y-41500000D01*
X46750000Y-41000000D02*
X42500000Y-41000000D01*
X48000000Y-42250000D02*
X46750000Y-41000000D01*
X56000000Y-45000000D02*
X55250000Y-44250000D01*
X38050000Y-44150000D02*
X40100000Y-44150000D01*
X40100000Y-44150000D02*
X42000000Y-42250000D01*
X56500000Y-41250000D02*
X55250000Y-42500000D01*
X38050000Y-44950000D02*
X40050000Y-44950000D01*
X41750000Y-43250000D02*
X44750000Y-43250000D01*
X40050000Y-44950000D02*
X41750000Y-43250000D01*
X53000000Y-43998220D02*
X52251780Y-43998220D01*
X52251780Y-43998220D02*
X52000000Y-44250000D01*
X34500000Y-46000000D02*
X35500000Y-46000000D01*
X40550000Y-48700000D02*
X40550000Y-47450000D01*
X40250000Y-49000000D02*
X40550000Y-48700000D01*
X39000000Y-49000000D02*
X40250000Y-49000000D01*
X38500000Y-48500000D02*
X39000000Y-49000000D01*
X38500000Y-47500000D02*
X38500000Y-48500000D01*
X37750000Y-46750000D02*
X38500000Y-47500000D01*
X36250000Y-46750000D02*
X37750000Y-46750000D01*
X35500000Y-46000000D02*
X36250000Y-46750000D01*
X54499300Y-35750000D02*
X54499300Y-37499300D01*
X54499300Y-37499300D02*
X54500000Y-37500000D01*
X56500000Y-43500000D02*
X56750000Y-43500000D01*
X56750000Y-43500000D02*
X59040000Y-41210000D01*
X59040000Y-41210000D02*
X60750000Y-41210000D01*
X56500000Y-39750000D02*
X59670000Y-39750000D01*
X59670000Y-39750000D02*
X60750000Y-38670000D01*
X53000000Y-39250000D02*
X52750000Y-39250000D01*
X52750000Y-39250000D02*
X51850000Y-40150000D01*
X51850000Y-40150000D02*
X49450000Y-40150000D01*
X33750000Y-39000000D02*
X36250000Y-39000000D01*
X36600000Y-39350000D02*
X38050000Y-39350000D01*
X36250000Y-39000000D02*
X36600000Y-39350000D01*
X33750000Y-41000000D02*
X34250000Y-41000000D01*
X35100000Y-40150000D02*
X38050000Y-40150000D01*
X34250000Y-41000000D02*
X35100000Y-40150000D01*
X32500000Y-44582500D02*
X30917500Y-44582500D01*
X36400000Y-43350000D02*
X38050000Y-43350000D01*
X36250000Y-43500000D02*
X36400000Y-43350000D01*
X36250000Y-44250000D02*
X36250000Y-43500000D01*
X36250000Y-44750000D02*
X36250000Y-44250000D01*
X35900000Y-45100000D02*
X36250000Y-44750000D01*
X30917500Y-44582500D02*
X30400000Y-45100000D01*
X32500000Y-44500000D02*
X32750000Y-44500000D01*
X54500000Y-39250000D02*
X54500000Y-41451740D01*
X54500000Y-41451740D02*
X53949960Y-42001780D01*
D33*
X29300000Y-40202060D02*
X28370000Y-40202060D01*
X29270000Y-40202060D02*
X29300000Y-40202060D01*
X29300000Y-40202060D02*
X30047940Y-40202060D01*
X31000000Y-38250000D02*
X32750000Y-36500000D01*
X31000000Y-39250000D02*
X31000000Y-38250000D01*
X30047940Y-40202060D02*
X31000000Y-39250000D01*
X32750000Y-36500000D02*
X33498980Y-36500000D01*
X33498980Y-36500000D02*
X38500000Y-31498980D01*
X38001020Y-31498980D02*
X38500000Y-31498980D01*
D34*
G36*
X63123000Y-21802606D02*
X63123000Y-37197394D01*
X62268008Y-38052386D01*
X62260072Y-38012486D01*
X61905759Y-37482219D01*
X61756700Y-37382621D01*
X62073068Y-37089726D01*
X62339627Y-36510355D01*
X62220807Y-36257000D01*
X60877000Y-36257000D01*
X60877000Y-36277000D01*
X60623000Y-36277000D01*
X60623000Y-36257000D01*
X59279193Y-36257000D01*
X59160373Y-36510355D01*
X59426932Y-37089726D01*
X59743300Y-37382621D01*
X59594241Y-37482219D01*
X59239928Y-38012486D01*
X59217945Y-38123000D01*
X59047376Y-38123000D01*
X56308890Y-35749645D01*
X59160373Y-35749645D01*
X59279193Y-36003000D01*
X60623000Y-36003000D01*
X60623000Y-34659735D01*
X60877000Y-34659735D01*
X60877000Y-36003000D01*
X62220807Y-36003000D01*
X62339627Y-35749645D01*
X62073068Y-35170274D01*
X61605084Y-34737013D01*
X61130354Y-34540381D01*
X60877000Y-34659735D01*
X60623000Y-34659735D01*
X60369646Y-34540381D01*
X59894916Y-34737013D01*
X59426932Y-35170274D01*
X59160373Y-35749645D01*
X56308890Y-35749645D01*
X55404907Y-34966193D01*
X55362170Y-34899779D01*
X55149970Y-34754789D01*
X54898080Y-34703780D01*
X54100520Y-34703780D01*
X53865203Y-34748058D01*
X53750007Y-34822185D01*
X53651370Y-34754789D01*
X53399480Y-34703780D01*
X52601920Y-34703780D01*
X52366603Y-34748058D01*
X52172438Y-34873000D01*
X52076087Y-34873000D01*
X51936799Y-34815162D01*
X51564833Y-34814838D01*
X51424070Y-34873000D01*
X48504817Y-34873000D01*
X48489090Y-34848559D01*
X48276890Y-34703569D01*
X48025000Y-34652560D01*
X47475000Y-34652560D01*
X47345411Y-34676944D01*
X47225000Y-34652560D01*
X46675000Y-34652560D01*
X46545411Y-34676944D01*
X46425000Y-34652560D01*
X45875000Y-34652560D01*
X45745411Y-34676944D01*
X45625000Y-34652560D01*
X45075000Y-34652560D01*
X44945411Y-34676944D01*
X44825000Y-34652560D01*
X44617746Y-34652560D01*
X42573683Y-32285750D01*
X44365000Y-32285750D01*
X44365000Y-34126309D01*
X44461673Y-34359698D01*
X44640301Y-34538327D01*
X44873690Y-34635000D01*
X45964250Y-34635000D01*
X46123000Y-34476250D01*
X46123000Y-32127000D01*
X46377000Y-32127000D01*
X46377000Y-34476250D01*
X46535750Y-34635000D01*
X47626310Y-34635000D01*
X47859699Y-34538327D01*
X48038327Y-34359698D01*
X48135000Y-34126309D01*
X48135000Y-32285750D01*
X56115000Y-32285750D01*
X56115000Y-34126309D01*
X56211673Y-34359698D01*
X56390301Y-34538327D01*
X56623690Y-34635000D01*
X57714250Y-34635000D01*
X57873000Y-34476250D01*
X57873000Y-32127000D01*
X58127000Y-32127000D01*
X58127000Y-34476250D01*
X58285750Y-34635000D01*
X59376310Y-34635000D01*
X59609699Y-34538327D01*
X59788327Y-34359698D01*
X59885000Y-34126309D01*
X59885000Y-32285750D01*
X59726250Y-32127000D01*
X58127000Y-32127000D01*
X57873000Y-32127000D01*
X56273750Y-32127000D01*
X56115000Y-32285750D01*
X48135000Y-32285750D01*
X47976250Y-32127000D01*
X46377000Y-32127000D01*
X46123000Y-32127000D01*
X44523750Y-32127000D01*
X44365000Y-32285750D01*
X42573683Y-32285750D01*
X40490541Y-29873691D01*
X44365000Y-29873691D01*
X44365000Y-31714250D01*
X44523750Y-31873000D01*
X46123000Y-31873000D01*
X46123000Y-29523750D01*
X46377000Y-29523750D01*
X46377000Y-31873000D01*
X47976250Y-31873000D01*
X48135000Y-31714250D01*
X48135000Y-29873691D01*
X56115000Y-29873691D01*
X56115000Y-31714250D01*
X56273750Y-31873000D01*
X57873000Y-31873000D01*
X57873000Y-29523750D01*
X58127000Y-29523750D01*
X58127000Y-31873000D01*
X59726250Y-31873000D01*
X59885000Y-31714250D01*
X59885000Y-29873691D01*
X59788327Y-29640302D01*
X59609699Y-29461673D01*
X59376310Y-29365000D01*
X58285750Y-29365000D01*
X58127000Y-29523750D01*
X57873000Y-29523750D01*
X57714250Y-29365000D01*
X56623690Y-29365000D01*
X56390301Y-29461673D01*
X56211673Y-29640302D01*
X56115000Y-29873691D01*
X48135000Y-29873691D01*
X48038327Y-29640302D01*
X47859699Y-29461673D01*
X47626310Y-29365000D01*
X46535750Y-29365000D01*
X46377000Y-29523750D01*
X46123000Y-29523750D01*
X45964250Y-29365000D01*
X44873690Y-29365000D01*
X44640301Y-29461673D01*
X44461673Y-29640302D01*
X44365000Y-29873691D01*
X40490541Y-29873691D01*
X40096117Y-29416990D01*
X40056248Y-29386136D01*
X40000000Y-29373000D01*
X39506600Y-29373000D01*
X39709329Y-29289027D01*
X39887957Y-29110398D01*
X39984630Y-28877009D01*
X39984630Y-27786770D01*
X39825880Y-27628020D01*
X38627000Y-27628020D01*
X38627000Y-27648020D01*
X38373000Y-27648020D01*
X38373000Y-27628020D01*
X37174120Y-27628020D01*
X37015370Y-27786770D01*
X37015370Y-28877009D01*
X37112043Y-29110398D01*
X37290671Y-29289027D01*
X37524060Y-29385700D01*
X37696286Y-29385700D01*
X37666370Y-29404423D01*
X37320837Y-29706764D01*
X37198929Y-29785210D01*
X37150974Y-29855394D01*
X35702282Y-31123000D01*
X34032020Y-31123000D01*
X33320941Y-30740112D01*
X33101078Y-30519864D01*
X33387586Y-30637227D01*
X34535302Y-30632730D01*
X35574765Y-30202169D01*
X35826002Y-29805467D01*
X33950140Y-27929605D01*
X33935998Y-27943748D01*
X33756393Y-27764143D01*
X33770535Y-27750000D01*
X34129745Y-27750000D01*
X36005607Y-29625862D01*
X36402309Y-29374625D01*
X36837367Y-28312554D01*
X36832870Y-27164838D01*
X36402309Y-26125375D01*
X36401766Y-26125031D01*
X37015370Y-26125031D01*
X37015370Y-27215270D01*
X37174120Y-27374020D01*
X38373000Y-27374020D01*
X38373000Y-25775090D01*
X38627000Y-25775090D01*
X38627000Y-27374020D01*
X39825880Y-27374020D01*
X39984630Y-27215270D01*
X39984630Y-26125031D01*
X39887957Y-25891642D01*
X39709329Y-25713013D01*
X39475940Y-25616340D01*
X38785750Y-25616340D01*
X38627000Y-25775090D01*
X38373000Y-25775090D01*
X38214250Y-25616340D01*
X37524060Y-25616340D01*
X37290671Y-25713013D01*
X37112043Y-25891642D01*
X37015370Y-26125031D01*
X36401766Y-26125031D01*
X36005607Y-25874138D01*
X34129745Y-27750000D01*
X33770535Y-27750000D01*
X31894673Y-25874138D01*
X31497971Y-26125375D01*
X31062913Y-27187446D01*
X31067410Y-28335162D01*
X31497971Y-29374625D01*
X31894671Y-29625861D01*
X31830086Y-29690446D01*
X31526780Y-29564502D01*
X31137035Y-29564162D01*
X30877000Y-29424143D01*
X30877000Y-25694533D01*
X32074278Y-25694533D01*
X33950140Y-27570395D01*
X35826002Y-25694533D01*
X35574765Y-25297831D01*
X34512694Y-24862773D01*
X33364978Y-24867270D01*
X32325515Y-25297831D01*
X32074278Y-25694533D01*
X30877000Y-25694533D01*
X30877000Y-22000000D01*
X44352560Y-22000000D01*
X44352560Y-26000000D01*
X44396838Y-26235317D01*
X44535910Y-26451441D01*
X44748110Y-26596431D01*
X45000000Y-26647440D01*
X47500000Y-26647440D01*
X47735317Y-26603162D01*
X47951441Y-26464090D01*
X48096431Y-26251890D01*
X48147440Y-26000000D01*
X48147440Y-24935129D01*
X48185167Y-24935162D01*
X48528943Y-24793117D01*
X48792192Y-24530327D01*
X48934838Y-24186799D01*
X48935162Y-23814833D01*
X48793117Y-23471057D01*
X48530327Y-23207808D01*
X48186799Y-23065162D01*
X48147440Y-23065128D01*
X48147440Y-22000000D01*
X56102560Y-22000000D01*
X56102560Y-26000000D01*
X56146838Y-26235317D01*
X56285910Y-26451441D01*
X56498110Y-26596431D01*
X56750000Y-26647440D01*
X59250000Y-26647440D01*
X59485317Y-26603162D01*
X59701441Y-26464090D01*
X59846431Y-26251890D01*
X59897440Y-26000000D01*
X59897440Y-24935129D01*
X59935167Y-24935162D01*
X60278943Y-24793117D01*
X60542192Y-24530327D01*
X60684838Y-24186799D01*
X60685162Y-23814833D01*
X60543117Y-23471057D01*
X60280327Y-23207808D01*
X59936799Y-23065162D01*
X59897440Y-23065128D01*
X59897440Y-22000000D01*
X59853162Y-21764683D01*
X59714090Y-21548559D01*
X59501890Y-21403569D01*
X59250000Y-21352560D01*
X56750000Y-21352560D01*
X56514683Y-21396838D01*
X56298559Y-21535910D01*
X56153569Y-21748110D01*
X56102560Y-22000000D01*
X48147440Y-22000000D01*
X48103162Y-21764683D01*
X47964090Y-21548559D01*
X47751890Y-21403569D01*
X47500000Y-21352560D01*
X45000000Y-21352560D01*
X44764683Y-21396838D01*
X44548559Y-21535910D01*
X44403569Y-21748110D01*
X44352560Y-22000000D01*
X30877000Y-22000000D01*
X30877000Y-21802606D01*
X31719606Y-20960000D01*
X62280394Y-20960000D01*
X63123000Y-21802606D01*
X63123000Y-21802606D01*
G37*
X63123000Y-21802606D02*
X63123000Y-37197394D01*
X62268008Y-38052386D01*
X62260072Y-38012486D01*
X61905759Y-37482219D01*
X61756700Y-37382621D01*
X62073068Y-37089726D01*
X62339627Y-36510355D01*
X62220807Y-36257000D01*
X60877000Y-36257000D01*
X60877000Y-36277000D01*
X60623000Y-36277000D01*
X60623000Y-36257000D01*
X59279193Y-36257000D01*
X59160373Y-36510355D01*
X59426932Y-37089726D01*
X59743300Y-37382621D01*
X59594241Y-37482219D01*
X59239928Y-38012486D01*
X59217945Y-38123000D01*
X59047376Y-38123000D01*
X56308890Y-35749645D01*
X59160373Y-35749645D01*
X59279193Y-36003000D01*
X60623000Y-36003000D01*
X60623000Y-34659735D01*
X60877000Y-34659735D01*
X60877000Y-36003000D01*
X62220807Y-36003000D01*
X62339627Y-35749645D01*
X62073068Y-35170274D01*
X61605084Y-34737013D01*
X61130354Y-34540381D01*
X60877000Y-34659735D01*
X60623000Y-34659735D01*
X60369646Y-34540381D01*
X59894916Y-34737013D01*
X59426932Y-35170274D01*
X59160373Y-35749645D01*
X56308890Y-35749645D01*
X55404907Y-34966193D01*
X55362170Y-34899779D01*
X55149970Y-34754789D01*
X54898080Y-34703780D01*
X54100520Y-34703780D01*
X53865203Y-34748058D01*
X53750007Y-34822185D01*
X53651370Y-34754789D01*
X53399480Y-34703780D01*
X52601920Y-34703780D01*
X52366603Y-34748058D01*
X52172438Y-34873000D01*
X52076087Y-34873000D01*
X51936799Y-34815162D01*
X51564833Y-34814838D01*
X51424070Y-34873000D01*
X48504817Y-34873000D01*
X48489090Y-34848559D01*
X48276890Y-34703569D01*
X48025000Y-34652560D01*
X47475000Y-34652560D01*
X47345411Y-34676944D01*
X47225000Y-34652560D01*
X46675000Y-34652560D01*
X46545411Y-34676944D01*
X46425000Y-34652560D01*
X45875000Y-34652560D01*
X45745411Y-34676944D01*
X45625000Y-34652560D01*
X45075000Y-34652560D01*
X44945411Y-34676944D01*
X44825000Y-34652560D01*
X44617746Y-34652560D01*
X42573683Y-32285750D01*
X44365000Y-32285750D01*
X44365000Y-34126309D01*
X44461673Y-34359698D01*
X44640301Y-34538327D01*
X44873690Y-34635000D01*
X45964250Y-34635000D01*
X46123000Y-34476250D01*
X46123000Y-32127000D01*
X46377000Y-32127000D01*
X46377000Y-34476250D01*
X46535750Y-34635000D01*
X47626310Y-34635000D01*
X47859699Y-34538327D01*
X48038327Y-34359698D01*
X48135000Y-34126309D01*
X48135000Y-32285750D01*
X56115000Y-32285750D01*
X56115000Y-34126309D01*
X56211673Y-34359698D01*
X56390301Y-34538327D01*
X56623690Y-34635000D01*
X57714250Y-34635000D01*
X57873000Y-34476250D01*
X57873000Y-32127000D01*
X58127000Y-32127000D01*
X58127000Y-34476250D01*
X58285750Y-34635000D01*
X59376310Y-34635000D01*
X59609699Y-34538327D01*
X59788327Y-34359698D01*
X59885000Y-34126309D01*
X59885000Y-32285750D01*
X59726250Y-32127000D01*
X58127000Y-32127000D01*
X57873000Y-32127000D01*
X56273750Y-32127000D01*
X56115000Y-32285750D01*
X48135000Y-32285750D01*
X47976250Y-32127000D01*
X46377000Y-32127000D01*
X46123000Y-32127000D01*
X44523750Y-32127000D01*
X44365000Y-32285750D01*
X42573683Y-32285750D01*
X40490541Y-29873691D01*
X44365000Y-29873691D01*
X44365000Y-31714250D01*
X44523750Y-31873000D01*
X46123000Y-31873000D01*
X46123000Y-29523750D01*
X46377000Y-29523750D01*
X46377000Y-31873000D01*
X47976250Y-31873000D01*
X48135000Y-31714250D01*
X48135000Y-29873691D01*
X56115000Y-29873691D01*
X56115000Y-31714250D01*
X56273750Y-31873000D01*
X57873000Y-31873000D01*
X57873000Y-29523750D01*
X58127000Y-29523750D01*
X58127000Y-31873000D01*
X59726250Y-31873000D01*
X59885000Y-31714250D01*
X59885000Y-29873691D01*
X59788327Y-29640302D01*
X59609699Y-29461673D01*
X59376310Y-29365000D01*
X58285750Y-29365000D01*
X58127000Y-29523750D01*
X57873000Y-29523750D01*
X57714250Y-29365000D01*
X56623690Y-29365000D01*
X56390301Y-29461673D01*
X56211673Y-29640302D01*
X56115000Y-29873691D01*
X48135000Y-29873691D01*
X48038327Y-29640302D01*
X47859699Y-29461673D01*
X47626310Y-29365000D01*
X46535750Y-29365000D01*
X46377000Y-29523750D01*
X46123000Y-29523750D01*
X45964250Y-29365000D01*
X44873690Y-29365000D01*
X44640301Y-29461673D01*
X44461673Y-29640302D01*
X44365000Y-29873691D01*
X40490541Y-29873691D01*
X40096117Y-29416990D01*
X40056248Y-29386136D01*
X40000000Y-29373000D01*
X39506600Y-29373000D01*
X39709329Y-29289027D01*
X39887957Y-29110398D01*
X39984630Y-28877009D01*
X39984630Y-27786770D01*
X39825880Y-27628020D01*
X38627000Y-27628020D01*
X38627000Y-27648020D01*
X38373000Y-27648020D01*
X38373000Y-27628020D01*
X37174120Y-27628020D01*
X37015370Y-27786770D01*
X37015370Y-28877009D01*
X37112043Y-29110398D01*
X37290671Y-29289027D01*
X37524060Y-29385700D01*
X37696286Y-29385700D01*
X37666370Y-29404423D01*
X37320837Y-29706764D01*
X37198929Y-29785210D01*
X37150974Y-29855394D01*
X35702282Y-31123000D01*
X34032020Y-31123000D01*
X33320941Y-30740112D01*
X33101078Y-30519864D01*
X33387586Y-30637227D01*
X34535302Y-30632730D01*
X35574765Y-30202169D01*
X35826002Y-29805467D01*
X33950140Y-27929605D01*
X33935998Y-27943748D01*
X33756393Y-27764143D01*
X33770535Y-27750000D01*
X34129745Y-27750000D01*
X36005607Y-29625862D01*
X36402309Y-29374625D01*
X36837367Y-28312554D01*
X36832870Y-27164838D01*
X36402309Y-26125375D01*
X36401766Y-26125031D01*
X37015370Y-26125031D01*
X37015370Y-27215270D01*
X37174120Y-27374020D01*
X38373000Y-27374020D01*
X38373000Y-25775090D01*
X38627000Y-25775090D01*
X38627000Y-27374020D01*
X39825880Y-27374020D01*
X39984630Y-27215270D01*
X39984630Y-26125031D01*
X39887957Y-25891642D01*
X39709329Y-25713013D01*
X39475940Y-25616340D01*
X38785750Y-25616340D01*
X38627000Y-25775090D01*
X38373000Y-25775090D01*
X38214250Y-25616340D01*
X37524060Y-25616340D01*
X37290671Y-25713013D01*
X37112043Y-25891642D01*
X37015370Y-26125031D01*
X36401766Y-26125031D01*
X36005607Y-25874138D01*
X34129745Y-27750000D01*
X33770535Y-27750000D01*
X31894673Y-25874138D01*
X31497971Y-26125375D01*
X31062913Y-27187446D01*
X31067410Y-28335162D01*
X31497971Y-29374625D01*
X31894671Y-29625861D01*
X31830086Y-29690446D01*
X31526780Y-29564502D01*
X31137035Y-29564162D01*
X30877000Y-29424143D01*
X30877000Y-25694533D01*
X32074278Y-25694533D01*
X33950140Y-27570395D01*
X35826002Y-25694533D01*
X35574765Y-25297831D01*
X34512694Y-24862773D01*
X33364978Y-24867270D01*
X32325515Y-25297831D01*
X32074278Y-25694533D01*
X30877000Y-25694533D01*
X30877000Y-22000000D01*
X44352560Y-22000000D01*
X44352560Y-26000000D01*
X44396838Y-26235317D01*
X44535910Y-26451441D01*
X44748110Y-26596431D01*
X45000000Y-26647440D01*
X47500000Y-26647440D01*
X47735317Y-26603162D01*
X47951441Y-26464090D01*
X48096431Y-26251890D01*
X48147440Y-26000000D01*
X48147440Y-24935129D01*
X48185167Y-24935162D01*
X48528943Y-24793117D01*
X48792192Y-24530327D01*
X48934838Y-24186799D01*
X48935162Y-23814833D01*
X48793117Y-23471057D01*
X48530327Y-23207808D01*
X48186799Y-23065162D01*
X48147440Y-23065128D01*
X48147440Y-22000000D01*
X56102560Y-22000000D01*
X56102560Y-26000000D01*
X56146838Y-26235317D01*
X56285910Y-26451441D01*
X56498110Y-26596431D01*
X56750000Y-26647440D01*
X59250000Y-26647440D01*
X59485317Y-26603162D01*
X59701441Y-26464090D01*
X59846431Y-26251890D01*
X59897440Y-26000000D01*
X59897440Y-24935129D01*
X59935167Y-24935162D01*
X60278943Y-24793117D01*
X60542192Y-24530327D01*
X60684838Y-24186799D01*
X60685162Y-23814833D01*
X60543117Y-23471057D01*
X60280327Y-23207808D01*
X59936799Y-23065162D01*
X59897440Y-23065128D01*
X59897440Y-22000000D01*
X59853162Y-21764683D01*
X59714090Y-21548559D01*
X59501890Y-21403569D01*
X59250000Y-21352560D01*
X56750000Y-21352560D01*
X56514683Y-21396838D01*
X56298559Y-21535910D01*
X56153569Y-21748110D01*
X56102560Y-22000000D01*
X48147440Y-22000000D01*
X48103162Y-21764683D01*
X47964090Y-21548559D01*
X47751890Y-21403569D01*
X47500000Y-21352560D01*
X45000000Y-21352560D01*
X44764683Y-21396838D01*
X44548559Y-21535910D01*
X44403569Y-21748110D01*
X44352560Y-22000000D01*
X30877000Y-22000000D01*
X30877000Y-21802606D01*
X31719606Y-20960000D01*
X62280394Y-20960000D01*
X63123000Y-21802606D01*
M02*
