G04 #@! TF.FileFunction,Copper,L2,Inr,Mixed*
%FSLAX46Y46*%
G04 Gerber Fmt 4.6, Leading zero omitted, Abs format (unit mm)*
G04 Created by KiCad (PCBNEW 4.0.4-stable) date 03/14/17 06:36:14*
%MOMM*%
%LPD*%
G01*
G04 APERTURE LIST*
%ADD10C,0.100000*%
%ADD11O,1.200000X0.500000*%
%ADD12C,4.500000*%
%ADD13O,1.998980X1.998980*%
%ADD14R,1.998980X1.998980*%
%ADD15C,0.600000*%
%ADD16C,0.250000*%
%ADD17C,0.254000*%
G04 APERTURE END LIST*
D10*
D11*
X25700000Y-38200000D03*
X25700000Y-44800000D03*
D12*
X33950140Y-27750000D03*
X27950660Y-27750000D03*
X30950400Y-32449000D03*
D13*
X60750000Y-36130000D03*
D14*
X60750000Y-43750000D03*
D13*
X60750000Y-41210000D03*
X60750000Y-38670000D03*
D15*
X51750000Y-35750000D03*
X40250000Y-37750000D03*
X46750000Y-37750000D03*
X45750000Y-38500000D03*
X31250000Y-43750000D03*
X39500000Y-41000000D03*
X42250000Y-49000000D03*
X48000000Y-45750000D03*
X52000000Y-43250000D03*
X59750000Y-24000000D03*
X48000000Y-24000000D03*
X55500000Y-48500000D03*
X47750000Y-37750000D03*
X48000000Y-44750000D03*
X46500000Y-46000000D03*
X41250000Y-49000000D03*
X31250000Y-46250000D03*
X34500000Y-36750000D03*
X39500000Y-42500000D03*
X42250000Y-45000000D03*
X48000000Y-42250000D03*
X55250000Y-44250000D03*
X42000000Y-42250000D03*
X55250000Y-42500000D03*
X44750000Y-43250000D03*
X52000000Y-44250000D03*
X39000000Y-49000000D03*
X35900000Y-45100000D03*
X30400000Y-45100000D03*
D16*
X46500000Y-46000000D02*
X46500000Y-41250000D01*
X47750000Y-40000000D02*
X47750000Y-37750000D01*
X46500000Y-41250000D02*
X47750000Y-40000000D01*
X46500000Y-46000000D02*
X46500000Y-45500000D01*
X47250000Y-44750000D02*
X48000000Y-44750000D01*
X46500000Y-45500000D02*
X47250000Y-44750000D01*
X41250000Y-49000000D02*
X41250000Y-48000000D01*
X46250000Y-46250000D02*
X46500000Y-46000000D01*
X43000000Y-46250000D02*
X46250000Y-46250000D01*
X41250000Y-48000000D02*
X43000000Y-46250000D01*
X41250000Y-49000000D02*
X41250000Y-44250000D01*
X41250000Y-44250000D02*
X39500000Y-42500000D01*
X31250000Y-46250000D02*
X35750000Y-46250000D01*
X35750000Y-46250000D02*
X39500000Y-42500000D01*
X34500000Y-36750000D02*
X34500000Y-37500000D01*
X34500000Y-37500000D02*
X39500000Y-42500000D01*
D17*
G36*
X63373000Y-22052606D02*
X63373000Y-48947394D01*
X62530394Y-49790000D01*
X42782065Y-49790000D01*
X43042192Y-49530327D01*
X43184838Y-49186799D01*
X43185162Y-48814833D01*
X43131586Y-48685167D01*
X54564838Y-48685167D01*
X54706883Y-49028943D01*
X54969673Y-49292192D01*
X55313201Y-49434838D01*
X55685167Y-49435162D01*
X56028943Y-49293117D01*
X56292192Y-49030327D01*
X56434838Y-48686799D01*
X56435162Y-48314833D01*
X56293117Y-47971057D01*
X56030327Y-47707808D01*
X55686799Y-47565162D01*
X55314833Y-47564838D01*
X54971057Y-47706883D01*
X54707808Y-47969673D01*
X54565162Y-48313201D01*
X54564838Y-48685167D01*
X43131586Y-48685167D01*
X43043117Y-48471057D01*
X42780327Y-48207808D01*
X42436799Y-48065162D01*
X42064833Y-48064838D01*
X41721057Y-48206883D01*
X41457808Y-48469673D01*
X41315162Y-48813201D01*
X41314838Y-49185167D01*
X41456883Y-49528943D01*
X41717485Y-49790000D01*
X39532065Y-49790000D01*
X39792192Y-49530327D01*
X39934838Y-49186799D01*
X39935162Y-48814833D01*
X39793117Y-48471057D01*
X39530327Y-48207808D01*
X39186799Y-48065162D01*
X38814833Y-48064838D01*
X38471057Y-48206883D01*
X38207808Y-48469673D01*
X38065162Y-48813201D01*
X38064838Y-49185167D01*
X38206883Y-49528943D01*
X38467485Y-49790000D01*
X25719606Y-49790000D01*
X24960000Y-49030394D01*
X24960000Y-45599505D01*
X24987130Y-45617633D01*
X25325805Y-45685000D01*
X26074195Y-45685000D01*
X26412870Y-45617633D01*
X26699985Y-45425790D01*
X26793945Y-45285167D01*
X29464838Y-45285167D01*
X29606883Y-45628943D01*
X29869673Y-45892192D01*
X30213201Y-46034838D01*
X30585167Y-46035162D01*
X30928943Y-45893117D01*
X31192192Y-45630327D01*
X31334838Y-45286799D01*
X31334839Y-45285167D01*
X34964838Y-45285167D01*
X35106883Y-45628943D01*
X35369673Y-45892192D01*
X35713201Y-46034838D01*
X36085167Y-46035162D01*
X36327173Y-45935167D01*
X47064838Y-45935167D01*
X47206883Y-46278943D01*
X47469673Y-46542192D01*
X47813201Y-46684838D01*
X48185167Y-46685162D01*
X48528943Y-46543117D01*
X48792192Y-46280327D01*
X48934838Y-45936799D01*
X48935162Y-45564833D01*
X48793117Y-45221057D01*
X48530327Y-44957808D01*
X48186799Y-44815162D01*
X47814833Y-44814838D01*
X47471057Y-44956883D01*
X47207808Y-45219673D01*
X47065162Y-45563201D01*
X47064838Y-45935167D01*
X36327173Y-45935167D01*
X36428943Y-45893117D01*
X36692192Y-45630327D01*
X36834838Y-45286799D01*
X36834926Y-45185167D01*
X41314838Y-45185167D01*
X41456883Y-45528943D01*
X41719673Y-45792192D01*
X42063201Y-45934838D01*
X42435167Y-45935162D01*
X42778943Y-45793117D01*
X43042192Y-45530327D01*
X43184838Y-45186799D01*
X43185162Y-44814833D01*
X43043117Y-44471057D01*
X42780327Y-44207808D01*
X42436799Y-44065162D01*
X42064833Y-44064838D01*
X41721057Y-44206883D01*
X41457808Y-44469673D01*
X41315162Y-44813201D01*
X41314838Y-45185167D01*
X36834926Y-45185167D01*
X36835162Y-44914833D01*
X36693117Y-44571057D01*
X36430327Y-44307808D01*
X36086799Y-44165162D01*
X35714833Y-44164838D01*
X35371057Y-44306883D01*
X35107808Y-44569673D01*
X34965162Y-44913201D01*
X34964838Y-45285167D01*
X31334839Y-45285167D01*
X31335162Y-44914833D01*
X31240194Y-44684992D01*
X31435167Y-44685162D01*
X31778943Y-44543117D01*
X32042192Y-44280327D01*
X32184838Y-43936799D01*
X32185162Y-43564833D01*
X32131586Y-43435167D01*
X43814838Y-43435167D01*
X43956883Y-43778943D01*
X44219673Y-44042192D01*
X44563201Y-44184838D01*
X44935167Y-44185162D01*
X45278943Y-44043117D01*
X45542192Y-43780327D01*
X45684838Y-43436799D01*
X45684839Y-43435167D01*
X51064838Y-43435167D01*
X51195069Y-43750351D01*
X51065162Y-44063201D01*
X51064838Y-44435167D01*
X51206883Y-44778943D01*
X51469673Y-45042192D01*
X51813201Y-45184838D01*
X52185167Y-45185162D01*
X52528943Y-45043117D01*
X52792192Y-44780327D01*
X52934838Y-44436799D01*
X52935162Y-44064833D01*
X52804931Y-43749649D01*
X52934838Y-43436799D01*
X52935162Y-43064833D01*
X52793117Y-42721057D01*
X52757290Y-42685167D01*
X54314838Y-42685167D01*
X54456883Y-43028943D01*
X54719673Y-43292192D01*
X54919162Y-43375028D01*
X54721057Y-43456883D01*
X54457808Y-43719673D01*
X54315162Y-44063201D01*
X54314838Y-44435167D01*
X54456883Y-44778943D01*
X54719673Y-45042192D01*
X55063201Y-45184838D01*
X55435167Y-45185162D01*
X55778943Y-45043117D01*
X56042192Y-44780327D01*
X56184838Y-44436799D01*
X56185162Y-44064833D01*
X56043117Y-43721057D01*
X55780327Y-43457808D01*
X55580838Y-43374972D01*
X55778943Y-43293117D01*
X56042192Y-43030327D01*
X56158382Y-42750510D01*
X59103070Y-42750510D01*
X59103070Y-44749490D01*
X59147348Y-44984807D01*
X59286420Y-45200931D01*
X59498620Y-45345921D01*
X59750510Y-45396930D01*
X61749490Y-45396930D01*
X61984807Y-45352652D01*
X62200931Y-45213580D01*
X62345921Y-45001380D01*
X62396930Y-44749490D01*
X62396930Y-42750510D01*
X62352652Y-42515193D01*
X62213580Y-42299069D01*
X62047527Y-42185610D01*
X62260072Y-41867514D01*
X62384490Y-41242022D01*
X62384490Y-41177978D01*
X62260072Y-40552486D01*
X61905759Y-40022219D01*
X61782710Y-39940000D01*
X61905759Y-39857781D01*
X62260072Y-39327514D01*
X62384490Y-38702022D01*
X62384490Y-38637978D01*
X62260072Y-38012486D01*
X61905759Y-37482219D01*
X61782710Y-37400000D01*
X61905759Y-37317781D01*
X62260072Y-36787514D01*
X62384490Y-36162022D01*
X62384490Y-36097978D01*
X62260072Y-35472486D01*
X61905759Y-34942219D01*
X61375492Y-34587906D01*
X60750000Y-34463488D01*
X60124508Y-34587906D01*
X59594241Y-34942219D01*
X59239928Y-35472486D01*
X59115510Y-36097978D01*
X59115510Y-36162022D01*
X59239928Y-36787514D01*
X59594241Y-37317781D01*
X59717290Y-37400000D01*
X59594241Y-37482219D01*
X59239928Y-38012486D01*
X59115510Y-38637978D01*
X59115510Y-38702022D01*
X59239928Y-39327514D01*
X59594241Y-39857781D01*
X59717290Y-39940000D01*
X59594241Y-40022219D01*
X59239928Y-40552486D01*
X59115510Y-41177978D01*
X59115510Y-41242022D01*
X59239928Y-41867514D01*
X59453453Y-42187077D01*
X59299069Y-42286420D01*
X59154079Y-42498620D01*
X59103070Y-42750510D01*
X56158382Y-42750510D01*
X56184838Y-42686799D01*
X56185162Y-42314833D01*
X56043117Y-41971057D01*
X55780327Y-41707808D01*
X55436799Y-41565162D01*
X55064833Y-41564838D01*
X54721057Y-41706883D01*
X54457808Y-41969673D01*
X54315162Y-42313201D01*
X54314838Y-42685167D01*
X52757290Y-42685167D01*
X52530327Y-42457808D01*
X52186799Y-42315162D01*
X51814833Y-42314838D01*
X51471057Y-42456883D01*
X51207808Y-42719673D01*
X51065162Y-43063201D01*
X51064838Y-43435167D01*
X45684839Y-43435167D01*
X45685162Y-43064833D01*
X45543117Y-42721057D01*
X45280327Y-42457808D01*
X45225802Y-42435167D01*
X47064838Y-42435167D01*
X47206883Y-42778943D01*
X47469673Y-43042192D01*
X47813201Y-43184838D01*
X48185167Y-43185162D01*
X48528943Y-43043117D01*
X48792192Y-42780327D01*
X48934838Y-42436799D01*
X48935162Y-42064833D01*
X48793117Y-41721057D01*
X48530327Y-41457808D01*
X48186799Y-41315162D01*
X47814833Y-41314838D01*
X47471057Y-41456883D01*
X47207808Y-41719673D01*
X47065162Y-42063201D01*
X47064838Y-42435167D01*
X45225802Y-42435167D01*
X44936799Y-42315162D01*
X44564833Y-42314838D01*
X44221057Y-42456883D01*
X43957808Y-42719673D01*
X43815162Y-43063201D01*
X43814838Y-43435167D01*
X32131586Y-43435167D01*
X32043117Y-43221057D01*
X31780327Y-42957808D01*
X31436799Y-42815162D01*
X31064833Y-42814838D01*
X30721057Y-42956883D01*
X30457808Y-43219673D01*
X30315162Y-43563201D01*
X30314838Y-43935167D01*
X30409806Y-44165008D01*
X30214833Y-44164838D01*
X29871057Y-44306883D01*
X29607808Y-44569673D01*
X29465162Y-44913201D01*
X29464838Y-45285167D01*
X26793945Y-45285167D01*
X26891828Y-45138675D01*
X26959195Y-44800000D01*
X26891828Y-44461325D01*
X26699985Y-44174210D01*
X26412870Y-43982367D01*
X26074195Y-43915000D01*
X25325805Y-43915000D01*
X24987130Y-43982367D01*
X24960000Y-44000495D01*
X24960000Y-42435167D01*
X41064838Y-42435167D01*
X41206883Y-42778943D01*
X41469673Y-43042192D01*
X41813201Y-43184838D01*
X42185167Y-43185162D01*
X42528943Y-43043117D01*
X42792192Y-42780327D01*
X42934838Y-42436799D01*
X42935162Y-42064833D01*
X42793117Y-41721057D01*
X42530327Y-41457808D01*
X42186799Y-41315162D01*
X41814833Y-41314838D01*
X41471057Y-41456883D01*
X41207808Y-41719673D01*
X41065162Y-42063201D01*
X41064838Y-42435167D01*
X24960000Y-42435167D01*
X24960000Y-41185167D01*
X38564838Y-41185167D01*
X38706883Y-41528943D01*
X38969673Y-41792192D01*
X39313201Y-41934838D01*
X39685167Y-41935162D01*
X40028943Y-41793117D01*
X40292192Y-41530327D01*
X40434838Y-41186799D01*
X40435162Y-40814833D01*
X40293117Y-40471057D01*
X40030327Y-40207808D01*
X39686799Y-40065162D01*
X39314833Y-40064838D01*
X38971057Y-40206883D01*
X38707808Y-40469673D01*
X38565162Y-40813201D01*
X38564838Y-41185167D01*
X24960000Y-41185167D01*
X24960000Y-38999505D01*
X24987130Y-39017633D01*
X25325805Y-39085000D01*
X26074195Y-39085000D01*
X26412870Y-39017633D01*
X26699985Y-38825790D01*
X26793945Y-38685167D01*
X44814838Y-38685167D01*
X44956883Y-39028943D01*
X45219673Y-39292192D01*
X45563201Y-39434838D01*
X45935167Y-39435162D01*
X46278943Y-39293117D01*
X46542192Y-39030327D01*
X46684838Y-38686799D01*
X46684840Y-38684944D01*
X46935167Y-38685162D01*
X47278943Y-38543117D01*
X47542192Y-38280327D01*
X47684838Y-37936799D01*
X47685162Y-37564833D01*
X47543117Y-37221057D01*
X47280327Y-36957808D01*
X46936799Y-36815162D01*
X46564833Y-36814838D01*
X46221057Y-36956883D01*
X45957808Y-37219673D01*
X45815162Y-37563201D01*
X45815160Y-37565056D01*
X45564833Y-37564838D01*
X45221057Y-37706883D01*
X44957808Y-37969673D01*
X44815162Y-38313201D01*
X44814838Y-38685167D01*
X26793945Y-38685167D01*
X26891828Y-38538675D01*
X26959195Y-38200000D01*
X26906517Y-37935167D01*
X39314838Y-37935167D01*
X39456883Y-38278943D01*
X39719673Y-38542192D01*
X40063201Y-38684838D01*
X40435167Y-38685162D01*
X40778943Y-38543117D01*
X41042192Y-38280327D01*
X41184838Y-37936799D01*
X41185162Y-37564833D01*
X41043117Y-37221057D01*
X40780327Y-36957808D01*
X40436799Y-36815162D01*
X40064833Y-36814838D01*
X39721057Y-36956883D01*
X39457808Y-37219673D01*
X39315162Y-37563201D01*
X39314838Y-37935167D01*
X26906517Y-37935167D01*
X26891828Y-37861325D01*
X26699985Y-37574210D01*
X26412870Y-37382367D01*
X26074195Y-37315000D01*
X25325805Y-37315000D01*
X24987130Y-37382367D01*
X24960000Y-37400495D01*
X24960000Y-35935167D01*
X50814838Y-35935167D01*
X50956883Y-36278943D01*
X51219673Y-36542192D01*
X51563201Y-36684838D01*
X51935167Y-36685162D01*
X52278943Y-36543117D01*
X52542192Y-36280327D01*
X52684838Y-35936799D01*
X52685162Y-35564833D01*
X52543117Y-35221057D01*
X52280327Y-34957808D01*
X51936799Y-34815162D01*
X51564833Y-34814838D01*
X51221057Y-34956883D01*
X50957808Y-35219673D01*
X50815162Y-35563201D01*
X50814838Y-35935167D01*
X24960000Y-35935167D01*
X24960000Y-28321344D01*
X25065161Y-28321344D01*
X25503450Y-29382086D01*
X26314305Y-30194357D01*
X27374280Y-30634498D01*
X28522004Y-30635499D01*
X28797550Y-30521646D01*
X28506043Y-30812645D01*
X28065902Y-31872620D01*
X28064901Y-33020344D01*
X28503190Y-34081086D01*
X29314045Y-34893357D01*
X30374020Y-35333498D01*
X31521744Y-35334499D01*
X32582486Y-34896210D01*
X33394757Y-34085355D01*
X33834898Y-33025380D01*
X33835899Y-31877656D01*
X33397610Y-30816914D01*
X33103475Y-30522266D01*
X33373760Y-30634498D01*
X34521484Y-30635499D01*
X35582226Y-30197210D01*
X36394497Y-29386355D01*
X36834638Y-28326380D01*
X36835639Y-27178656D01*
X36397350Y-26117914D01*
X35586495Y-25305643D01*
X34526520Y-24865502D01*
X33378796Y-24864501D01*
X32318054Y-25302790D01*
X31505783Y-26113645D01*
X31065642Y-27173620D01*
X31064641Y-28321344D01*
X31502930Y-29382086D01*
X31797065Y-29676734D01*
X31526780Y-29564502D01*
X30379056Y-29563501D01*
X30103510Y-29677354D01*
X30395017Y-29386355D01*
X30835158Y-28326380D01*
X30836159Y-27178656D01*
X30397870Y-26117914D01*
X29587015Y-25305643D01*
X28527040Y-24865502D01*
X27379316Y-24864501D01*
X26318574Y-25302790D01*
X25506303Y-26113645D01*
X25066162Y-27173620D01*
X25065161Y-28321344D01*
X24960000Y-28321344D01*
X24960000Y-24185167D01*
X47064838Y-24185167D01*
X47206883Y-24528943D01*
X47469673Y-24792192D01*
X47813201Y-24934838D01*
X48185167Y-24935162D01*
X48528943Y-24793117D01*
X48792192Y-24530327D01*
X48934838Y-24186799D01*
X48934839Y-24185167D01*
X58814838Y-24185167D01*
X58956883Y-24528943D01*
X59219673Y-24792192D01*
X59563201Y-24934838D01*
X59935167Y-24935162D01*
X60278943Y-24793117D01*
X60542192Y-24530327D01*
X60684838Y-24186799D01*
X60685162Y-23814833D01*
X60543117Y-23471057D01*
X60280327Y-23207808D01*
X59936799Y-23065162D01*
X59564833Y-23064838D01*
X59221057Y-23206883D01*
X58957808Y-23469673D01*
X58815162Y-23813201D01*
X58814838Y-24185167D01*
X48934839Y-24185167D01*
X48935162Y-23814833D01*
X48793117Y-23471057D01*
X48530327Y-23207808D01*
X48186799Y-23065162D01*
X47814833Y-23064838D01*
X47471057Y-23206883D01*
X47207808Y-23469673D01*
X47065162Y-23813201D01*
X47064838Y-24185167D01*
X24960000Y-24185167D01*
X24960000Y-21969606D01*
X25802606Y-21127000D01*
X62447394Y-21127000D01*
X63373000Y-22052606D01*
X63373000Y-22052606D01*
G37*
X63373000Y-22052606D02*
X63373000Y-48947394D01*
X62530394Y-49790000D01*
X42782065Y-49790000D01*
X43042192Y-49530327D01*
X43184838Y-49186799D01*
X43185162Y-48814833D01*
X43131586Y-48685167D01*
X54564838Y-48685167D01*
X54706883Y-49028943D01*
X54969673Y-49292192D01*
X55313201Y-49434838D01*
X55685167Y-49435162D01*
X56028943Y-49293117D01*
X56292192Y-49030327D01*
X56434838Y-48686799D01*
X56435162Y-48314833D01*
X56293117Y-47971057D01*
X56030327Y-47707808D01*
X55686799Y-47565162D01*
X55314833Y-47564838D01*
X54971057Y-47706883D01*
X54707808Y-47969673D01*
X54565162Y-48313201D01*
X54564838Y-48685167D01*
X43131586Y-48685167D01*
X43043117Y-48471057D01*
X42780327Y-48207808D01*
X42436799Y-48065162D01*
X42064833Y-48064838D01*
X41721057Y-48206883D01*
X41457808Y-48469673D01*
X41315162Y-48813201D01*
X41314838Y-49185167D01*
X41456883Y-49528943D01*
X41717485Y-49790000D01*
X39532065Y-49790000D01*
X39792192Y-49530327D01*
X39934838Y-49186799D01*
X39935162Y-48814833D01*
X39793117Y-48471057D01*
X39530327Y-48207808D01*
X39186799Y-48065162D01*
X38814833Y-48064838D01*
X38471057Y-48206883D01*
X38207808Y-48469673D01*
X38065162Y-48813201D01*
X38064838Y-49185167D01*
X38206883Y-49528943D01*
X38467485Y-49790000D01*
X25719606Y-49790000D01*
X24960000Y-49030394D01*
X24960000Y-45599505D01*
X24987130Y-45617633D01*
X25325805Y-45685000D01*
X26074195Y-45685000D01*
X26412870Y-45617633D01*
X26699985Y-45425790D01*
X26793945Y-45285167D01*
X29464838Y-45285167D01*
X29606883Y-45628943D01*
X29869673Y-45892192D01*
X30213201Y-46034838D01*
X30585167Y-46035162D01*
X30928943Y-45893117D01*
X31192192Y-45630327D01*
X31334838Y-45286799D01*
X31334839Y-45285167D01*
X34964838Y-45285167D01*
X35106883Y-45628943D01*
X35369673Y-45892192D01*
X35713201Y-46034838D01*
X36085167Y-46035162D01*
X36327173Y-45935167D01*
X47064838Y-45935167D01*
X47206883Y-46278943D01*
X47469673Y-46542192D01*
X47813201Y-46684838D01*
X48185167Y-46685162D01*
X48528943Y-46543117D01*
X48792192Y-46280327D01*
X48934838Y-45936799D01*
X48935162Y-45564833D01*
X48793117Y-45221057D01*
X48530327Y-44957808D01*
X48186799Y-44815162D01*
X47814833Y-44814838D01*
X47471057Y-44956883D01*
X47207808Y-45219673D01*
X47065162Y-45563201D01*
X47064838Y-45935167D01*
X36327173Y-45935167D01*
X36428943Y-45893117D01*
X36692192Y-45630327D01*
X36834838Y-45286799D01*
X36834926Y-45185167D01*
X41314838Y-45185167D01*
X41456883Y-45528943D01*
X41719673Y-45792192D01*
X42063201Y-45934838D01*
X42435167Y-45935162D01*
X42778943Y-45793117D01*
X43042192Y-45530327D01*
X43184838Y-45186799D01*
X43185162Y-44814833D01*
X43043117Y-44471057D01*
X42780327Y-44207808D01*
X42436799Y-44065162D01*
X42064833Y-44064838D01*
X41721057Y-44206883D01*
X41457808Y-44469673D01*
X41315162Y-44813201D01*
X41314838Y-45185167D01*
X36834926Y-45185167D01*
X36835162Y-44914833D01*
X36693117Y-44571057D01*
X36430327Y-44307808D01*
X36086799Y-44165162D01*
X35714833Y-44164838D01*
X35371057Y-44306883D01*
X35107808Y-44569673D01*
X34965162Y-44913201D01*
X34964838Y-45285167D01*
X31334839Y-45285167D01*
X31335162Y-44914833D01*
X31240194Y-44684992D01*
X31435167Y-44685162D01*
X31778943Y-44543117D01*
X32042192Y-44280327D01*
X32184838Y-43936799D01*
X32185162Y-43564833D01*
X32131586Y-43435167D01*
X43814838Y-43435167D01*
X43956883Y-43778943D01*
X44219673Y-44042192D01*
X44563201Y-44184838D01*
X44935167Y-44185162D01*
X45278943Y-44043117D01*
X45542192Y-43780327D01*
X45684838Y-43436799D01*
X45684839Y-43435167D01*
X51064838Y-43435167D01*
X51195069Y-43750351D01*
X51065162Y-44063201D01*
X51064838Y-44435167D01*
X51206883Y-44778943D01*
X51469673Y-45042192D01*
X51813201Y-45184838D01*
X52185167Y-45185162D01*
X52528943Y-45043117D01*
X52792192Y-44780327D01*
X52934838Y-44436799D01*
X52935162Y-44064833D01*
X52804931Y-43749649D01*
X52934838Y-43436799D01*
X52935162Y-43064833D01*
X52793117Y-42721057D01*
X52757290Y-42685167D01*
X54314838Y-42685167D01*
X54456883Y-43028943D01*
X54719673Y-43292192D01*
X54919162Y-43375028D01*
X54721057Y-43456883D01*
X54457808Y-43719673D01*
X54315162Y-44063201D01*
X54314838Y-44435167D01*
X54456883Y-44778943D01*
X54719673Y-45042192D01*
X55063201Y-45184838D01*
X55435167Y-45185162D01*
X55778943Y-45043117D01*
X56042192Y-44780327D01*
X56184838Y-44436799D01*
X56185162Y-44064833D01*
X56043117Y-43721057D01*
X55780327Y-43457808D01*
X55580838Y-43374972D01*
X55778943Y-43293117D01*
X56042192Y-43030327D01*
X56158382Y-42750510D01*
X59103070Y-42750510D01*
X59103070Y-44749490D01*
X59147348Y-44984807D01*
X59286420Y-45200931D01*
X59498620Y-45345921D01*
X59750510Y-45396930D01*
X61749490Y-45396930D01*
X61984807Y-45352652D01*
X62200931Y-45213580D01*
X62345921Y-45001380D01*
X62396930Y-44749490D01*
X62396930Y-42750510D01*
X62352652Y-42515193D01*
X62213580Y-42299069D01*
X62047527Y-42185610D01*
X62260072Y-41867514D01*
X62384490Y-41242022D01*
X62384490Y-41177978D01*
X62260072Y-40552486D01*
X61905759Y-40022219D01*
X61782710Y-39940000D01*
X61905759Y-39857781D01*
X62260072Y-39327514D01*
X62384490Y-38702022D01*
X62384490Y-38637978D01*
X62260072Y-38012486D01*
X61905759Y-37482219D01*
X61782710Y-37400000D01*
X61905759Y-37317781D01*
X62260072Y-36787514D01*
X62384490Y-36162022D01*
X62384490Y-36097978D01*
X62260072Y-35472486D01*
X61905759Y-34942219D01*
X61375492Y-34587906D01*
X60750000Y-34463488D01*
X60124508Y-34587906D01*
X59594241Y-34942219D01*
X59239928Y-35472486D01*
X59115510Y-36097978D01*
X59115510Y-36162022D01*
X59239928Y-36787514D01*
X59594241Y-37317781D01*
X59717290Y-37400000D01*
X59594241Y-37482219D01*
X59239928Y-38012486D01*
X59115510Y-38637978D01*
X59115510Y-38702022D01*
X59239928Y-39327514D01*
X59594241Y-39857781D01*
X59717290Y-39940000D01*
X59594241Y-40022219D01*
X59239928Y-40552486D01*
X59115510Y-41177978D01*
X59115510Y-41242022D01*
X59239928Y-41867514D01*
X59453453Y-42187077D01*
X59299069Y-42286420D01*
X59154079Y-42498620D01*
X59103070Y-42750510D01*
X56158382Y-42750510D01*
X56184838Y-42686799D01*
X56185162Y-42314833D01*
X56043117Y-41971057D01*
X55780327Y-41707808D01*
X55436799Y-41565162D01*
X55064833Y-41564838D01*
X54721057Y-41706883D01*
X54457808Y-41969673D01*
X54315162Y-42313201D01*
X54314838Y-42685167D01*
X52757290Y-42685167D01*
X52530327Y-42457808D01*
X52186799Y-42315162D01*
X51814833Y-42314838D01*
X51471057Y-42456883D01*
X51207808Y-42719673D01*
X51065162Y-43063201D01*
X51064838Y-43435167D01*
X45684839Y-43435167D01*
X45685162Y-43064833D01*
X45543117Y-42721057D01*
X45280327Y-42457808D01*
X45225802Y-42435167D01*
X47064838Y-42435167D01*
X47206883Y-42778943D01*
X47469673Y-43042192D01*
X47813201Y-43184838D01*
X48185167Y-43185162D01*
X48528943Y-43043117D01*
X48792192Y-42780327D01*
X48934838Y-42436799D01*
X48935162Y-42064833D01*
X48793117Y-41721057D01*
X48530327Y-41457808D01*
X48186799Y-41315162D01*
X47814833Y-41314838D01*
X47471057Y-41456883D01*
X47207808Y-41719673D01*
X47065162Y-42063201D01*
X47064838Y-42435167D01*
X45225802Y-42435167D01*
X44936799Y-42315162D01*
X44564833Y-42314838D01*
X44221057Y-42456883D01*
X43957808Y-42719673D01*
X43815162Y-43063201D01*
X43814838Y-43435167D01*
X32131586Y-43435167D01*
X32043117Y-43221057D01*
X31780327Y-42957808D01*
X31436799Y-42815162D01*
X31064833Y-42814838D01*
X30721057Y-42956883D01*
X30457808Y-43219673D01*
X30315162Y-43563201D01*
X30314838Y-43935167D01*
X30409806Y-44165008D01*
X30214833Y-44164838D01*
X29871057Y-44306883D01*
X29607808Y-44569673D01*
X29465162Y-44913201D01*
X29464838Y-45285167D01*
X26793945Y-45285167D01*
X26891828Y-45138675D01*
X26959195Y-44800000D01*
X26891828Y-44461325D01*
X26699985Y-44174210D01*
X26412870Y-43982367D01*
X26074195Y-43915000D01*
X25325805Y-43915000D01*
X24987130Y-43982367D01*
X24960000Y-44000495D01*
X24960000Y-42435167D01*
X41064838Y-42435167D01*
X41206883Y-42778943D01*
X41469673Y-43042192D01*
X41813201Y-43184838D01*
X42185167Y-43185162D01*
X42528943Y-43043117D01*
X42792192Y-42780327D01*
X42934838Y-42436799D01*
X42935162Y-42064833D01*
X42793117Y-41721057D01*
X42530327Y-41457808D01*
X42186799Y-41315162D01*
X41814833Y-41314838D01*
X41471057Y-41456883D01*
X41207808Y-41719673D01*
X41065162Y-42063201D01*
X41064838Y-42435167D01*
X24960000Y-42435167D01*
X24960000Y-41185167D01*
X38564838Y-41185167D01*
X38706883Y-41528943D01*
X38969673Y-41792192D01*
X39313201Y-41934838D01*
X39685167Y-41935162D01*
X40028943Y-41793117D01*
X40292192Y-41530327D01*
X40434838Y-41186799D01*
X40435162Y-40814833D01*
X40293117Y-40471057D01*
X40030327Y-40207808D01*
X39686799Y-40065162D01*
X39314833Y-40064838D01*
X38971057Y-40206883D01*
X38707808Y-40469673D01*
X38565162Y-40813201D01*
X38564838Y-41185167D01*
X24960000Y-41185167D01*
X24960000Y-38999505D01*
X24987130Y-39017633D01*
X25325805Y-39085000D01*
X26074195Y-39085000D01*
X26412870Y-39017633D01*
X26699985Y-38825790D01*
X26793945Y-38685167D01*
X44814838Y-38685167D01*
X44956883Y-39028943D01*
X45219673Y-39292192D01*
X45563201Y-39434838D01*
X45935167Y-39435162D01*
X46278943Y-39293117D01*
X46542192Y-39030327D01*
X46684838Y-38686799D01*
X46684840Y-38684944D01*
X46935167Y-38685162D01*
X47278943Y-38543117D01*
X47542192Y-38280327D01*
X47684838Y-37936799D01*
X47685162Y-37564833D01*
X47543117Y-37221057D01*
X47280327Y-36957808D01*
X46936799Y-36815162D01*
X46564833Y-36814838D01*
X46221057Y-36956883D01*
X45957808Y-37219673D01*
X45815162Y-37563201D01*
X45815160Y-37565056D01*
X45564833Y-37564838D01*
X45221057Y-37706883D01*
X44957808Y-37969673D01*
X44815162Y-38313201D01*
X44814838Y-38685167D01*
X26793945Y-38685167D01*
X26891828Y-38538675D01*
X26959195Y-38200000D01*
X26906517Y-37935167D01*
X39314838Y-37935167D01*
X39456883Y-38278943D01*
X39719673Y-38542192D01*
X40063201Y-38684838D01*
X40435167Y-38685162D01*
X40778943Y-38543117D01*
X41042192Y-38280327D01*
X41184838Y-37936799D01*
X41185162Y-37564833D01*
X41043117Y-37221057D01*
X40780327Y-36957808D01*
X40436799Y-36815162D01*
X40064833Y-36814838D01*
X39721057Y-36956883D01*
X39457808Y-37219673D01*
X39315162Y-37563201D01*
X39314838Y-37935167D01*
X26906517Y-37935167D01*
X26891828Y-37861325D01*
X26699985Y-37574210D01*
X26412870Y-37382367D01*
X26074195Y-37315000D01*
X25325805Y-37315000D01*
X24987130Y-37382367D01*
X24960000Y-37400495D01*
X24960000Y-35935167D01*
X50814838Y-35935167D01*
X50956883Y-36278943D01*
X51219673Y-36542192D01*
X51563201Y-36684838D01*
X51935167Y-36685162D01*
X52278943Y-36543117D01*
X52542192Y-36280327D01*
X52684838Y-35936799D01*
X52685162Y-35564833D01*
X52543117Y-35221057D01*
X52280327Y-34957808D01*
X51936799Y-34815162D01*
X51564833Y-34814838D01*
X51221057Y-34956883D01*
X50957808Y-35219673D01*
X50815162Y-35563201D01*
X50814838Y-35935167D01*
X24960000Y-35935167D01*
X24960000Y-28321344D01*
X25065161Y-28321344D01*
X25503450Y-29382086D01*
X26314305Y-30194357D01*
X27374280Y-30634498D01*
X28522004Y-30635499D01*
X28797550Y-30521646D01*
X28506043Y-30812645D01*
X28065902Y-31872620D01*
X28064901Y-33020344D01*
X28503190Y-34081086D01*
X29314045Y-34893357D01*
X30374020Y-35333498D01*
X31521744Y-35334499D01*
X32582486Y-34896210D01*
X33394757Y-34085355D01*
X33834898Y-33025380D01*
X33835899Y-31877656D01*
X33397610Y-30816914D01*
X33103475Y-30522266D01*
X33373760Y-30634498D01*
X34521484Y-30635499D01*
X35582226Y-30197210D01*
X36394497Y-29386355D01*
X36834638Y-28326380D01*
X36835639Y-27178656D01*
X36397350Y-26117914D01*
X35586495Y-25305643D01*
X34526520Y-24865502D01*
X33378796Y-24864501D01*
X32318054Y-25302790D01*
X31505783Y-26113645D01*
X31065642Y-27173620D01*
X31064641Y-28321344D01*
X31502930Y-29382086D01*
X31797065Y-29676734D01*
X31526780Y-29564502D01*
X30379056Y-29563501D01*
X30103510Y-29677354D01*
X30395017Y-29386355D01*
X30835158Y-28326380D01*
X30836159Y-27178656D01*
X30397870Y-26117914D01*
X29587015Y-25305643D01*
X28527040Y-24865502D01*
X27379316Y-24864501D01*
X26318574Y-25302790D01*
X25506303Y-26113645D01*
X25066162Y-27173620D01*
X25065161Y-28321344D01*
X24960000Y-28321344D01*
X24960000Y-24185167D01*
X47064838Y-24185167D01*
X47206883Y-24528943D01*
X47469673Y-24792192D01*
X47813201Y-24934838D01*
X48185167Y-24935162D01*
X48528943Y-24793117D01*
X48792192Y-24530327D01*
X48934838Y-24186799D01*
X48934839Y-24185167D01*
X58814838Y-24185167D01*
X58956883Y-24528943D01*
X59219673Y-24792192D01*
X59563201Y-24934838D01*
X59935167Y-24935162D01*
X60278943Y-24793117D01*
X60542192Y-24530327D01*
X60684838Y-24186799D01*
X60685162Y-23814833D01*
X60543117Y-23471057D01*
X60280327Y-23207808D01*
X59936799Y-23065162D01*
X59564833Y-23064838D01*
X59221057Y-23206883D01*
X58957808Y-23469673D01*
X58815162Y-23813201D01*
X58814838Y-24185167D01*
X48934839Y-24185167D01*
X48935162Y-23814833D01*
X48793117Y-23471057D01*
X48530327Y-23207808D01*
X48186799Y-23065162D01*
X47814833Y-23064838D01*
X47471057Y-23206883D01*
X47207808Y-23469673D01*
X47065162Y-23813201D01*
X47064838Y-24185167D01*
X24960000Y-24185167D01*
X24960000Y-21969606D01*
X25802606Y-21127000D01*
X62447394Y-21127000D01*
X63373000Y-22052606D01*
M02*
