M48
;DRILL file {KiCad 4.0.4-stable} date 03/14/17 06:36:12
;FORMAT={-:-/ absolute / metric / decimal}
FMAT,2
METRIC,TZ
T1C0.400
T2C0.500
T3C1.097
T4C3.000
%
G90
G05
M71
T1
X30.4Y-45.1
X31.25Y-43.75
X31.25Y-46.25
X34.5Y-36.75
X35.9Y-45.1
X39.Y-49.
X39.5Y-41.
X39.5Y-42.5
X40.25Y-37.75
X41.25Y-49.
X42.Y-42.25
X42.25Y-45.
X42.25Y-49.
X44.75Y-43.25
X45.75Y-38.5
X46.5Y-46.
X46.75Y-37.75
X47.75Y-37.75
X48.Y-24.
X48.Y-42.25
X48.Y-44.75
X48.Y-45.75
X51.75Y-35.75
X52.Y-43.25
X52.Y-44.25
X55.25Y-42.5
X55.25Y-44.25
X55.5Y-48.5
X59.75Y-24.
T3
X60.75Y-36.13
X60.75Y-38.67
X60.75Y-41.21
X60.75Y-43.75
T4
X27.951Y-27.75
X30.95Y-32.449
X33.95Y-27.75
T2
X26.05Y-38.2G85X25.35Y-38.2
G05
X26.05Y-44.8G85X25.35Y-44.8
G05
T0
M30
