G04 (created by PCBNEW (2013-07-07 BZR 4022)-stable) date 4/25/2015 1:18:05 AM*
%MOIN*%
G04 Gerber Fmt 3.4, Leading zero omitted, Abs format*
%FSLAX34Y34*%
G01*
G70*
G90*
G04 APERTURE LIST*
%ADD10C,0.00590551*%
%ADD11C,0.05*%
%ADD12C,0.177165*%
%ADD13R,0.0708661X0.0708661*%
%ADD14C,0.0708661*%
%ADD15C,0.074*%
%ADD16C,0.0275591*%
%ADD17C,0.00629921*%
%ADD18C,0.0905512*%
%ADD19C,0.019685*%
G04 APERTURE END LIST*
G54D10*
G54D11*
X52850Y-15900D03*
X52850Y-16900D03*
G54D12*
X56900Y-15459D03*
X56900Y-17821D03*
X58750Y-16640D03*
G54D13*
X61900Y-15415D03*
G54D14*
X61900Y-17384D03*
G54D15*
X53850Y-15900D03*
X53950Y-16900D03*
X53850Y-17900D03*
X53950Y-14900D03*
X64550Y-15900D03*
X64650Y-16900D03*
X64550Y-17900D03*
X64650Y-14900D03*
G54D16*
X45075Y-16925D03*
X46225Y-18625D03*
X46225Y-16750D03*
X52300Y-15625D03*
X50750Y-15325D03*
X45675Y-15325D03*
X51975Y-16825D03*
X50575Y-18475D03*
X45800Y-17800D03*
X46725Y-15875D03*
X45350Y-15075D03*
X46150Y-14350D03*
X50125Y-14350D03*
G54D17*
X45250Y-18625D02*
X46225Y-18625D01*
X45125Y-18500D02*
X45250Y-18625D01*
X45125Y-16975D02*
X45125Y-18500D01*
X45075Y-16925D02*
X45125Y-16975D01*
X46225Y-16750D02*
X46225Y-18625D01*
X52575Y-15900D02*
X52850Y-15900D01*
X52300Y-15625D02*
X52575Y-15900D01*
X50750Y-15325D02*
X51275Y-15325D01*
X51275Y-15325D02*
X52850Y-16900D01*
X45675Y-15325D02*
X50750Y-15325D01*
G54D18*
X56900Y-15459D02*
X57441Y-15459D01*
X61484Y-15000D02*
X61900Y-15415D01*
X57900Y-15000D02*
X61484Y-15000D01*
X57441Y-15459D02*
X57900Y-15000D01*
X61900Y-15415D02*
X62884Y-15415D01*
X62884Y-15415D02*
X63400Y-14900D01*
X63400Y-14900D02*
X64650Y-14900D01*
G54D17*
X51975Y-16825D02*
X47675Y-16825D01*
X47675Y-16825D02*
X46725Y-15875D01*
X51975Y-17075D02*
X51975Y-16825D01*
X50575Y-18475D02*
X51975Y-17075D01*
X45775Y-17775D02*
X45775Y-16325D01*
X45800Y-17800D02*
X45775Y-17775D01*
X45350Y-16175D02*
X45350Y-15075D01*
X45500Y-16325D02*
X45350Y-16175D01*
X46275Y-16325D02*
X45775Y-16325D01*
X46725Y-15875D02*
X46275Y-16325D01*
X45775Y-16325D02*
X45500Y-16325D01*
G54D19*
X46150Y-14350D02*
X50125Y-14350D01*
M02*
