G04 (created by PCBNEW (2013-07-07 BZR 4022)-stable) date 4/25/2015 1:18:05 AM*
%MOIN*%
G04 Gerber Fmt 3.4, Leading zero omitted, Abs format*
%FSLAX34Y34*%
G01*
G70*
G90*
G04 APERTURE LIST*
%ADD10C,0.00590551*%
%ADD11C,0.00393701*%
G04 APERTURE END LIST*
G54D10*
G54D11*
X65400Y-18800D02*
X65400Y-14000D01*
X65000Y-19200D02*
G75*
G03X65400Y-18800I0J400D01*
G74*
G01*
X55300Y-19200D02*
X65000Y-19200D01*
X65400Y-14000D02*
G75*
G03X65000Y-13600I-400J0D01*
G74*
G01*
X55300Y-13600D02*
X65000Y-13600D01*
X42400Y-18800D02*
G75*
G03X42800Y-19200I400J0D01*
G74*
G01*
X42800Y-13600D02*
G75*
G03X42400Y-14000I0J-400D01*
G74*
G01*
X54900Y-18200D02*
G75*
G03X54900Y-18200I-200J0D01*
G74*
G01*
X54923Y-17600D02*
G75*
G03X54923Y-17600I-223J0D01*
G74*
G01*
X54923Y-17000D02*
G75*
G03X54923Y-17000I-223J0D01*
G74*
G01*
X54900Y-15800D02*
G75*
G03X54900Y-15800I-200J0D01*
G74*
G01*
X54900Y-14600D02*
G75*
G03X54900Y-14600I-200J0D01*
G74*
G01*
X54900Y-15200D02*
G75*
G03X54900Y-15200I-200J0D01*
G74*
G01*
X54900Y-16400D02*
G75*
G03X54900Y-16400I-200J0D01*
G74*
G01*
X54900Y-18800D02*
G75*
G03X55300Y-19200I400J0D01*
G74*
G01*
X54900Y-18800D02*
G75*
G03X54700Y-18600I-200J0D01*
G74*
G01*
X54700Y-18600D02*
G75*
G03X54500Y-18800I0J-200D01*
G74*
G01*
X55300Y-13600D02*
G75*
G03X54900Y-14000I0J-400D01*
G74*
G01*
X54700Y-14200D02*
G75*
G03X54900Y-14000I0J200D01*
G74*
G01*
X54500Y-14000D02*
G75*
G03X54700Y-14200I200J0D01*
G74*
G01*
X54100Y-19200D02*
G75*
G03X54500Y-18800I0J400D01*
G74*
G01*
X54500Y-14000D02*
G75*
G03X54100Y-13600I-400J0D01*
G74*
G01*
X42400Y-18800D02*
X42400Y-14000D01*
X54100Y-19200D02*
X42800Y-19200D01*
X42800Y-13600D02*
X54100Y-13600D01*
M02*
