M48
;DRILL file {Pcbnew (2013-07-07 BZR 4022)-stable} date 4/25/2015 1:18:09 AM
;FORMAT={-:-/ absolute / inch / decimal}
FMAT,2
INCH,TZ
T1C0.016
T2C0.031
T3C0.040
T4C0.138
%
G90
G05
M72
T1
X4.5075Y-1.6925
X4.535Y-1.5075
X4.5675Y-1.5325
X4.58Y-1.78
X4.615Y-1.435
X4.6225Y-1.675
X4.6225Y-1.8625
X4.6725Y-1.5875
X5.0125Y-1.435
X5.0575Y-1.8475
X5.075Y-1.5325
X5.1975Y-1.6825
X5.23Y-1.5625
T2
X6.19Y-1.5416
X6.19Y-1.7384
T3
X5.385Y-1.59
X5.385Y-1.79
X5.395Y-1.49
X5.395Y-1.49
X5.395Y-1.69
X6.455Y-1.59
X6.455Y-1.79
X6.465Y-1.49
X6.465Y-1.49
X6.465Y-1.69
T4
X5.69Y-1.5459
X5.69Y-1.7821
X5.875Y-1.664
T0
M30
