M48
INCH,TZ
T10C0.016
T11C0.031
T12C0.039
T13C0.040
T14C0.020
%
T10
X045075Y-16925
X045350Y-15075
X045675Y-15325
X045800Y-17800
X046150Y-14350
X046225Y-16750
X046225Y-18625
X046725Y-15875
X050125Y-14350
X050575Y-18475
X050750Y-15325
X051975Y-16825
X052300Y-15625
T11
X059216Y-14200
X061184Y-14200
T12
X059512Y-17700
X060888Y-17700
T13
X053680Y-15900
X053680Y-17900
X053780Y-14900
X053780Y-14900
X053780Y-16900
X056550Y-15900
X056550Y-17900
X056650Y-14900
X056650Y-14900
X056650Y-16900
X063750Y-15900
X063750Y-17900
X063850Y-14900
X063850Y-14900
X063850Y-16900
T14
X055200Y-14400
X055200Y-14800
X055200Y-15200
X055200Y-15600
X055200Y-16000
X055200Y-16400
X055200Y-16800
X055200Y-17200
X055200Y-17600
X055200Y-18000
X055200Y-18400
M30

