G04 (created by PCBNEW (2013-07-07 BZR 4022)-stable) date 4/30/2015 9:13:44 PM*
%MOIN*%
G04 Gerber Fmt 3.4, Leading zero omitted, Abs format*
%FSLAX34Y34*%
G01*
G70*
G90*
G04 APERTURE LIST*
%ADD10C,0.00590551*%
%ADD11R,0.0413X0.0157*%
%ADD12R,0.0433X0.059*%
%ADD13R,0.036X0.036*%
%ADD14R,0.038X0.05*%
%ADD15R,0.0315X0.0138*%
%ADD16R,0.0138X0.0315*%
%ADD17R,0.128X0.128*%
%ADD18R,0.063X0.071*%
%ADD19R,0.0314X0.0314*%
%ADD20R,0.0275X0.0315*%
%ADD21R,0.0315X0.0275*%
%ADD22R,0.0669291X0.0944882*%
%ADD23O,0.0728X0.0728*%
%ADD24C,0.074*%
%ADD25R,0.0708661X0.0708661*%
%ADD26C,0.0708661*%
%ADD27C,0.0275591*%
%ADD28C,0.019685*%
%ADD29C,0.006*%
%ADD30C,0.00629921*%
%ADD31C,0.0905512*%
G04 APERTURE END LIST*
G54D10*
G54D11*
X44600Y-15889D03*
X44600Y-16145D03*
X44600Y-16400D03*
X44600Y-16655D03*
X44600Y-16911D03*
G54D12*
X43419Y-17974D03*
X43419Y-14826D03*
G54D13*
X46400Y-15525D03*
X46400Y-16225D03*
X45600Y-15875D03*
G54D14*
X50760Y-14515D03*
X52050Y-14515D03*
G54D15*
X50275Y-18180D03*
X50275Y-17924D03*
X50275Y-17412D03*
X50275Y-17156D03*
X50275Y-16900D03*
X50275Y-16644D03*
G54D16*
X49468Y-15325D03*
X49212Y-15325D03*
X48956Y-15325D03*
X48700Y-15325D03*
X48444Y-15325D03*
X48188Y-15325D03*
X47932Y-15325D03*
G54D15*
X50275Y-17668D03*
G54D17*
X49340Y-16260D03*
X49340Y-17540D03*
X48060Y-17540D03*
X48060Y-16260D03*
G54D15*
X47125Y-16132D03*
X47125Y-16388D03*
X47125Y-16644D03*
X47125Y-16900D03*
X47125Y-17156D03*
X47125Y-17412D03*
X47125Y-17668D03*
G54D16*
X47932Y-18475D03*
X48188Y-18475D03*
X48444Y-18475D03*
X48700Y-18475D03*
X48956Y-18475D03*
X49212Y-18475D03*
X49468Y-18475D03*
G54D15*
X50275Y-16388D03*
X50275Y-16132D03*
X50275Y-15876D03*
X50275Y-15620D03*
G54D16*
X49980Y-15325D03*
X49724Y-15325D03*
X47676Y-15325D03*
X47420Y-15325D03*
G54D15*
X47125Y-15620D03*
X47125Y-15876D03*
X47125Y-17924D03*
X47125Y-18180D03*
G54D16*
X47420Y-18475D03*
X47676Y-18475D03*
X49724Y-18475D03*
X49980Y-18475D03*
G54D18*
X44475Y-14350D03*
X45575Y-14350D03*
G54D19*
X46225Y-17770D03*
X46225Y-17180D03*
G54D20*
X46675Y-16884D03*
X46675Y-17316D03*
G54D21*
X51184Y-16825D03*
X51616Y-16825D03*
X51184Y-16350D03*
X51616Y-16350D03*
X51184Y-15950D03*
X51616Y-15950D03*
G54D20*
X46675Y-18216D03*
X46675Y-17784D03*
G54D21*
X51184Y-15300D03*
X51616Y-15300D03*
G54D20*
X46600Y-14566D03*
X46600Y-14134D03*
X49300Y-14134D03*
X49300Y-14566D03*
G54D21*
X51616Y-17325D03*
X51184Y-17325D03*
X45784Y-18225D03*
X46216Y-18225D03*
X51184Y-17850D03*
X51616Y-17850D03*
X51184Y-18350D03*
X51616Y-18350D03*
G54D22*
X47221Y-14450D03*
X48678Y-14450D03*
G54D23*
X59512Y-17700D03*
X60888Y-17700D03*
G54D24*
X56550Y-15900D03*
X56650Y-16900D03*
X56550Y-17900D03*
X56650Y-14900D03*
X63750Y-15900D03*
X63850Y-16900D03*
X63750Y-17900D03*
X63850Y-14900D03*
X53680Y-15900D03*
X53780Y-16900D03*
X53680Y-17900D03*
X53780Y-14900D03*
G54D25*
X61184Y-14200D03*
G54D26*
X59215Y-14200D03*
G54D27*
X45075Y-16925D03*
X46225Y-18625D03*
X46225Y-16750D03*
X52300Y-15625D03*
X50750Y-15325D03*
X45675Y-15325D03*
X51975Y-16825D03*
X50575Y-18475D03*
X45800Y-17800D03*
X46725Y-15875D03*
X45350Y-15075D03*
X46150Y-14350D03*
X50125Y-14350D03*
G54D28*
X44600Y-15889D02*
X44600Y-14475D01*
X44600Y-14475D02*
X44475Y-14350D01*
G54D29*
X53780Y-16900D02*
X54600Y-16900D01*
X56550Y-17000D02*
X56650Y-16900D01*
X54700Y-17000D02*
X56550Y-17000D01*
X54600Y-16900D02*
X54700Y-17000D01*
X51616Y-16350D02*
X52440Y-16350D01*
X53360Y-16480D02*
X53780Y-16900D01*
X52570Y-16480D02*
X53360Y-16480D01*
X52440Y-16350D02*
X52570Y-16480D01*
G54D30*
X50275Y-17412D02*
X50437Y-17412D01*
X50875Y-17850D02*
X51184Y-17850D01*
X50437Y-17412D02*
X50875Y-17850D01*
X50275Y-17668D02*
X50502Y-17668D01*
X50502Y-17668D02*
X51184Y-18350D01*
G54D29*
X53680Y-15900D02*
X54500Y-15900D01*
X56450Y-15800D02*
X56550Y-15900D01*
X54600Y-15800D02*
X56450Y-15800D01*
X54500Y-15900D02*
X54600Y-15800D01*
X51616Y-15950D02*
X52270Y-15950D01*
X53280Y-16300D02*
X53680Y-15900D01*
X52620Y-16300D02*
X53280Y-16300D01*
X52270Y-15950D02*
X52620Y-16300D01*
G54D31*
X59512Y-17700D02*
X59512Y-14496D01*
X59512Y-14496D02*
X59215Y-14200D01*
X59512Y-17700D02*
X59512Y-18412D01*
X62950Y-18700D02*
X63750Y-17900D01*
X59800Y-18700D02*
X62950Y-18700D01*
X59512Y-18412D02*
X59800Y-18700D01*
G54D29*
X53680Y-17900D02*
X54700Y-17900D01*
X56450Y-17800D02*
X56550Y-17900D01*
X54800Y-17800D02*
X56450Y-17800D01*
X54700Y-17900D02*
X54800Y-17800D01*
X51616Y-17325D02*
X53105Y-17325D01*
X53105Y-17325D02*
X53680Y-17900D01*
G54D30*
X47125Y-15620D02*
X47420Y-15620D01*
X47420Y-15620D02*
X48060Y-16260D01*
X48060Y-16260D02*
X48060Y-17540D01*
X48060Y-17540D02*
X49340Y-17540D01*
X49340Y-17540D02*
X49340Y-16260D01*
X49340Y-16260D02*
X48060Y-16260D01*
X48060Y-16260D02*
X49340Y-17540D01*
X50275Y-17156D02*
X49156Y-17156D01*
X49156Y-17156D02*
X47620Y-15620D01*
X47620Y-15620D02*
X47125Y-15620D01*
X47676Y-18475D02*
X47676Y-17299D01*
X49212Y-15763D02*
X49212Y-15325D01*
X47676Y-17299D02*
X49212Y-15763D01*
X49724Y-18475D02*
X49724Y-17724D01*
X49724Y-17724D02*
X47620Y-15620D01*
X47620Y-15620D02*
X47125Y-15620D01*
X44600Y-16911D02*
X45061Y-16911D01*
X45061Y-16911D02*
X45075Y-16925D01*
X46225Y-18625D02*
X46650Y-18625D01*
X47676Y-18674D02*
X47676Y-18475D01*
X47600Y-18750D02*
X47676Y-18674D01*
X46775Y-18750D02*
X47600Y-18750D01*
X46650Y-18625D02*
X46775Y-18750D01*
X46225Y-17180D02*
X46225Y-16750D01*
X45784Y-18509D02*
X45784Y-18225D01*
X45900Y-18625D02*
X45784Y-18509D01*
X46225Y-18625D02*
X45900Y-18625D01*
X46400Y-15525D02*
X47030Y-15525D01*
X47030Y-15525D02*
X47125Y-15620D01*
X46600Y-14566D02*
X46600Y-14800D01*
X47125Y-15325D02*
X47125Y-15620D01*
X46600Y-14800D02*
X47125Y-15325D01*
X49300Y-14566D02*
X49300Y-14850D01*
X49300Y-14850D02*
X49212Y-14938D01*
X49212Y-14938D02*
X49212Y-15325D01*
X50275Y-17156D02*
X50506Y-17156D01*
X51366Y-17575D02*
X51616Y-17325D01*
X50925Y-17575D02*
X51366Y-17575D01*
X50506Y-17156D02*
X50925Y-17575D01*
X50275Y-15620D02*
X52295Y-15620D01*
X52295Y-15620D02*
X52300Y-15625D01*
X50275Y-15876D02*
X51110Y-15876D01*
X51110Y-15876D02*
X51184Y-15950D01*
X46225Y-17770D02*
X46661Y-17770D01*
X46661Y-17770D02*
X46675Y-17784D01*
X46675Y-16884D02*
X46675Y-16500D01*
X46675Y-16500D02*
X46400Y-16225D01*
X50275Y-16388D02*
X50747Y-16388D01*
X50747Y-16388D02*
X51184Y-16825D01*
X44600Y-16145D02*
X45145Y-16145D01*
X51616Y-18534D02*
X51616Y-18350D01*
X51616Y-18534D02*
X51250Y-18900D01*
X45700Y-18900D02*
X51250Y-18900D01*
X45525Y-18725D02*
X45700Y-18900D01*
X45525Y-16525D02*
X45525Y-18725D01*
X45145Y-16145D02*
X45525Y-16525D01*
X51616Y-17850D02*
X51900Y-17850D01*
X45150Y-16400D02*
X44600Y-16400D01*
X45375Y-16625D02*
X45150Y-16400D01*
X45375Y-18825D02*
X45375Y-16625D01*
X45600Y-19050D02*
X45375Y-18825D01*
X51375Y-19050D02*
X45600Y-19050D01*
X51950Y-18475D02*
X51375Y-19050D01*
X51950Y-17900D02*
X51950Y-18475D01*
X51900Y-17850D02*
X51950Y-17900D01*
X47125Y-17412D02*
X46771Y-17412D01*
X46771Y-17412D02*
X46675Y-17316D01*
X45600Y-15875D02*
X45600Y-15400D01*
X50775Y-15300D02*
X51184Y-15300D01*
X50750Y-15325D02*
X50775Y-15300D01*
X45600Y-15400D02*
X45675Y-15325D01*
X49724Y-15325D02*
X49724Y-15126D01*
X50934Y-15050D02*
X51184Y-15300D01*
X49800Y-15050D02*
X50934Y-15050D01*
X49724Y-15126D02*
X49800Y-15050D01*
X50275Y-16132D02*
X50707Y-16132D01*
X50925Y-16350D02*
X51184Y-16350D01*
X50707Y-16132D02*
X50925Y-16350D01*
X50275Y-16900D02*
X50475Y-16900D01*
X50900Y-17325D02*
X51184Y-17325D01*
X50475Y-16900D02*
X50900Y-17325D01*
G54D31*
X60888Y-17700D02*
X60888Y-14496D01*
X60888Y-14496D02*
X61184Y-14200D01*
X61184Y-14200D02*
X63150Y-14200D01*
X63150Y-14200D02*
X63850Y-14900D01*
G54D28*
X52050Y-14515D02*
X53395Y-14515D01*
X53395Y-14515D02*
X53780Y-14900D01*
G54D30*
X50760Y-14515D02*
X51115Y-14515D01*
X51616Y-15016D02*
X51616Y-15300D01*
X51115Y-14515D02*
X51616Y-15016D01*
X49468Y-18475D02*
X49468Y-18743D01*
X50300Y-18750D02*
X50575Y-18475D01*
X49475Y-18750D02*
X50300Y-18750D01*
X49468Y-18743D02*
X49475Y-18750D01*
X50275Y-17924D02*
X50424Y-17924D01*
X50575Y-18075D02*
X50575Y-18475D01*
X50424Y-17924D02*
X50575Y-18075D01*
X49980Y-18475D02*
X50575Y-18475D01*
X51975Y-16825D02*
X51616Y-16825D01*
X47420Y-18475D02*
X46934Y-18475D01*
X46684Y-18225D02*
X46216Y-18225D01*
X46934Y-18475D02*
X46684Y-18225D01*
X46216Y-18225D02*
X46216Y-18216D01*
X46216Y-18216D02*
X45800Y-17800D01*
X47125Y-15876D02*
X46726Y-15876D01*
X46726Y-15876D02*
X46725Y-15875D01*
X45575Y-14850D02*
X45575Y-14350D01*
X45350Y-15075D02*
X45575Y-14850D01*
G54D28*
X45575Y-14350D02*
X46150Y-14350D01*
X50290Y-14515D02*
X50760Y-14515D01*
X50125Y-14350D02*
X50290Y-14515D01*
G54D30*
X50775Y-14924D02*
X50775Y-14530D01*
X50775Y-14530D02*
X50760Y-14515D01*
X49468Y-15325D02*
X49468Y-15082D01*
X49625Y-14924D02*
X50775Y-14924D01*
X49468Y-15082D02*
X49625Y-14924D01*
X50275Y-16644D02*
X50519Y-16644D01*
X51366Y-17075D02*
X51616Y-16825D01*
X50950Y-17075D02*
X51366Y-17075D01*
X50519Y-16644D02*
X50950Y-17075D01*
X46600Y-14134D02*
X46905Y-14134D01*
X46905Y-14134D02*
X47221Y-14450D01*
X48700Y-15325D02*
X48700Y-15150D01*
X47821Y-15050D02*
X47221Y-14450D01*
X48600Y-15050D02*
X47821Y-15050D01*
X48700Y-15150D02*
X48600Y-15050D01*
X49300Y-14134D02*
X48994Y-14134D01*
X48994Y-14134D02*
X48678Y-14450D01*
X48956Y-15325D02*
X48956Y-14727D01*
X48956Y-14727D02*
X48678Y-14450D01*
M02*
