G04 (created by PCBNEW (2013-07-07 BZR 4022)-stable) date 1/2/2015 7:23:32 AM*
%MOIN*%
G04 Gerber Fmt 3.4, Leading zero omitted, Abs format*
%FSLAX34Y34*%
G01*
G70*
G90*
G04 APERTURE LIST*
%ADD10C,0.00590551*%
%ADD11C,0.074*%
%ADD12C,0.05*%
%ADD13R,0.0708661X0.0708661*%
%ADD14C,0.0708661*%
%ADD15C,0.177165*%
%ADD16C,0.066126*%
%ADD17C,0.0354331*%
%ADD18R,0.0590551X0.0590551*%
%ADD19C,0.0590551*%
%ADD20C,0.035*%
%ADD21C,0.01*%
%ADD22C,0.0905512*%
G04 APERTURE END LIST*
G54D10*
G54D11*
X30579Y-13673D03*
X30679Y-14673D03*
X30579Y-15673D03*
X30679Y-12673D03*
G54D12*
X24005Y-13041D03*
X25285Y-11761D03*
X24005Y-14910D03*
X25285Y-16191D03*
G54D13*
X26968Y-12992D03*
G54D14*
X26968Y-14960D03*
G54D15*
X28937Y-10905D03*
X28937Y-8543D03*
X27087Y-9724D03*
G54D16*
X18779Y-9763D03*
X18779Y-8763D03*
X19779Y-9863D03*
X19779Y-8863D03*
X20779Y-9763D03*
X20779Y-8763D03*
G54D17*
X7578Y-9842D03*
X7578Y-11574D03*
G54D18*
X24606Y-8145D03*
G54D19*
X24606Y-11145D03*
G54D20*
X21968Y-10393D03*
X15300Y-9400D03*
X15700Y-11950D03*
X17050Y-16000D03*
X14550Y-13800D03*
X8150Y-16100D03*
X18422Y-12323D03*
X17475Y-11493D03*
X19037Y-12217D03*
X17760Y-10807D03*
X23714Y-15636D03*
X19601Y-10857D03*
X13472Y-9667D03*
G54D21*
X24005Y-11253D02*
X24005Y-13041D01*
X20991Y-8239D02*
X24005Y-11253D01*
X20404Y-8239D02*
X20991Y-8239D01*
X19779Y-8863D02*
X20404Y-8239D01*
X22070Y-15970D02*
X18422Y-12323D01*
X23846Y-15970D02*
X22070Y-15970D01*
X24634Y-15182D02*
X23846Y-15970D01*
X24634Y-13671D02*
X24634Y-15182D01*
X24005Y-13041D02*
X24634Y-13671D01*
X18313Y-11493D02*
X19037Y-12217D01*
X17475Y-11493D02*
X18313Y-11493D01*
X18060Y-10507D02*
X17760Y-10807D01*
X19735Y-10507D02*
X18060Y-10507D01*
X19976Y-10749D02*
X19735Y-10507D01*
X19976Y-11452D02*
X19976Y-10749D01*
X23835Y-15311D02*
X19976Y-11452D01*
X24193Y-15311D02*
X23835Y-15311D01*
X24420Y-15084D02*
X24193Y-15311D01*
X24420Y-14022D02*
X24420Y-15084D01*
X20779Y-10381D02*
X24420Y-14022D01*
X20779Y-9763D02*
X20779Y-10381D01*
X24005Y-14089D02*
X19779Y-9863D01*
X24005Y-14910D02*
X24005Y-14089D01*
X19601Y-10857D02*
X19601Y-11523D01*
X19601Y-11523D02*
X23714Y-15636D01*
G54D22*
X28937Y-10905D02*
X28937Y-10930D01*
X28937Y-10930D02*
X30679Y-12673D01*
X28937Y-10905D02*
X28937Y-11023D01*
X28937Y-11023D02*
X26968Y-12992D01*
G54D21*
X26968Y-11823D02*
X26968Y-12992D01*
X24606Y-9461D02*
X26968Y-11823D01*
X24606Y-8145D02*
X24606Y-9461D01*
X13472Y-9667D02*
X14375Y-8763D01*
X14375Y-8763D02*
X18779Y-8763D01*
X21479Y-8018D02*
X24606Y-11145D01*
X19524Y-8018D02*
X21479Y-8018D01*
X18779Y-8763D02*
X19524Y-8018D01*
G54D10*
G36*
X23784Y-12677D02*
X23767Y-12684D01*
X23648Y-12802D01*
X23608Y-12898D01*
X21000Y-10290D01*
X21000Y-10258D01*
X21085Y-10222D01*
X21238Y-10070D01*
X21320Y-9871D01*
X21320Y-9656D01*
X21238Y-9457D01*
X21086Y-9305D01*
X21082Y-9303D01*
X21114Y-9224D01*
X20779Y-8890D01*
X20444Y-9224D01*
X20476Y-9303D01*
X20473Y-9304D01*
X20320Y-9456D01*
X20258Y-9606D01*
X20238Y-9557D01*
X20086Y-9405D01*
X19986Y-9363D01*
X20085Y-9322D01*
X20238Y-9170D01*
X20275Y-9081D01*
X20318Y-9098D01*
X20653Y-8763D01*
X20647Y-8758D01*
X20773Y-8631D01*
X20779Y-8637D01*
X20785Y-8631D01*
X20911Y-8758D01*
X20905Y-8763D01*
X21240Y-9098D01*
X21338Y-9059D01*
X21375Y-8935D01*
X23784Y-11344D01*
X23784Y-12677D01*
X23784Y-12677D01*
G37*
G54D21*
X23784Y-12677D02*
X23767Y-12684D01*
X23648Y-12802D01*
X23608Y-12898D01*
X21000Y-10290D01*
X21000Y-10258D01*
X21085Y-10222D01*
X21238Y-10070D01*
X21320Y-9871D01*
X21320Y-9656D01*
X21238Y-9457D01*
X21086Y-9305D01*
X21082Y-9303D01*
X21114Y-9224D01*
X20779Y-8890D01*
X20444Y-9224D01*
X20476Y-9303D01*
X20473Y-9304D01*
X20320Y-9456D01*
X20258Y-9606D01*
X20238Y-9557D01*
X20086Y-9405D01*
X19986Y-9363D01*
X20085Y-9322D01*
X20238Y-9170D01*
X20275Y-9081D01*
X20318Y-9098D01*
X20653Y-8763D01*
X20647Y-8758D01*
X20773Y-8631D01*
X20779Y-8637D01*
X20785Y-8631D01*
X20911Y-8758D01*
X20905Y-8763D01*
X21240Y-9098D01*
X21338Y-9059D01*
X21375Y-8935D01*
X23784Y-11344D01*
X23784Y-12677D01*
G54D10*
G36*
X32233Y-16522D02*
X32169Y-16618D01*
X32074Y-16682D01*
X31303Y-16682D01*
X31303Y-12673D01*
X31256Y-12434D01*
X31121Y-12231D01*
X30080Y-11191D01*
X30080Y-8726D01*
X30063Y-8274D01*
X29923Y-7937D01*
X29772Y-7834D01*
X29063Y-8543D01*
X29772Y-9252D01*
X29923Y-9149D01*
X30080Y-8726D01*
X30080Y-11191D01*
X29993Y-11104D01*
X29994Y-10696D01*
X29833Y-10307D01*
X29645Y-10119D01*
X29536Y-10009D01*
X29148Y-9848D01*
X28727Y-9848D01*
X28338Y-10008D01*
X28107Y-10240D01*
X28230Y-9907D01*
X28213Y-9455D01*
X28195Y-9411D01*
X28228Y-9378D01*
X28330Y-9530D01*
X28754Y-9687D01*
X29205Y-9669D01*
X29543Y-9530D01*
X29645Y-9378D01*
X28937Y-8669D01*
X28931Y-8675D01*
X28805Y-8549D01*
X28810Y-8543D01*
X28101Y-7834D01*
X27950Y-7937D01*
X27793Y-8360D01*
X27810Y-8812D01*
X27828Y-8856D01*
X27795Y-8889D01*
X27693Y-8737D01*
X27269Y-8580D01*
X26818Y-8598D01*
X26480Y-8737D01*
X26378Y-8889D01*
X27087Y-9598D01*
X27092Y-9592D01*
X27218Y-9718D01*
X27213Y-9724D01*
X27922Y-10433D01*
X28014Y-10371D01*
X27880Y-10694D01*
X27879Y-11114D01*
X27904Y-11173D01*
X27795Y-11282D01*
X27795Y-10559D01*
X27087Y-9850D01*
X26960Y-9977D01*
X26960Y-9724D01*
X26251Y-9015D01*
X26100Y-9118D01*
X25943Y-9541D01*
X25960Y-9993D01*
X26100Y-10330D01*
X26251Y-10433D01*
X26960Y-9724D01*
X26960Y-9977D01*
X26378Y-10559D01*
X26480Y-10711D01*
X26904Y-10868D01*
X27355Y-10850D01*
X27693Y-10711D01*
X27795Y-10559D01*
X27795Y-11282D01*
X27189Y-11888D01*
X27189Y-11823D01*
X27172Y-11739D01*
X27124Y-11667D01*
X24827Y-9370D01*
X24827Y-8591D01*
X24915Y-8591D01*
X24978Y-8565D01*
X25026Y-8517D01*
X25052Y-8454D01*
X25052Y-8386D01*
X25052Y-7836D01*
X25026Y-7773D01*
X24978Y-7725D01*
X24915Y-7699D01*
X24847Y-7699D01*
X24297Y-7699D01*
X24234Y-7725D01*
X24186Y-7773D01*
X24160Y-7836D01*
X24160Y-7904D01*
X24160Y-8454D01*
X24186Y-8517D01*
X24234Y-8565D01*
X24297Y-8591D01*
X24365Y-8591D01*
X24385Y-8591D01*
X24385Y-9461D01*
X24401Y-9546D01*
X24449Y-9618D01*
X26747Y-11915D01*
X26747Y-12330D01*
X26611Y-12466D01*
X26580Y-12466D01*
X26517Y-12492D01*
X26469Y-12540D01*
X26442Y-12603D01*
X26442Y-12671D01*
X26442Y-12677D01*
X26391Y-12753D01*
X26344Y-12992D01*
X26391Y-13230D01*
X26442Y-13307D01*
X26442Y-13380D01*
X26468Y-13443D01*
X26517Y-13491D01*
X26579Y-13517D01*
X26648Y-13517D01*
X26653Y-13517D01*
X26729Y-13568D01*
X26968Y-13616D01*
X27207Y-13568D01*
X27283Y-13517D01*
X27356Y-13517D01*
X27419Y-13491D01*
X27467Y-13443D01*
X27494Y-13380D01*
X27494Y-13349D01*
X28880Y-11962D01*
X29086Y-11962D01*
X30238Y-13114D01*
X30344Y-13184D01*
X30273Y-13214D01*
X30121Y-13366D01*
X30038Y-13565D01*
X30038Y-13780D01*
X30120Y-13979D01*
X30272Y-14131D01*
X30422Y-14193D01*
X30373Y-14214D01*
X30221Y-14366D01*
X30138Y-14565D01*
X30138Y-14780D01*
X30220Y-14979D01*
X30334Y-15093D01*
X30284Y-15114D01*
X30245Y-15212D01*
X30579Y-15546D01*
X30914Y-15212D01*
X30897Y-15169D01*
X30986Y-15132D01*
X31138Y-14980D01*
X31221Y-14781D01*
X31221Y-14566D01*
X31139Y-14367D01*
X30986Y-14214D01*
X30837Y-14152D01*
X30886Y-14132D01*
X31038Y-13980D01*
X31121Y-13781D01*
X31121Y-13566D01*
X31039Y-13367D01*
X30920Y-13248D01*
X31121Y-13114D01*
X31256Y-12912D01*
X31303Y-12673D01*
X31303Y-16682D01*
X31209Y-16682D01*
X31209Y-15732D01*
X31184Y-15487D01*
X31138Y-15377D01*
X31040Y-15338D01*
X30706Y-15673D01*
X31040Y-16007D01*
X31138Y-15968D01*
X31209Y-15732D01*
X31209Y-16682D01*
X30914Y-16682D01*
X30914Y-16134D01*
X30579Y-15799D01*
X30453Y-15926D01*
X30453Y-15673D01*
X30118Y-15338D01*
X30021Y-15377D01*
X29950Y-15614D01*
X29975Y-15859D01*
X30021Y-15968D01*
X30118Y-16007D01*
X30453Y-15673D01*
X30453Y-15926D01*
X30245Y-16134D01*
X30284Y-16232D01*
X30520Y-16302D01*
X30766Y-16277D01*
X30875Y-16232D01*
X30914Y-16134D01*
X30914Y-16682D01*
X27582Y-16682D01*
X27582Y-15016D01*
X27556Y-14776D01*
X27514Y-14674D01*
X27418Y-14637D01*
X27291Y-14763D01*
X27291Y-14511D01*
X27254Y-14414D01*
X27023Y-14346D01*
X26784Y-14372D01*
X26682Y-14414D01*
X26645Y-14511D01*
X26968Y-14834D01*
X27291Y-14511D01*
X27291Y-14763D01*
X27094Y-14960D01*
X27418Y-15283D01*
X27514Y-15246D01*
X27582Y-15016D01*
X27582Y-16682D01*
X27291Y-16682D01*
X27291Y-15410D01*
X26968Y-15087D01*
X26842Y-15213D01*
X26842Y-14960D01*
X26518Y-14637D01*
X26422Y-14674D01*
X26354Y-14905D01*
X26380Y-15144D01*
X26422Y-15246D01*
X26518Y-15283D01*
X26842Y-14960D01*
X26842Y-15213D01*
X26645Y-15410D01*
X26682Y-15506D01*
X26913Y-15574D01*
X27152Y-15548D01*
X27254Y-15506D01*
X27291Y-15410D01*
X27291Y-16682D01*
X25707Y-16682D01*
X25707Y-16108D01*
X25707Y-11677D01*
X25643Y-11522D01*
X25524Y-11404D01*
X25370Y-11340D01*
X25202Y-11339D01*
X25052Y-11401D01*
X25052Y-11057D01*
X24984Y-10893D01*
X24859Y-10767D01*
X24695Y-10699D01*
X24517Y-10699D01*
X24486Y-10712D01*
X21635Y-7862D01*
X21564Y-7814D01*
X21479Y-7797D01*
X19524Y-7797D01*
X19439Y-7814D01*
X19367Y-7862D01*
X18972Y-8257D01*
X18887Y-8222D01*
X18672Y-8222D01*
X18473Y-8304D01*
X18320Y-8456D01*
X18285Y-8542D01*
X14375Y-8542D01*
X14291Y-8559D01*
X14219Y-8607D01*
X13505Y-9320D01*
X13403Y-9320D01*
X13276Y-9373D01*
X13178Y-9470D01*
X13126Y-9597D01*
X13126Y-9735D01*
X13178Y-9863D01*
X13275Y-9960D01*
X13403Y-10013D01*
X13540Y-10013D01*
X13668Y-9960D01*
X13765Y-9863D01*
X13818Y-9736D01*
X13818Y-9633D01*
X14467Y-8985D01*
X18285Y-8985D01*
X18320Y-9069D01*
X18472Y-9222D01*
X18572Y-9263D01*
X18473Y-9304D01*
X18320Y-9456D01*
X18238Y-9655D01*
X18238Y-9870D01*
X18320Y-10069D01*
X18472Y-10222D01*
X18626Y-10286D01*
X18060Y-10286D01*
X17975Y-10303D01*
X17904Y-10351D01*
X17793Y-10461D01*
X17691Y-10461D01*
X17564Y-10513D01*
X17467Y-10611D01*
X17414Y-10738D01*
X17414Y-10876D01*
X17466Y-11003D01*
X17564Y-11100D01*
X17691Y-11153D01*
X17829Y-11153D01*
X17956Y-11101D01*
X18053Y-11003D01*
X18106Y-10876D01*
X18106Y-10774D01*
X18152Y-10728D01*
X19280Y-10728D01*
X19255Y-10788D01*
X19255Y-10926D01*
X19308Y-11053D01*
X19380Y-11125D01*
X19380Y-11523D01*
X19397Y-11608D01*
X19445Y-11680D01*
X23368Y-15602D01*
X23367Y-15704D01*
X23386Y-15749D01*
X22162Y-15749D01*
X18975Y-12563D01*
X19105Y-12563D01*
X19232Y-12510D01*
X19330Y-12413D01*
X19383Y-12286D01*
X19383Y-12148D01*
X19330Y-12021D01*
X19233Y-11923D01*
X19106Y-11870D01*
X19003Y-11870D01*
X18470Y-11337D01*
X18398Y-11289D01*
X18313Y-11272D01*
X17744Y-11272D01*
X17672Y-11200D01*
X17544Y-11147D01*
X17407Y-11147D01*
X17279Y-11199D01*
X17182Y-11297D01*
X17129Y-11424D01*
X17129Y-11562D01*
X17181Y-11689D01*
X17279Y-11787D01*
X17406Y-11839D01*
X17544Y-11840D01*
X17671Y-11787D01*
X17744Y-11714D01*
X18221Y-11714D01*
X18483Y-11977D01*
X18354Y-11976D01*
X18226Y-12029D01*
X18129Y-12126D01*
X18076Y-12254D01*
X18076Y-12391D01*
X18129Y-12519D01*
X18226Y-12616D01*
X18353Y-12669D01*
X18456Y-12669D01*
X21913Y-16127D01*
X21985Y-16175D01*
X22070Y-16192D01*
X23846Y-16192D01*
X23931Y-16175D01*
X24002Y-16127D01*
X24791Y-15339D01*
X24839Y-15267D01*
X24855Y-15182D01*
X24855Y-13671D01*
X24839Y-13586D01*
X24791Y-13514D01*
X24419Y-13143D01*
X24426Y-13126D01*
X24426Y-12958D01*
X24362Y-12803D01*
X24244Y-12684D01*
X24226Y-12677D01*
X24226Y-11395D01*
X24227Y-11398D01*
X24353Y-11523D01*
X24517Y-11591D01*
X24694Y-11592D01*
X24858Y-11524D01*
X24984Y-11398D01*
X25052Y-11234D01*
X25052Y-11057D01*
X25052Y-11401D01*
X25047Y-11403D01*
X24929Y-11522D01*
X24864Y-11677D01*
X24864Y-11844D01*
X24928Y-11999D01*
X25047Y-12118D01*
X25201Y-12182D01*
X25369Y-12182D01*
X25524Y-12118D01*
X25642Y-12000D01*
X25707Y-11845D01*
X25707Y-11677D01*
X25707Y-16108D01*
X25643Y-15953D01*
X25524Y-15834D01*
X25370Y-15770D01*
X25202Y-15770D01*
X25047Y-15834D01*
X24929Y-15952D01*
X24864Y-16107D01*
X24864Y-16274D01*
X24928Y-16429D01*
X25047Y-16548D01*
X25201Y-16612D01*
X25369Y-16612D01*
X25524Y-16548D01*
X25642Y-16430D01*
X25707Y-16275D01*
X25707Y-16108D01*
X25707Y-16682D01*
X5918Y-16682D01*
X5822Y-16618D01*
X5758Y-16523D01*
X5758Y-7689D01*
X5822Y-7594D01*
X5918Y-7530D01*
X28394Y-7530D01*
X28330Y-7556D01*
X28228Y-7708D01*
X28937Y-8417D01*
X29645Y-7708D01*
X29543Y-7556D01*
X29471Y-7530D01*
X32074Y-7530D01*
X32169Y-7593D01*
X32233Y-7689D01*
X32233Y-16522D01*
X32233Y-16522D01*
G37*
G54D21*
X32233Y-16522D02*
X32169Y-16618D01*
X32074Y-16682D01*
X31303Y-16682D01*
X31303Y-12673D01*
X31256Y-12434D01*
X31121Y-12231D01*
X30080Y-11191D01*
X30080Y-8726D01*
X30063Y-8274D01*
X29923Y-7937D01*
X29772Y-7834D01*
X29063Y-8543D01*
X29772Y-9252D01*
X29923Y-9149D01*
X30080Y-8726D01*
X30080Y-11191D01*
X29993Y-11104D01*
X29994Y-10696D01*
X29833Y-10307D01*
X29645Y-10119D01*
X29536Y-10009D01*
X29148Y-9848D01*
X28727Y-9848D01*
X28338Y-10008D01*
X28107Y-10240D01*
X28230Y-9907D01*
X28213Y-9455D01*
X28195Y-9411D01*
X28228Y-9378D01*
X28330Y-9530D01*
X28754Y-9687D01*
X29205Y-9669D01*
X29543Y-9530D01*
X29645Y-9378D01*
X28937Y-8669D01*
X28931Y-8675D01*
X28805Y-8549D01*
X28810Y-8543D01*
X28101Y-7834D01*
X27950Y-7937D01*
X27793Y-8360D01*
X27810Y-8812D01*
X27828Y-8856D01*
X27795Y-8889D01*
X27693Y-8737D01*
X27269Y-8580D01*
X26818Y-8598D01*
X26480Y-8737D01*
X26378Y-8889D01*
X27087Y-9598D01*
X27092Y-9592D01*
X27218Y-9718D01*
X27213Y-9724D01*
X27922Y-10433D01*
X28014Y-10371D01*
X27880Y-10694D01*
X27879Y-11114D01*
X27904Y-11173D01*
X27795Y-11282D01*
X27795Y-10559D01*
X27087Y-9850D01*
X26960Y-9977D01*
X26960Y-9724D01*
X26251Y-9015D01*
X26100Y-9118D01*
X25943Y-9541D01*
X25960Y-9993D01*
X26100Y-10330D01*
X26251Y-10433D01*
X26960Y-9724D01*
X26960Y-9977D01*
X26378Y-10559D01*
X26480Y-10711D01*
X26904Y-10868D01*
X27355Y-10850D01*
X27693Y-10711D01*
X27795Y-10559D01*
X27795Y-11282D01*
X27189Y-11888D01*
X27189Y-11823D01*
X27172Y-11739D01*
X27124Y-11667D01*
X24827Y-9370D01*
X24827Y-8591D01*
X24915Y-8591D01*
X24978Y-8565D01*
X25026Y-8517D01*
X25052Y-8454D01*
X25052Y-8386D01*
X25052Y-7836D01*
X25026Y-7773D01*
X24978Y-7725D01*
X24915Y-7699D01*
X24847Y-7699D01*
X24297Y-7699D01*
X24234Y-7725D01*
X24186Y-7773D01*
X24160Y-7836D01*
X24160Y-7904D01*
X24160Y-8454D01*
X24186Y-8517D01*
X24234Y-8565D01*
X24297Y-8591D01*
X24365Y-8591D01*
X24385Y-8591D01*
X24385Y-9461D01*
X24401Y-9546D01*
X24449Y-9618D01*
X26747Y-11915D01*
X26747Y-12330D01*
X26611Y-12466D01*
X26580Y-12466D01*
X26517Y-12492D01*
X26469Y-12540D01*
X26442Y-12603D01*
X26442Y-12671D01*
X26442Y-12677D01*
X26391Y-12753D01*
X26344Y-12992D01*
X26391Y-13230D01*
X26442Y-13307D01*
X26442Y-13380D01*
X26468Y-13443D01*
X26517Y-13491D01*
X26579Y-13517D01*
X26648Y-13517D01*
X26653Y-13517D01*
X26729Y-13568D01*
X26968Y-13616D01*
X27207Y-13568D01*
X27283Y-13517D01*
X27356Y-13517D01*
X27419Y-13491D01*
X27467Y-13443D01*
X27494Y-13380D01*
X27494Y-13349D01*
X28880Y-11962D01*
X29086Y-11962D01*
X30238Y-13114D01*
X30344Y-13184D01*
X30273Y-13214D01*
X30121Y-13366D01*
X30038Y-13565D01*
X30038Y-13780D01*
X30120Y-13979D01*
X30272Y-14131D01*
X30422Y-14193D01*
X30373Y-14214D01*
X30221Y-14366D01*
X30138Y-14565D01*
X30138Y-14780D01*
X30220Y-14979D01*
X30334Y-15093D01*
X30284Y-15114D01*
X30245Y-15212D01*
X30579Y-15546D01*
X30914Y-15212D01*
X30897Y-15169D01*
X30986Y-15132D01*
X31138Y-14980D01*
X31221Y-14781D01*
X31221Y-14566D01*
X31139Y-14367D01*
X30986Y-14214D01*
X30837Y-14152D01*
X30886Y-14132D01*
X31038Y-13980D01*
X31121Y-13781D01*
X31121Y-13566D01*
X31039Y-13367D01*
X30920Y-13248D01*
X31121Y-13114D01*
X31256Y-12912D01*
X31303Y-12673D01*
X31303Y-16682D01*
X31209Y-16682D01*
X31209Y-15732D01*
X31184Y-15487D01*
X31138Y-15377D01*
X31040Y-15338D01*
X30706Y-15673D01*
X31040Y-16007D01*
X31138Y-15968D01*
X31209Y-15732D01*
X31209Y-16682D01*
X30914Y-16682D01*
X30914Y-16134D01*
X30579Y-15799D01*
X30453Y-15926D01*
X30453Y-15673D01*
X30118Y-15338D01*
X30021Y-15377D01*
X29950Y-15614D01*
X29975Y-15859D01*
X30021Y-15968D01*
X30118Y-16007D01*
X30453Y-15673D01*
X30453Y-15926D01*
X30245Y-16134D01*
X30284Y-16232D01*
X30520Y-16302D01*
X30766Y-16277D01*
X30875Y-16232D01*
X30914Y-16134D01*
X30914Y-16682D01*
X27582Y-16682D01*
X27582Y-15016D01*
X27556Y-14776D01*
X27514Y-14674D01*
X27418Y-14637D01*
X27291Y-14763D01*
X27291Y-14511D01*
X27254Y-14414D01*
X27023Y-14346D01*
X26784Y-14372D01*
X26682Y-14414D01*
X26645Y-14511D01*
X26968Y-14834D01*
X27291Y-14511D01*
X27291Y-14763D01*
X27094Y-14960D01*
X27418Y-15283D01*
X27514Y-15246D01*
X27582Y-15016D01*
X27582Y-16682D01*
X27291Y-16682D01*
X27291Y-15410D01*
X26968Y-15087D01*
X26842Y-15213D01*
X26842Y-14960D01*
X26518Y-14637D01*
X26422Y-14674D01*
X26354Y-14905D01*
X26380Y-15144D01*
X26422Y-15246D01*
X26518Y-15283D01*
X26842Y-14960D01*
X26842Y-15213D01*
X26645Y-15410D01*
X26682Y-15506D01*
X26913Y-15574D01*
X27152Y-15548D01*
X27254Y-15506D01*
X27291Y-15410D01*
X27291Y-16682D01*
X25707Y-16682D01*
X25707Y-16108D01*
X25707Y-11677D01*
X25643Y-11522D01*
X25524Y-11404D01*
X25370Y-11340D01*
X25202Y-11339D01*
X25052Y-11401D01*
X25052Y-11057D01*
X24984Y-10893D01*
X24859Y-10767D01*
X24695Y-10699D01*
X24517Y-10699D01*
X24486Y-10712D01*
X21635Y-7862D01*
X21564Y-7814D01*
X21479Y-7797D01*
X19524Y-7797D01*
X19439Y-7814D01*
X19367Y-7862D01*
X18972Y-8257D01*
X18887Y-8222D01*
X18672Y-8222D01*
X18473Y-8304D01*
X18320Y-8456D01*
X18285Y-8542D01*
X14375Y-8542D01*
X14291Y-8559D01*
X14219Y-8607D01*
X13505Y-9320D01*
X13403Y-9320D01*
X13276Y-9373D01*
X13178Y-9470D01*
X13126Y-9597D01*
X13126Y-9735D01*
X13178Y-9863D01*
X13275Y-9960D01*
X13403Y-10013D01*
X13540Y-10013D01*
X13668Y-9960D01*
X13765Y-9863D01*
X13818Y-9736D01*
X13818Y-9633D01*
X14467Y-8985D01*
X18285Y-8985D01*
X18320Y-9069D01*
X18472Y-9222D01*
X18572Y-9263D01*
X18473Y-9304D01*
X18320Y-9456D01*
X18238Y-9655D01*
X18238Y-9870D01*
X18320Y-10069D01*
X18472Y-10222D01*
X18626Y-10286D01*
X18060Y-10286D01*
X17975Y-10303D01*
X17904Y-10351D01*
X17793Y-10461D01*
X17691Y-10461D01*
X17564Y-10513D01*
X17467Y-10611D01*
X17414Y-10738D01*
X17414Y-10876D01*
X17466Y-11003D01*
X17564Y-11100D01*
X17691Y-11153D01*
X17829Y-11153D01*
X17956Y-11101D01*
X18053Y-11003D01*
X18106Y-10876D01*
X18106Y-10774D01*
X18152Y-10728D01*
X19280Y-10728D01*
X19255Y-10788D01*
X19255Y-10926D01*
X19308Y-11053D01*
X19380Y-11125D01*
X19380Y-11523D01*
X19397Y-11608D01*
X19445Y-11680D01*
X23368Y-15602D01*
X23367Y-15704D01*
X23386Y-15749D01*
X22162Y-15749D01*
X18975Y-12563D01*
X19105Y-12563D01*
X19232Y-12510D01*
X19330Y-12413D01*
X19383Y-12286D01*
X19383Y-12148D01*
X19330Y-12021D01*
X19233Y-11923D01*
X19106Y-11870D01*
X19003Y-11870D01*
X18470Y-11337D01*
X18398Y-11289D01*
X18313Y-11272D01*
X17744Y-11272D01*
X17672Y-11200D01*
X17544Y-11147D01*
X17407Y-11147D01*
X17279Y-11199D01*
X17182Y-11297D01*
X17129Y-11424D01*
X17129Y-11562D01*
X17181Y-11689D01*
X17279Y-11787D01*
X17406Y-11839D01*
X17544Y-11840D01*
X17671Y-11787D01*
X17744Y-11714D01*
X18221Y-11714D01*
X18483Y-11977D01*
X18354Y-11976D01*
X18226Y-12029D01*
X18129Y-12126D01*
X18076Y-12254D01*
X18076Y-12391D01*
X18129Y-12519D01*
X18226Y-12616D01*
X18353Y-12669D01*
X18456Y-12669D01*
X21913Y-16127D01*
X21985Y-16175D01*
X22070Y-16192D01*
X23846Y-16192D01*
X23931Y-16175D01*
X24002Y-16127D01*
X24791Y-15339D01*
X24839Y-15267D01*
X24855Y-15182D01*
X24855Y-13671D01*
X24839Y-13586D01*
X24791Y-13514D01*
X24419Y-13143D01*
X24426Y-13126D01*
X24426Y-12958D01*
X24362Y-12803D01*
X24244Y-12684D01*
X24226Y-12677D01*
X24226Y-11395D01*
X24227Y-11398D01*
X24353Y-11523D01*
X24517Y-11591D01*
X24694Y-11592D01*
X24858Y-11524D01*
X24984Y-11398D01*
X25052Y-11234D01*
X25052Y-11057D01*
X25052Y-11401D01*
X25047Y-11403D01*
X24929Y-11522D01*
X24864Y-11677D01*
X24864Y-11844D01*
X24928Y-11999D01*
X25047Y-12118D01*
X25201Y-12182D01*
X25369Y-12182D01*
X25524Y-12118D01*
X25642Y-12000D01*
X25707Y-11845D01*
X25707Y-11677D01*
X25707Y-16108D01*
X25643Y-15953D01*
X25524Y-15834D01*
X25370Y-15770D01*
X25202Y-15770D01*
X25047Y-15834D01*
X24929Y-15952D01*
X24864Y-16107D01*
X24864Y-16274D01*
X24928Y-16429D01*
X25047Y-16548D01*
X25201Y-16612D01*
X25369Y-16612D01*
X25524Y-16548D01*
X25642Y-16430D01*
X25707Y-16275D01*
X25707Y-16108D01*
X25707Y-16682D01*
X5918Y-16682D01*
X5822Y-16618D01*
X5758Y-16523D01*
X5758Y-7689D01*
X5822Y-7594D01*
X5918Y-7530D01*
X28394Y-7530D01*
X28330Y-7556D01*
X28228Y-7708D01*
X28937Y-8417D01*
X29645Y-7708D01*
X29543Y-7556D01*
X29471Y-7530D01*
X32074Y-7530D01*
X32169Y-7593D01*
X32233Y-7689D01*
X32233Y-16522D01*
M02*
