M48
;DRILL file {Pcbnew (2013-07-07 BZR 4022)-stable} date 1/2/2015 7:23:30 AM
;FORMAT={-:-/ absolute / inch / decimal}
FMAT,2
INCH,TZ
T1C0.025
T2C0.031
T3C0.035
T4C0.039
T5C0.040
T6C0.118
%
G90
G05
M72
T1
X0.815Y-1.61
X1.3472Y-0.9667
X1.455Y-1.38
X1.53Y-0.94
X1.57Y-1.195
X1.705Y-1.6
X1.7476Y-1.1494
X1.7761Y-1.0807
X1.8423Y-1.2323
X1.9037Y-1.2217
X1.9602Y-1.0858
X2.1969Y-1.0394
X2.3714Y-1.5636
X2.4005Y-1.3042
X2.4005Y-1.4911
X2.5286Y-1.1761
X2.5286Y-1.6191
T2
X2.6969Y-1.2992
X2.6969Y-1.4961
T3
X0.7579Y-0.9843
X0.7579Y-1.1575
T4
X2.4606Y-0.8146
X2.4606Y-1.1146
T5
X1.878Y-0.8764
X1.878Y-0.9764
X1.978Y-0.8864
X1.978Y-0.9864
X2.078Y-0.8764
X2.078Y-0.9764
X3.058Y-1.3673
X3.058Y-1.5673
X3.068Y-1.2673
X3.068Y-1.2673
X3.068Y-1.4673
T6
X2.7087Y-0.9725
X2.8937Y-0.8544
X2.8937Y-1.0906
T0
M30
