M48
;DRILL file {Pcbnew (2013-07-07 BZR 4022)-stable} date 4/11/2015 10:49:24 AM
;FORMAT={-:-/ absolute / inch / decimal}
FMAT,2
INCH,TZ
T1C0.025
T2C0.031
T3C0.035
T4C0.039
T5C0.040
T6C0.138
%
G90
G05
M72
T1
X1.1122Y-1.3878
X1.3386Y-1.3878
X1.3472Y-0.9667
X1.5354Y-0.9252
X1.5945Y-1.1909
X1.7323Y-1.5945
X1.7476Y-1.1494
X1.7761Y-1.0807
X1.8423Y-1.2323
X1.9037Y-1.2217
X1.9602Y-1.0858
X2.2047Y-1.0138
X2.3714Y-1.5636
X2.4005Y-1.3042
X2.4005Y-1.4911
X2.5286Y-1.1761
X2.5286Y-1.6191
T2
X2.6969Y-1.2992
X2.6969Y-1.4961
T3
X0.7579Y-0.9843
X0.7579Y-1.1575
T4
X2.4606Y-0.8146
X2.4606Y-1.1146
T5
X1.878Y-0.8764
X1.878Y-0.9764
X1.978Y-0.8864
X1.978Y-0.9864
X2.078Y-0.8764
X2.078Y-0.9764
X3.058Y-1.3673
X3.058Y-1.5673
X3.068Y-1.2673
X3.068Y-1.2673
X3.068Y-1.4673
T6
X2.7087Y-0.9725
X2.8937Y-0.8544
X2.8937Y-1.0906
T0
M30
